<svg width="32" height="33" viewBox="0 0 32 33" fill="none" xmlns="http://www.w3.org/2000/svg">
<path d="M16 32C7.716 32 1 25.5 1 18V12.5C1 9.5 3 7.5 5.5 7.5H7V6V4.5C7 2.843 8.343 1.5 10 1.5C11.657 1.5 13 2.843 13 4.5V5.5C13 3.843 14.343 2.5 16 2.5C17.657 2.5 19 3.843 19 5.5V7.5C19 5.843 20.343 4.5 22 4.5C23.657 4.5 25 5.843 25 7.5V9.5C25 7.843 26.343 6.5 28 6.5C29.657 6.5 31 7.843 31 9.5V17C31 25.284 24.284 32 16 32Z" fill="#FFAFC4"/>
<path d="M7 6V7.5M7 16V7.5M7 7.5V4.5C7 2.843 8.343 1.5 10 1.5C11.657 1.5 13 2.843 13 4.5L13 8L13 5.5C13 3.843 14.343 2.5 16 2.5C17.657 2.5 19 3.843 19 5.5V10C19 10 19 9.157 19 7.5C19 5.843 20.343 4.5 22 4.5C23.657 4.5 25 5.843 25 7.5V12V9.5C25 7.843 26.343 6.5 28 6.5C29.657 6.5 31 7.843 31 9.5V17C31 25.284 24.284 32 16 32C7.716 32 1 25.5 1 18C1 16.6667 1 14.1 1 12.5C1 9.5 3 7.5 5.5 7.5C6.7 7.5 6.66667 7.5 7 7.5Z" stroke="#191919" stroke-width="2" stroke-miterlimit="10" stroke-linecap="round" stroke-linejoin="round"/>
</svg>
