<svg width="76" height="59" viewBox="0 0 76 59" fill="none" xmlns="http://www.w3.org/2000/svg">
<g clip-path="url(#clip0_1123_3980)">
<path d="M0.8 15.4C0.8 23.8 6.4 29.8 15.4 29.8C17.2 29.8 18.6 29.4 19.6 28.8C19.2 38 10.8 44.6 3.2 45.8V58C15.8 56.8 34.2 47 34.2 20.2C34.2 9.59999 27.4 0.799996 16.8 0.799996C7.4 0.799996 0.8 7.59999 0.8 15.4ZM41.8703 15.4C41.8703 23.8 47.4703 29.8 56.4703 29.8C58.2703 29.8 59.6703 29.4 60.6703 28.8C60.2703 38 51.8703 44.6 44.2703 45.8V58C56.8703 56.8 75.2703 47 75.2703 20.2C75.2703 9.59999 68.4703 0.799996 57.8703 0.799996C48.4703 0.799996 41.8703 7.59999 41.8703 15.4Z" fill="#FFAFC4"/>
</g>
<defs>
<clipPath id="clip0_1123_3980">
<rect width="76" height="59" fill="white"/>
</clipPath>
</defs>
</svg>
