<svg width="40" height="40" viewBox="0 0 40 40" fill="none" xmlns="http://www.w3.org/2000/svg">
<path d="M12.8 17.6C12.8 16.2744 11.7256 15.2 10.4 15.2C9.0744 15.2 8 16.2744 8 17.6V25.6C8 32.2272 13.3728 37.6 20 37.6C26.6272 37.6 32 32.2272 32 25.6V19.2C32 17.8744 30.9256 16.8 29.6 16.8C28.2744 16.8 27.2 17.8744 27.2 19.2V17.6C27.2 16.2744 26.1256 15.2 24.8 15.2C23.4744 15.2 22.4 16.2744 22.4 17.6V16C22.4 14.6744 21.3256 13.6 20 13.6C18.6744 13.6 17.6 14.6744 17.6 16V4.80002C17.6 3.47442 16.5256 2.40002 15.2 2.40002C13.8744 2.40002 12.8 3.47442 12.8 4.80002V23.2V17.6Z" stroke="#191919" stroke-width="2" stroke-miterlimit="10" stroke-linecap="round" stroke-linejoin="round"/>
<path d="M32.8 6.40002H21.6" stroke="#191919" stroke-width="2" stroke-miterlimit="10" stroke-linecap="round" stroke-linejoin="round"/>
<path d="M30.4 4L32.8 6.4L30.4 8.8" stroke="#191919" stroke-width="2" stroke-miterlimit="10" stroke-linecap="round" stroke-linejoin="round"/>
</svg>
