<?xml version="1.0" encoding="utf-8"?>
<!-- Generator: Adobe Illustrator 25.0.0, SVG Export Plug-In . SVG Version: 6.00 Build 0)  -->
<svg version="1.1" id="Layer_1" xmlns="http://www.w3.org/2000/svg" xmlns:xlink="http://www.w3.org/1999/xlink" x="0px" y="0px"
	 viewBox="0 0 113 25" style="enable-background:new 0 0 113 25;" xml:space="preserve">
<style type="text/css">
	.st0{fill-rule:evenodd;clip-rule:evenodd;fill:#191919;}
</style>
<desc>Created with Sketch.</desc>
<g id="nov2019_the-final-count-down">
	<g id="Desktop-HD-Home-opt-A.2" transform="translate(-85.000000, -2078.000000)">
		<g id="Group-12-Copy-5" transform="translate(85.000000, 2078.000000)">
			<path id="Fill-1" class="st0" d="M0,12.2c-0.1,7.3,4.9,12.4,11.4,12.5c6.7,0.1,10.5-4.1,11-10.2l-3.1-0.2c-0.3,4.4-3,7.7-7.9,7.6
				c-4.7,0-8.1-3.8-8.1-9.6c0-5.9,3.5-9.5,8.2-9.5c4.8,0,7.5,3.3,7.7,7.8l3.1-0.1C22,4.3,18.2,0.1,11.5,0C5.1-0.1,0.1,4.9,0,12.2
				L0,12.2z M27.7,24.3l0.1-10.9l13.4,0.1l-0.1,10.9l3.2,0l0.2-23.8l-3.2,0l-0.1,10.2l-13.4-0.1l0.1-10.2l-3.2,0l-0.2,23.8
				L27.7,24.3z M55.2,0.7l-9.7,23.8l3.1,0l2.8-7l10.6,0.1l2.8,7l3.4,0L58.8,0.7L55.2,0.7z M56.8,4.4l0.1,0L61.1,15l-8.6-0.1
				L56.8,4.4z M73.1,22L87.3,3.4l0-2.4l-18-0.1l0,2.7l13.9,0.1L69,22.4l0,2.3l18.5,0.1l0-2.7L73.1,22z M92.5,22.1l14.2-18.6l0-2.4
				L88.8,1l0,2.7l13.9,0.1L88.5,22.5l0,2.3L107,25l0-2.7L92.5,22.1z"/>
			<path id="Fill-3" class="st0" d="M111.7,3.8c-0.1-0.1-0.1-0.2-0.1-0.6c0-0.3-0.2-0.5-0.5-0.6c0.3,0,0.6-0.3,0.6-0.7
				c0-0.5-0.3-0.8-1-0.8l-1.2,0l0,2.6l0.6,0l0-0.9l0.6,0c0.3,0,0.4,0.1,0.4,0.4c0,0.3,0.1,0.4,0.1,0.5L111.7,3.8L111.7,3.8z
				 M110,2.4l0-0.8l0.6,0c0.4,0,0.5,0.1,0.5,0.4c0,0.3-0.2,0.4-0.5,0.4L110,2.4L110,2.4z M113,2.5c0-1.5-1.1-2.5-2.5-2.5
				c-1.4,0-2.5,1-2.5,2.5c0,1.4,1.1,2.5,2.5,2.5C111.9,5,113,4,113,2.5L113,2.5z M112.6,2.5c0,1.2-0.9,2.1-2.1,2.1
				c-1.1,0-2.1-0.9-2-2.1c0-1.2,0.9-2.1,2.1-2.1C111.7,0.4,112.6,1.3,112.6,2.5L112.6,2.5z"/>
		</g>
	</g>
</g>
</svg>
