<svg width="24" height="24" viewBox="0 0 24 24" fill="none" xmlns="http://www.w3.org/2000/svg">
<path d="M3.59056 21.0306H1.91399C1.40786 21.0306 1.02826 20.5556 1.02826 20.0074V12.4067C1.02826 11.822 1.43949 11.3835 1.91399 11.3835H3.55893C4.06506 11.3835 4.44466 11.8586 4.44466 12.4067V19.9709C4.47629 20.5556 4.06506 21.0306 3.59056 21.0306Z" stroke="black" stroke-width="1.5" stroke-miterlimit="10"/>
<path d="M4.47632 13.1711L6.72229 11.9287H13.5551C14.5357 11.9287 14.7572 13.5366 13.8082 13.902L9.98052 15.2906C9.72745 15.4002 9.66419 15.7656 9.88562 15.9483L11.5622 17.41C11.9734 17.7754 12.4796 17.885 12.9857 17.7389L19.5338 15.6925C20.6093 15.3636 21.1787 17.1177 20.1665 17.6658L12.8275 21.6488C12.4479 21.8681 12.0367 21.9046 11.6255 21.7585L4.47632 19.3102" stroke="black" stroke-width="1.5" stroke-miterlimit="10"/>
<path d="M3.22357 4.40381L4.52016 6.50331C5.06667 7.38824 6.03255 7.92697 7.07264 7.92697H19.1297C20.1688 7.92697 21.1338 7.38936 21.6806 6.50589L22.9818 4.40381" stroke="black" stroke-width="1.5" stroke-linecap="round"/>
<path d="M2.73737 19.0339V18.6693" stroke="black" stroke-width="1.5" stroke-linecap="round"/>
</svg>
