<svg width="37" height="44" viewBox="0 0 37 44" fill="none" xmlns="http://www.w3.org/2000/svg">
<path d="M11.0235 23.824C11.0235 25.734 8.71356 26.691 7.36356 25.34L6.10452 23.839C4.93652 22.671 3.04352 22.671 1.87552 23.839C0.801519 24.913 0.70353 26.623 1.64853 27.813L9.41654 38.607C12.1305 41.321 15.8805 43 20.0235 43C28.3075 43 35.0235 36.284 35.0235 28V14C35.0235 12.343 33.6805 11 32.0235 11C30.3665 11 29.0235 12.343 29.0235 14V22V8C29.0235 6.343 27.6805 5 26.0235 5C24.3665 5 23.0235 6.343 23.0235 8V20V17V4C23.0235 2.343 21.6805 1 20.0235 1C18.3665 1 17.0235 2.343 17.0235 4V17V20V6C17.0235 4.343 15.6805 3 14.0235 3C12.3665 3 11.0235 4.343 11.0235 6V19V23.824Z" fill="#FFAFC4" stroke="#191919" stroke-width="2" stroke-miterlimit="10" stroke-linecap="round" stroke-linejoin="round"/>
</svg>
