<svg width="36" height="36" viewBox="0 0 36 36" fill="none" xmlns="http://www.w3.org/2000/svg">
<path fill-rule="evenodd" clip-rule="evenodd" d="M19.5 3.25C19.5 3.11193 19.3881 3 19.25 3H16.75C16.6119 3 16.5 3.11193 16.5 3.25V16.5H3.25C3.11193 16.5 3 16.6119 3 16.75V19.25C3 19.3881 3.11193 19.5 3.25 19.5H16.5V32.75C16.5 32.8881 16.6119 33 16.75 33H19.25C19.3881 33 19.5 32.8881 19.5 32.75V19.5H32.75C32.8881 19.5 33 19.3881 33 19.25V16.75C33 16.6119 32.8881 16.5 32.75 16.5H19.5V3.25Z" fill="#191919"/>
</svg>
