<svg width="25" height="24" viewBox="0 0 25 24" fill="none" xmlns="http://www.w3.org/2000/svg">
<path d="M10.1615 21.0129H14.131" stroke="black" stroke-width="1.5" stroke-linecap="round"/>
<path d="M10.6577 23H13.6348" stroke="black" stroke-width="1.5" stroke-linecap="round"/>
<path d="M8.03766 14.3232L8.55867 13.7836L8.55338 13.7786L8.03766 14.3232ZM16.2546 14.3232L15.7389 13.7786L15.7337 13.7837L16.2546 14.3232ZM10.9855 18.2797C10.6412 18.2797 10.358 17.999 10.358 17.6615H8.858C8.858 18.8564 9.84204 19.7797 10.9855 19.7797V18.2797ZM10.358 17.6615V16.8954H8.858V17.6615H10.358ZM10.358 16.8954C10.358 16.0718 10.1804 15.4959 9.78902 14.9876C9.61237 14.7581 9.40587 14.5606 9.20736 14.3792C8.99706 14.187 8.79712 14.0139 8.55865 13.7837L7.51668 14.8627C7.77411 15.1113 8.0184 15.3247 8.19551 15.4865C8.38442 15.6592 8.50852 15.7832 8.60048 15.9026C8.74629 16.092 8.858 16.3234 8.858 16.8954H10.358ZM8.55338 13.7786C7.51701 12.7971 6.94183 11.4612 6.94183 10.0545H5.44183C5.44183 11.8767 6.18904 13.6054 7.52195 14.8677L8.55338 13.7786ZM6.94183 10.0545C6.94183 7.21777 9.27656 4.89392 12.1462 4.89392V3.39392C8.45892 3.39392 5.44183 6.37861 5.44183 10.0545H6.94183ZM13.3068 19.7797C14.4503 19.7797 15.4343 18.8564 15.4343 17.6615H13.9343C13.9343 17.999 13.6511 18.2797 13.3068 18.2797V19.7797ZM15.4343 17.6615V16.8954H13.9343V17.6615H15.4343ZM15.4343 16.8954C15.4343 16.3234 15.546 16.092 15.6918 15.9026C15.7838 15.7832 15.9079 15.6592 16.0968 15.4865C16.2739 15.3247 16.5182 15.1113 16.7756 14.8627L15.7337 13.7837C15.4952 14.0139 15.2952 14.187 15.0849 14.3792C14.8864 14.5606 14.6799 14.7581 14.5033 14.9876C14.1119 15.4959 13.9343 16.0718 13.9343 16.8954H15.4343ZM16.7704 14.8677C18.1033 13.6054 18.8505 11.8767 18.8505 10.0545H17.3505C17.3505 11.4612 16.7753 12.7971 15.7389 13.7786L16.7704 14.8677ZM18.8505 10.0545C18.8505 6.37861 15.8334 3.39392 12.1462 3.39392V4.89392C15.0157 4.89392 17.3505 7.21777 17.3505 10.0545H18.8505ZM10.9855 19.7797H13.3068V18.2797H10.9855V19.7797Z" fill="black"/>
<path d="M17.9241 15.4576L18.7621 16.1909" stroke="black" stroke-width="1.5" stroke-linecap="round"/>
<path d="M19.8096 11.3705L20.9619 11.58" stroke="black" stroke-width="1.5" stroke-linecap="round"/>
<path d="M19.2859 6.76264L20.3335 6.34363" stroke="black" stroke-width="1.5" stroke-linecap="round"/>
<path d="M16.3528 3.40895L16.9813 2.46619" stroke="black" stroke-width="1.5" stroke-linecap="round"/>
<path d="M12.058 2.15227V1" stroke="black" stroke-width="1.5" stroke-linecap="round"/>
<path d="M7.65854 3.40895L7.03003 2.46619" stroke="black" stroke-width="1.5" stroke-linecap="round"/>
<path d="M4.83017 6.76264L3.78265 6.34363" stroke="black" stroke-width="1.5" stroke-linecap="round"/>
<path d="M4.20165 11.3705L3.04938 11.58" stroke="black" stroke-width="1.5" stroke-linecap="round"/>
<path d="M6.19191 15.4576L5.24915 16.1909" stroke="black" stroke-width="1.5" stroke-linecap="round"/>
</svg>
