<svg width="24" height="24" viewBox="0 0 24 24" fill="none" xmlns="http://www.w3.org/2000/svg">
<path d="M12.0098 0C5.3883 0 0.0200043 5.36842 0.0200043 11.9901C0.0200043 17.0724 3.17782 21.4145 7.63824 23.1612C7.52969 22.2138 7.44088 20.7533 7.67771 19.7171C7.89481 18.7796 9.07899 13.7566 9.07899 13.7566C9.07899 13.7566 8.72374 13.0362 8.72374 11.9803C8.72374 10.3125 9.69082 9.06908 10.8947 9.06908C11.921 9.06908 12.4144 9.83882 12.4144 10.7566C12.4144 11.7829 11.7631 13.3224 11.4178 14.7533C11.1316 15.9474 12.0197 16.9243 13.194 16.9243C15.3256 16.9243 16.9637 14.6743 16.9637 11.4375C16.9637 8.56579 14.9012 6.5625 11.9506 6.5625C8.53625 6.5625 6.533 9.11842 6.533 11.7632C6.533 12.7895 6.92773 13.8947 7.42114 14.4967C7.51982 14.6151 7.52969 14.7237 7.50009 14.8421C7.41127 15.2171 7.20404 16.0362 7.16457 16.2039C7.11523 16.4211 6.98694 16.4704 6.75997 16.3618C5.26001 15.6612 4.32253 13.4803 4.32253 11.7138C4.32253 7.93421 7.06589 4.46053 12.2467 4.46053C16.4012 4.46053 19.638 7.42105 19.638 11.3882C19.638 15.523 17.0327 18.8487 13.421 18.8487C12.2072 18.8487 11.0625 18.2171 10.6776 17.4671C10.6776 17.4671 10.0757 19.7566 9.92766 20.3191C9.66122 21.3651 8.93097 22.6678 8.43756 23.4671C9.56254 23.8125 10.7467 24 11.9901 24C18.6117 24 23.9799 18.6316 23.9799 12.0099C23.9997 5.36842 18.6314 0 12.0098 0Z" fill="#FFAFC4"/>
</svg>
