<svg width="17" height="16" viewBox="0 0 17 16" fill="none" xmlns="http://www.w3.org/2000/svg">
<path d="M8.00586 0C3.59845 0 0.00585938 3.59259 0.00585938 8C0.00585938 12.4074 3.59845 16 8.00586 16C12.4133 16 16.0059 12.4074 16.0059 8C16.0059 3.59259 12.4133 0 8.00586 0ZM8.00586 1.77778C11.4527 1.77778 14.2281 4.55324 14.2281 8C14.2281 11.4468 11.4526 14.2222 8.00586 14.2222C4.5591 14.2222 1.78364 11.4468 1.78364 8C1.78364 4.55324 4.5591 1.77778 8.00586 1.77778ZM8.00586 3.25926C7.51513 3.25926 7.11697 3.65742 7.11697 4.14815V8C7.11697 8.24537 7.21535 8.46874 7.37623 8.62963L9.68177 10.9352C10.029 11.2824 10.5938 11.2824 10.941 10.9352C11.2883 10.5879 11.2883 10.0231 10.941 9.67591L8.89475 7.62963V4.14815C8.89475 3.65742 8.49659 3.25926 8.00586 3.25926Z" fill="black"/>
</svg>
