<svg width="20" height="18" viewBox="0 0 20 18" fill="none" xmlns="http://www.w3.org/2000/svg">
<path d="M20 2.81071C19.2483 3.1368 18.4534 3.35237 17.64 3.45071C18.4982 2.93803 19.1413 2.13149 19.45 1.18071C18.6436 1.66077 17.7608 1.999 16.84 2.18071C16.2245 1.51328 15.405 1.069 14.5098 0.917559C13.6147 0.766114 12.6945 0.916066 11.8938 1.3439C11.093 1.77173 10.4569 2.45324 10.0852 3.28154C9.71355 4.10985 9.62729 5.0381 9.84 5.92071C8.20943 5.83823 6.61444 5.41366 5.15865 4.67457C3.70287 3.93548 2.41885 2.8984 1.39 1.63071C1.02914 2.26088 0.839519 2.97453 0.84 3.70071C0.83872 4.37509 1.00422 5.03932 1.32176 5.63427C1.63929 6.22922 2.09902 6.73642 2.66 7.11071C2.00798 7.09297 1.36989 6.91801 0.8 6.60071V6.65071C0.804887 7.5956 1.13599 8.5098 1.73731 9.23867C2.33864 9.96755 3.17326 10.4663 4.1 10.6507C3.74326 10.7593 3.37287 10.8165 3 10.8207C2.74189 10.8177 2.48442 10.7943 2.23 10.7507C2.49391 11.5635 3.00462 12.2739 3.69107 12.7829C4.37753 13.2919 5.20558 13.5743 6.06 13.5907C4.6172 14.726 2.83588 15.3456 1 15.3507C0.665735 15.3518 0.331736 15.3318 0 15.2907C1.87443 16.501 4.05881 17.1434 6.29 17.1407C7.82969 17.1567 9.35714 16.8657 10.7831 16.2848C12.2091 15.7039 13.505 14.8446 14.5952 13.7572C15.6854 12.6698 16.548 11.3761 17.1326 9.95161C17.7172 8.52713 18.012 7.00043 18 5.46071C18 5.29071 18 5.11071 18 4.93071C18.7847 4.34552 19.4615 3.62813 20 2.81071Z" fill="#FFAFC4"/>
</svg>
