<svg width="112" height="112" viewBox="0 0 112 112" fill="none" xmlns="http://www.w3.org/2000/svg">
<path d="M59.2977 26.9573H51.4254C50.9998 26.9573 50.7871 26.5317 50.7871 26.319C50.7871 25.8934 51.2126 25.6807 51.4254 25.6807H59.2977C59.7232 25.6807 59.936 26.1062 59.936 26.319C59.936 26.5317 59.7232 26.9573 59.2977 26.9573Z" fill="black"/>
<path d="M60.9994 79.084H39.2975C38.872 79.084 38.6592 78.6585 38.6592 78.4457V32.0631C38.6592 31.6376 39.0847 31.4248 39.2975 31.4248H72.0632C72.4887 31.4248 72.7015 31.8503 72.7015 32.0631V51.4247C72.7015 51.8502 72.276 52.0629 72.0632 52.0629C71.6377 52.0629 71.4249 51.6374 71.4249 51.4247V32.7014H40.1486V77.3819H60.9994C61.425 77.3819 61.6377 77.8074 61.6377 78.0202C61.6377 78.233 61.425 79.084 60.9994 79.084Z" fill="black"/>
<path d="M73.5529 90.9995H38.0213C35.0426 90.9995 32.7021 88.6591 32.7021 85.6804V26.3191C32.7021 23.3404 35.0426 21 38.0213 21H73.5529C76.5316 21 78.872 23.3404 78.872 26.3191V85.4676C78.872 88.6591 76.5316 90.9995 73.5529 90.9995ZM38.234 22.4893C36.1064 22.4893 34.4042 24.1915 34.4042 26.3191V85.4676C34.4042 87.5953 36.1064 89.2974 38.234 89.2974H73.7657C75.8933 89.2974 77.5954 87.5953 77.5954 85.4676V26.3191C77.5954 24.1915 75.8933 22.4893 73.7657 22.4893H38.234Z" fill="black"/>
<path d="M72.2761 79.084H39.5104C39.0848 79.084 38.8721 78.6585 38.8721 78.4457V32.0631C38.8721 31.6376 39.2976 31.4248 39.5104 31.4248H72.2761C72.7016 31.4248 72.9144 31.8503 72.9144 32.0631V78.233C72.9144 78.6585 72.7016 79.084 72.2761 79.084ZM40.1487 77.5947H71.425V32.9141H40.1487V77.5947Z" fill="black"/>
<path d="M27.5957 41.8502H21.6383C21.2127 41.8502 21 41.4247 21 41.2119V35.2545C21 34.829 21.4255 34.6162 21.6383 34.6162H27.5957C28.0212 34.6162 28.234 35.0417 28.234 35.2545V41.2119C28.234 41.4247 28.0212 41.8502 27.5957 41.8502ZM22.2766 40.3608H26.7446V35.8928H22.2766V40.3608Z" fill="black"/>
<path d="M43.9792 38.8723H27.5963C27.1708 38.8723 26.958 38.4468 26.958 38.234C26.958 37.8085 27.3835 37.5957 27.5963 37.5957H43.9792C44.4047 37.5957 44.6175 38.0212 44.6175 38.234C44.6175 38.4468 44.4047 38.8723 43.9792 38.8723Z" fill="black"/>
<path d="M27.5957 76.1066H21.6383C21.2127 76.1066 21 75.681 21 75.4683V69.5109C21 69.0853 21.4255 68.8726 21.6383 68.8726H27.5957C28.0212 68.8726 28.234 69.2981 28.234 69.5109V75.2555C28.234 75.681 28.0212 76.1066 27.5957 76.1066ZM22.2766 74.6172H26.7446V70.1491H22.2766V74.6172Z" fill="black"/>
<path d="M43.9792 73.127H27.5963C27.1708 73.127 26.958 72.7015 26.958 72.4887C26.958 72.0632 27.3835 71.6377 27.5963 71.6377H43.9792C44.4047 71.6377 44.6175 72.0632 44.6175 72.4887C44.6175 72.7015 44.4047 73.127 43.9792 73.127Z" fill="black"/>
<path d="M90.1484 76.1066H84.191C83.7655 76.1066 83.5527 75.681 83.5527 75.4683V69.5109C83.5527 69.0853 83.9783 68.8726 84.191 68.8726H90.1484C90.574 68.8726 90.9995 69.2981 90.9995 69.5109V75.2555C90.7867 75.681 90.574 76.1066 90.1484 76.1066ZM84.8293 74.6172H89.2974V70.1491H84.8293V74.6172Z" fill="black"/>
<path d="M84.1911 73.127H67.8082C67.3827 73.127 67.1699 72.7015 67.1699 72.4887C67.1699 72.0632 67.5955 71.6377 67.8082 71.6377H84.1911C84.6166 71.6377 84.8294 72.0632 84.8294 72.4887C84.8294 72.7015 84.6166 73.127 84.1911 73.127Z" fill="black"/>
<path d="M90.1484 41.8502H84.191C83.7655 41.8502 83.5527 41.4247 83.5527 41.2119V35.2545C83.5527 34.829 83.9783 34.6162 84.191 34.6162H90.1484C90.574 34.6162 90.9995 35.0417 90.9995 35.2545V41.2119C90.7867 41.4247 90.574 41.8502 90.1484 41.8502ZM84.8293 40.3608H89.2974V35.8928H84.8293V40.3608Z" fill="black"/>
<path d="M84.1911 38.8723H67.8082C67.3827 38.8723 67.1699 38.4468 67.1699 38.234C67.1699 37.8085 67.5955 37.5957 67.8082 37.5957H84.1911C84.6166 37.5957 84.8294 38.0212 84.8294 38.234C84.8294 38.4468 84.6166 38.8723 84.1911 38.8723Z" fill="black"/>
<path d="M55.892 64.1907C48.8707 64.1907 43.3389 58.446 43.3389 51.6376C43.3389 44.6164 49.0835 39.0845 55.892 39.0845C62.9132 39.0845 68.445 44.8291 68.445 51.6376C68.445 58.446 62.9132 64.1907 55.892 64.1907ZM55.892 40.3611C49.7218 40.3611 44.8282 45.4674 44.8282 51.4248C44.8282 57.595 49.9346 62.4886 55.892 62.4886C62.0621 62.4886 66.9557 57.3822 66.9557 51.4248C66.9557 45.2546 62.0621 40.3611 55.892 40.3611Z" fill="black"/>
<path d="M61.0001 53.7655C60.7874 53.7655 60.5746 53.7656 60.5746 53.5528C60.3618 53.34 60.3618 52.7017 60.5746 52.489L62.2767 50.7868L60.5746 49.0847C60.3618 48.872 60.3618 48.2337 60.5746 48.0209C60.7874 47.8081 61.4257 47.8081 61.6384 48.0209L63.7661 50.1485C63.9788 50.3613 63.9788 50.9996 63.7661 51.2124L61.6384 53.34C61.4257 53.7655 61.2129 53.7655 61.0001 53.7655Z" fill="black"/>
<path d="M50.5741 53.7662C50.3613 53.7662 50.1485 53.7662 50.1485 53.5534L48.0209 51.4257C47.8081 51.213 47.8081 50.5747 48.0209 50.3619L50.1485 48.2343C50.3613 48.0215 50.9996 48.0215 51.2124 48.2343C51.4251 48.447 51.4251 49.0853 51.2124 49.2981L49.5102 51.0002L51.2124 52.7023C51.4251 52.9151 51.4251 53.5534 51.2124 53.7662C50.9996 53.7662 50.7868 53.7662 50.5741 53.7662Z" fill="black"/>
<path d="M54.4027 56.7445C54.4027 56.7445 54.1899 56.7445 54.4027 56.7445C53.7644 56.5317 53.5516 56.1062 53.7644 55.8934L56.743 45.468C56.9558 45.0424 57.1686 44.8297 57.5941 45.0425C58.0197 45.2552 58.2324 45.468 58.0196 45.8935L55.041 56.319C55.041 56.5317 54.6154 56.7445 54.4027 56.7445Z" fill="black"/>
<path d="M60.361 71.6379C59.9354 71.6379 59.7227 71.2123 59.7227 70.9996V69.5102C59.7227 69.0847 60.1482 68.6592 60.361 68.6592C60.7865 68.6592 60.9992 69.0847 60.9992 69.5102V70.9996C60.9992 71.2123 60.7865 71.6379 60.361 71.6379Z" fill="black"/>
<path d="M55.8942 71.6379C55.4686 71.6379 55.2559 71.2123 55.2559 70.9996V69.5102C55.2559 69.0847 55.6814 68.6592 55.8942 68.6592C56.3197 68.6592 56.7452 69.0847 56.7452 69.5102V70.9996C56.5324 71.2123 56.3197 71.6379 55.8942 71.6379Z" fill="black"/>
<path d="M51.4254 71.6379C50.9998 71.6379 50.7871 71.2123 50.7871 70.9996V69.5102C50.7871 69.0847 51.2126 68.6592 51.4254 68.6592C51.6381 68.6592 52.0637 69.0847 52.0637 69.5102V70.9996C52.0637 71.2123 51.8509 71.6379 51.4254 71.6379Z" fill="black"/>
<path d="M55.8929 86.5324C57.4205 86.5324 58.6588 85.294 58.6588 83.7664C58.6588 82.2388 57.4205 81.0005 55.8929 81.0005C54.3653 81.0005 53.127 82.2388 53.127 83.7664C53.127 85.294 54.3653 86.5324 55.8929 86.5324Z" fill="black"/>
</svg>
