<svg width="112" height="112" viewBox="0 0 112 112" fill="none" xmlns="http://www.w3.org/2000/svg">
<path d="M81.8794 90.9997H29.6969C29.2727 90.9997 29.0605 90.5742 29.0605 90.1487C29.0605 89.7232 29.4848 89.5104 29.6969 89.5104H81.8794C85.9097 89.5104 89.0916 86.3189 89.0916 82.4891C88.8794 80.3614 87.3946 78.872 85.2733 78.872C83.3642 78.872 81.6672 80.5742 81.6672 82.7019C81.6672 83.1274 81.243 83.3402 80.8187 83.3402C80.3945 83.3402 80.1824 82.9146 80.1824 82.7019V37.3825L74.455 36.7442L80.8187 36.106C81.243 36.106 81.4551 36.5315 81.4551 36.7442V79.0848C82.3036 78.021 83.5763 77.5955 85.0612 77.5955C87.6067 77.5955 89.9401 79.7231 90.1522 82.2763V82.4891V82.7019C90.5764 87.3827 86.5461 90.9997 81.8794 90.9997ZM73.3944 37.3825H64.6973C64.2731 37.3825 64.061 36.957 64.061 36.7442C64.061 36.3187 64.4852 36.106 64.6973 36.106H73.3944C73.8187 36.106 74.0308 36.3187 74.0308 36.7442C74.0308 36.957 73.8187 37.3825 73.3944 37.3825Z" fill="black"/>
<path d="M89.9399 83.3399C89.5156 83.3399 89.3035 82.9144 89.3035 82.7016V36.9568C89.3035 34.8291 87.6065 32.9142 85.4853 32.9142C83.3641 32.9142 81.8792 34.6163 81.8792 36.9568V82.7016C81.8792 83.1271 81.4549 83.3399 81.2428 83.3399C80.8186 83.3399 80.6064 82.9144 80.6064 82.7016V36.9568C80.6064 33.978 82.9398 31.4248 85.6974 31.4248C88.6672 31.4248 91.0005 33.978 91.0005 36.9568V82.7016C90.5763 82.9144 90.3641 83.3399 89.9399 83.3399Z" fill="black"/>
<path d="M29.6971 90.9997C25.0304 90.9997 21 87.3827 21 82.7019V82.4891V82.2763C21.4242 79.5104 23.5455 77.5955 26.091 77.5955C27.5758 77.5955 28.8486 78.2338 29.6971 79.0848V36.7442C29.6971 36.3187 30.1213 36.106 30.5456 36.106H45.3942C45.8185 36.106 46.0306 36.5315 46.0306 36.7442C46.0306 37.1698 45.6064 37.3825 45.3942 37.3825H31.1819V82.7019C31.1819 83.1274 30.7577 83.3402 30.5456 83.3402C30.1213 83.3402 29.9092 83.1274 29.6971 82.7019C29.4849 80.5742 28.0001 78.872 26.091 78.872C24.1819 78.872 22.4849 80.5742 22.2727 82.4891C22.2727 86.3189 25.6667 89.5104 29.4849 89.5104C29.9092 89.5104 30.1213 89.9359 30.1213 90.1487C30.3334 90.787 30.1213 90.9997 29.6971 90.9997Z" fill="black"/>
<path d="M30.5444 83.3399C30.1201 83.3399 29.908 82.9144 29.908 82.7016V36.9568C29.908 34.6163 28.211 32.9142 26.3019 32.9142C24.1807 32.9142 22.4837 34.6163 22.4837 36.9568V82.7016C22.4837 83.1271 22.0594 83.3399 21.8473 83.3399C21.4231 83.3399 21.2109 82.9144 21.2109 82.7016V36.9568C21.2109 33.978 23.5443 31.4248 26.514 31.4248C29.4838 31.4248 31.605 33.7653 31.605 36.9568V82.7016C31.1808 82.9144 30.9686 83.3399 30.5444 83.3399Z" fill="black"/>
<path d="M70.6369 80.5756H60.2428C59.8186 80.5756 59.6064 80.1501 59.6064 79.9373V71.0011C59.6064 70.5756 60.0307 70.3628 60.2428 70.3628H70.6369C71.0611 70.3628 71.4854 70.7883 71.4854 71.0011V79.9373C71.2732 80.3628 71.0611 80.5756 70.6369 80.5756ZM60.8792 79.0862H69.7884V71.6394H60.8792V79.0862Z" fill="black"/>
<path d="M70.6369 85.0432H60.2428C59.8186 85.0432 59.6064 84.6177 59.6064 84.4049C59.6064 83.9794 60.0307 83.7666 60.2428 83.7666H70.6369C71.0611 83.7666 71.4854 84.1921 71.4854 84.4049C71.4854 84.6177 71.0611 85.0432 70.6369 85.0432Z" fill="black"/>
<path d="M60.2424 80.5756H49.8483C49.424 80.5756 49.2119 80.1501 49.2119 79.9373V71.0011C49.2119 70.5756 49.6362 70.3628 49.8483 70.3628H60.2424C60.6666 70.3628 60.8787 70.7883 60.8787 71.0011V79.9373C60.8787 80.3628 60.6666 80.5756 60.2424 80.5756ZM50.4847 79.0862H59.3939V71.6394H50.4847V79.0862Z" fill="black"/>
<path d="M60.2424 85.0432H49.8483C49.424 85.0432 49.2119 84.6177 49.2119 84.4049C49.2119 83.9794 49.6362 83.7666 49.8483 83.7666H60.2424C60.6666 83.7666 60.8787 84.1921 60.8787 84.4049C60.8787 84.6177 60.6666 85.0432 60.2424 85.0432Z" fill="black"/>
<path d="M49.8498 80.5756H39.4557C39.0315 80.5756 38.8193 80.1501 38.8193 79.9373V71.0011C38.8193 70.5756 39.2436 70.3628 39.4557 70.3628H49.8498C50.274 70.3628 50.4861 70.7883 50.4861 71.0011V79.9373C50.4861 80.3628 50.274 80.5756 49.8498 80.5756ZM40.0921 79.0862H49.0013V71.6394H40.0921V79.0862Z" fill="black"/>
<path d="M49.8498 85.0432H39.4557C39.0315 85.0432 38.8193 84.6177 38.8193 84.4049C38.8193 83.9794 39.2436 83.7666 39.4557 83.7666H49.8498C50.274 83.7666 50.4861 84.1921 50.4861 84.4049C50.4861 84.8304 50.274 85.0432 49.8498 85.0432Z" fill="black"/>
<path d="M44.758 56.7455H36.4852C36.061 56.7455 35.6367 56.32 35.6367 56.1072V47.171C35.6367 46.7455 36.061 46.5327 36.4852 46.5327H47.7278C47.9399 46.5327 48.152 46.7455 48.3641 46.7455C48.5763 46.9583 48.5763 47.171 48.3641 47.3838L45.3944 56.32C45.1823 56.5328 44.9702 56.7455 44.758 56.7455ZM37.1216 55.2562H44.1217L46.6672 47.8093H37.3337V55.2562H37.1216Z" fill="black"/>
<path d="M75.0906 56.7455H65.1207C64.6965 56.7455 64.4844 56.5328 64.4844 56.32L61.5146 47.3838C61.5146 47.171 61.5146 46.9583 61.5146 46.7455C61.7268 46.5327 61.9389 46.5327 62.151 46.5327H75.0906C75.5148 46.5327 75.7269 46.9583 75.7269 47.171V56.1072C75.7269 56.5327 75.5148 56.7455 75.0906 56.7455ZM65.545 55.2562H74.2421V47.8093H62.9995L65.545 55.2562Z" fill="black"/>
<path d="M60.6671 56.7455H49.2125C49.0003 56.7455 48.7882 56.5327 48.5761 56.5327C48.364 56.32 48.364 56.1072 48.5761 55.8944L51.7579 46.9582C51.7579 46.7455 52.1822 46.5327 52.3943 46.5327H57.6974C57.9095 46.5327 58.3338 46.7455 58.3338 46.9582L61.5156 55.8944C61.5156 56.1072 61.5156 56.32 61.5156 56.5327C61.0914 56.7455 60.8793 56.7455 60.6671 56.7455ZM50.2731 55.2562H59.6065L57.061 47.8093H52.8186L50.2731 55.2562Z" fill="black"/>
<path d="M57.274 27.8085C57.0619 27.8085 57.0619 27.8085 56.8498 27.8085C56.2134 27.383 55.577 27.383 54.9406 27.383C54.3043 27.383 53.6679 27.5958 53.0315 27.8085C52.8194 28.0213 52.6073 28.0213 52.183 27.8085C51.9709 27.5958 51.7588 27.383 51.7588 27.1702V24.1915C51.7588 22.4894 53.2437 21 54.9406 21C56.6376 21 58.1225 22.4894 58.1225 24.1915V27.1702C58.1225 27.383 57.9104 27.5958 57.6983 27.8085C57.4861 27.8085 57.274 27.8085 57.274 27.8085ZM54.9406 22.4894C54.0922 22.4894 53.2437 23.1277 53.2437 24.1915V26.1064C54.3043 25.6809 55.3649 25.6809 56.4255 26.1064V24.1915C56.4255 23.3404 55.7891 22.4894 54.9406 22.4894Z" fill="black"/>
<path d="M57.9117 35.4676H51.7601C51.548 35.4676 51.3359 35.4676 51.3359 35.2548C50.0631 34.191 49.4268 32.7016 49.4268 31.2122C49.4268 29.2973 50.4874 27.3824 52.1844 26.5314C53.0329 26.1058 53.8814 25.8931 54.942 25.8931C55.7905 25.8931 56.8511 26.1058 57.6996 26.5314C59.3966 27.5952 60.4572 29.2973 60.4572 31.2122C60.4572 32.7016 59.8208 34.191 58.5481 35.2548C58.336 35.4676 58.1238 35.4676 57.9117 35.4676ZM51.9722 33.9782H57.4875C58.1238 33.3399 58.5481 32.2761 58.5481 31.2122C58.5481 29.7229 57.6996 28.4463 56.639 27.808C56.0026 27.3824 55.3662 27.3824 54.7299 27.3824C54.0935 27.3824 53.4571 27.5952 52.8207 27.808C51.548 28.4463 50.9116 29.7229 50.9116 31.2122C50.9116 32.2761 51.3359 33.3399 51.9722 33.9782Z" fill="black"/>
<path d="M58.3337 40.3621H51.3336C50.9094 40.3621 50.6973 39.9366 50.6973 39.7238V34.8302C50.6973 34.4047 51.1215 34.1919 51.3336 34.1919H58.3337C58.758 34.1919 58.9701 34.6174 58.9701 34.8302V39.7238C59.1822 40.1494 58.758 40.3621 58.3337 40.3621ZM52.1821 38.8728H57.6973V35.4685H52.1821V38.8728Z" fill="black"/>
<path d="M45.3945 67.1711C45.1824 67.1711 44.7582 66.9584 44.7582 66.7456L42.4248 60.7881C42.4248 60.5754 42.4248 60.3626 42.4248 60.3626L49.4249 39.5115C49.4249 39.2987 49.8491 39.0859 50.0613 39.0859H54.728C54.9401 39.0859 55.1522 39.2987 55.3644 39.2987C55.5765 39.5115 55.5765 39.7242 55.3644 39.937L46.243 66.7456C46.0309 66.9584 45.8188 67.1711 45.3945 67.1711C45.3945 67.1711 45.6067 67.1711 45.3945 67.1711ZM43.9097 60.5754L45.3945 64.4052L53.6674 40.5753H50.4855L43.9097 60.5754Z" fill="black"/>
<path d="M64.2735 67.1711C63.8493 67.1711 63.6372 66.9584 63.6372 66.7456L54.3037 39.937C54.3037 39.7242 54.3037 39.5115 54.3037 39.2987C54.5158 39.086 54.728 39.0859 54.9401 39.0859H59.6068C59.8189 39.0859 60.2432 39.2987 60.2432 39.5115L67.2433 60.3626C67.2433 60.5754 67.2433 60.7881 67.2433 60.7881L64.9099 66.7456C64.9099 66.9584 64.4856 67.1711 64.2735 67.1711ZM56.0007 40.3626L64.2735 64.1924L65.7584 60.3626L58.9704 40.1498L56.0007 40.3626Z" fill="black"/>
<path d="M64.2733 71.6391C63.8491 71.6391 63.4248 71.2136 63.4248 71.0008V66.5327C63.4248 66.1072 63.8491 65.6816 64.2733 65.6816C64.6975 65.6816 64.9097 66.1072 64.9097 66.5327V71.0008C64.9097 71.4263 64.6975 71.6391 64.2733 71.6391Z" fill="black"/>
<path d="M45.3942 71.6391C44.9699 71.6391 44.7578 71.2136 44.7578 71.0008V66.5327C44.7578 66.1072 45.1821 65.6816 45.3942 65.6816C45.8184 65.6816 46.0306 66.1072 46.0306 66.5327V71.0008C46.2427 71.4263 45.8184 71.6391 45.3942 71.6391Z" fill="black"/>
<path d="M83.9997 25.4674H66.1813C65.757 25.4674 65.5449 25.0419 65.5449 24.8291C65.5449 24.4036 65.9692 23.978 66.1813 23.978H83.9997C84.4239 23.978 84.6361 24.4036 84.6361 24.8291C84.6361 25.2546 84.4239 25.4674 83.9997 25.4674Z" fill="black"/>
<path d="M75.0905 29.9358H66.1813C65.757 29.9358 65.5449 29.5102 65.5449 29.2975C65.5449 28.8719 65.9692 28.6592 66.1813 28.6592H75.0905C75.5147 28.6592 75.7269 29.0847 75.7269 29.2975C75.7269 29.723 75.5147 29.9358 75.0905 29.9358Z" fill="black"/>
<path d="M43.9079 25.4674H26.0895C25.6652 25.4674 25.4531 25.0419 25.4531 24.8291C25.4531 24.4036 25.8774 23.978 26.0895 23.978H43.9079C44.3321 23.978 44.5443 24.4036 44.5443 24.8291C44.5443 25.2546 44.3321 25.4674 43.9079 25.4674Z" fill="black"/>
<path d="M43.9089 29.9358H34.9997C34.5754 29.9358 34.3633 29.5102 34.3633 29.2975C34.3633 28.8719 34.7875 28.6592 34.9997 28.6592H43.9089C44.3331 28.6592 44.5452 29.0847 44.5452 29.2975C44.5452 29.723 44.3331 29.9358 43.9089 29.9358Z" fill="black"/>
<path d="M54.9407 30.1494C55.5771 30.1494 56.2135 30.5749 56.2135 31.426C56.2135 32.0643 55.7892 32.7026 54.9407 32.7026C54.3043 32.7026 53.668 32.2771 53.668 31.426C53.668 30.5749 54.3043 30.1494 54.9407 30.1494Z" fill="black"/>
</svg>
