<svg width="112" height="112" viewBox="0 0 112 112" fill="none" xmlns="http://www.w3.org/2000/svg">
<path d="M61.8149 80.6368H50.3951C49.9721 80.6368 49.7606 80.4253 49.5492 80.0024C49.3377 76.1958 47.8574 72.6007 45.5311 69.8515C43.4163 67.3137 42.1475 63.9301 42.1475 60.5465C42.1475 56.7399 43.6278 53.1448 46.1655 50.3956C48.9148 47.6464 52.2984 46.166 56.105 46.166H56.3165C60.1231 46.166 63.5067 47.6464 66.0444 50.3956C68.5821 53.1448 70.0625 56.7399 70.0625 60.5465C70.0625 63.9301 68.7936 67.3137 66.6788 70.063C64.3526 72.8122 62.8723 76.4073 62.6608 80.2139C62.6608 80.4253 62.2378 80.6368 61.8149 80.6368ZM51.0295 79.1565H61.3919C61.8149 75.3499 63.5067 71.7548 65.8329 69.0056C67.7362 66.6793 68.7936 63.7186 68.7936 60.5465C68.7936 53.5677 63.2952 47.6464 56.5279 47.6464C53.1443 47.6464 50.1836 48.9152 47.6459 51.4529C45.3196 53.9907 44.0508 57.1628 44.0508 60.5465C44.0508 63.7186 45.1082 66.6793 47.0114 69.0056C48.9147 71.5433 50.6066 75.3499 51.0295 79.1565Z" fill="black"/>
<path d="M90.1531 83.1743H64.1414C63.9299 83.1743 63.7184 82.9629 63.507 82.9629C63.2955 82.7514 63.2955 82.5399 63.2955 82.3284C63.2955 82.117 63.2955 82.117 63.2955 81.9055C63.2955 81.271 62.661 80.6366 62.0266 80.6366H49.338C48.7035 80.6366 48.0691 81.271 48.0691 81.9055C48.0691 82.117 48.0691 82.117 48.0691 82.3284V82.5399C48.0691 82.9629 47.6461 83.1743 47.4347 83.1743H21.6344C21.2115 83.1743 21 82.7514 21 82.5399V21.8459C21 21.423 21.423 21 21.6344 21H89.7301C90.1531 21 90.5761 21.423 90.5761 21.8459V82.5399C90.999 82.9629 90.5761 83.1743 90.1531 83.1743ZM64.9873 81.694H89.3072V22.4803H22.6918V81.694H47.0117C47.0117 80.2136 48.2806 79.1563 49.7609 79.1563H62.4496C63.7184 79.1563 64.9873 80.2136 64.9873 81.694Z" fill="black"/>
<path d="M90.154 34.3231H22.0582C21.6353 34.3231 21.4238 33.9001 21.4238 33.6886C21.4238 33.2657 21.8468 33.0542 22.0582 33.0542H90.154C90.5769 33.0542 90.9999 33.4772 90.9999 33.6886C90.9999 34.1116 90.5769 34.3231 90.154 34.3231Z" fill="black"/>
<path d="M42.7819 34.3231C42.3589 34.3231 42.1475 33.9001 42.1475 33.6886V21.8459C42.1475 21.423 42.5704 21 42.7819 21C43.2049 21 43.4163 21.423 43.4163 21.8459V33.6886C43.6278 34.1116 43.2049 34.3231 42.7819 34.3231Z" fill="black"/>
<path d="M90.1542 28.4012H59.067C58.6441 28.4012 58.4326 27.9782 58.4326 27.7668C58.4326 27.3438 58.8555 27.1323 59.067 27.1323H90.1542C90.5772 27.1323 91.0001 27.5553 91.0001 27.7668C91.0001 28.1897 90.5772 28.4012 90.1542 28.4012Z" fill="black"/>
<path d="M90.153 40.2449H33.9001C33.4771 40.2449 33.2656 39.822 33.2656 39.6105C33.2656 39.1876 33.6886 38.9761 33.9001 38.9761H90.153C90.576 38.9761 90.9989 39.399 90.9989 39.6105C90.9989 40.0335 90.576 40.2449 90.153 40.2449Z" fill="black"/>
<path d="M29.4606 40.2449C29.2491 40.2449 29.0376 40.2449 29.0376 40.0335C28.8262 39.822 28.8262 39.6105 28.8262 39.6105C28.8262 39.399 28.8262 39.1876 29.0376 39.1876C29.2491 38.9761 29.4606 38.9761 29.4606 38.9761C29.6721 38.9761 29.8836 38.9761 29.8836 39.1876C30.095 39.399 30.095 39.6105 30.095 39.6105C30.095 39.822 30.095 40.0335 29.8836 40.0335C29.8836 40.2449 29.6721 40.2449 29.4606 40.2449Z" fill="black"/>
<path d="M54.6247 28.4012C54.4132 28.4012 54.2017 28.4012 54.2017 28.1897C53.9902 27.9782 53.9902 27.7668 53.9902 27.7668C53.9902 27.5553 53.9902 27.3438 54.2017 27.3438C54.4132 27.1323 54.6247 27.1323 54.6247 27.1323C54.8362 27.1323 55.0476 27.1323 55.0476 27.3438C55.2591 27.5553 55.2591 27.7668 55.2591 27.7668C55.2591 27.9782 55.2591 28.1897 55.0476 28.1897C55.0476 28.4012 54.8362 28.4012 54.6247 28.4012Z" fill="black"/>
<path d="M57.7961 90.576H54.4124C52.0862 90.576 49.9714 88.4613 49.9714 86.135V84.6547H49.76C48.2796 84.6547 47.0107 83.3858 47.0107 81.9055C47.0107 80.4251 48.2796 79.1562 49.76 79.1562H62.4486C63.9289 79.1562 65.1978 80.4251 65.1978 81.9055C65.1978 83.3858 63.9289 84.6547 62.4486 84.6547H62.2371V86.135C62.2371 88.6727 60.1223 90.576 57.7961 90.576ZM49.76 80.6366C49.1255 80.6366 48.4911 81.271 48.4911 81.9055C48.4911 82.5399 49.1255 83.1743 49.76 83.1743H50.8173C51.2403 83.1743 51.4518 83.5973 51.4518 83.8087V85.9235C51.4518 87.6153 52.7206 88.8842 54.4124 88.8842H57.7961C59.4879 88.8842 60.7568 87.6153 60.7568 85.9235V83.8087C60.7568 83.3858 61.1797 83.1743 61.3912 83.1743H62.4486C63.083 83.1743 63.7175 82.5399 63.7175 81.9055C63.7175 81.271 63.083 80.6366 62.4486 80.6366H49.76Z" fill="black"/>
<path d="M62.0266 84.6551H57.5856C57.1627 84.6551 56.9512 84.2321 56.9512 84.0207C56.9512 83.5977 57.3741 83.3862 57.5856 83.3862H62.0266C62.4496 83.3862 62.6611 83.8092 62.6611 84.0207C62.8726 84.4436 62.4496 84.6551 62.0266 84.6551Z" fill="black"/>
<path d="M56.1051 80.2141C55.6822 80.2141 55.4707 79.7912 55.4707 79.5797V66.2566C55.4707 63.2959 57.797 61.1812 60.5462 61.1812C60.9691 61.1812 61.1806 61.6041 61.1806 61.8156C61.1806 62.2385 60.7577 62.45 60.5462 62.45C58.4314 62.45 56.951 64.1418 56.951 66.0451V79.3682C56.951 80.0026 56.5281 80.2141 56.1051 80.2141Z" fill="black"/>
<path d="M56.1052 66.891C55.6822 66.891 55.4708 66.468 55.4708 66.2566C55.4708 64.1418 53.7789 62.6614 51.8756 62.6614C51.4527 62.6614 51.2412 62.2385 51.2412 62.027C51.2412 61.6041 51.6642 61.3926 51.8756 61.3926C54.8363 61.3926 56.9511 63.7188 56.9511 66.468C56.9511 66.6795 56.5282 66.891 56.1052 66.891Z" fill="black"/>
<path d="M59.0675 68.3709H53.1462C52.7232 68.3709 52.5117 67.948 52.5117 67.7365C52.5117 67.3135 52.9347 67.1021 53.1462 67.1021H59.0675C59.4905 67.1021 59.9134 67.525 59.9134 67.7365C59.9134 68.1594 59.4905 68.3709 59.0675 68.3709Z" fill="black"/>
<path d="M90.1525 75.7723H72.3883C71.9654 75.7723 71.7539 75.3493 71.7539 75.1378C71.7539 74.7149 72.1769 74.5034 72.3883 74.5034H90.1525C90.5754 74.5034 90.9984 74.9264 90.9984 75.1378C90.9984 75.5608 90.5754 75.7723 90.1525 75.7723Z" fill="black"/>
<path d="M41.3027 75.7723H22.0582C21.6353 75.7723 21.4238 75.3493 21.4238 75.1378C21.4238 74.7149 21.8468 74.5034 22.0582 74.5034H41.3027C41.7256 74.5034 41.9371 74.9264 41.9371 75.1378C42.1486 75.5608 41.7256 75.7723 41.3027 75.7723Z" fill="black"/>
<path d="M81.0595 67.9484C80.848 67.9484 80.848 67.9484 80.6365 67.737C80.2136 67.5255 80.2136 67.1025 80.425 66.6796C81.6939 64.5648 82.3283 62.2385 82.3283 59.9123C82.3283 57.586 81.6939 55.2598 80.425 53.145C80.2136 52.7221 80.2136 52.2991 80.6365 52.0876C81.0595 51.8762 81.4824 51.8762 81.6939 52.2991C83.1743 54.6254 84.0201 57.1631 84.0201 59.9123C84.0201 62.6615 83.1743 65.1992 81.6939 67.5255C81.4824 67.9484 81.271 67.9484 81.0595 67.9484Z" fill="black"/>
<path d="M76.83 64.9874C76.6185 64.9874 76.6185 64.9874 76.407 64.9874C75.9841 64.776 75.9841 64.353 76.1955 63.93C76.83 62.6612 77.2529 61.3923 77.2529 60.1234C77.2529 58.8546 76.83 57.5857 76.1955 56.3169C75.9841 55.8939 76.1956 55.4709 76.407 55.2595C76.83 55.048 77.2529 55.2595 77.4644 55.4709C78.3103 56.9513 78.7333 58.4316 78.7333 60.1234C78.7333 61.8153 78.3103 63.2956 77.4644 64.7759C77.4644 64.9874 77.0415 64.9874 76.83 64.9874Z" fill="black"/>
<path d="M31.574 67.9484C31.3625 67.9484 31.151 67.737 30.9395 67.5255C29.4592 65.1992 28.6133 62.6615 28.6133 59.9123C28.6133 57.1631 29.4592 54.6254 30.9395 52.2991C31.151 51.8762 31.574 51.8762 31.9969 52.0876C32.4199 52.2991 32.4199 52.7221 32.2084 53.145C30.9395 55.2598 30.3051 57.586 30.3051 59.9123C30.3051 62.2385 30.9395 64.5648 32.2084 66.6796C32.4199 67.1025 32.4199 67.5255 31.9969 67.737C31.9969 67.9484 31.7854 67.9484 31.574 67.9484Z" fill="black"/>
<path d="M35.8017 64.9865C35.5902 64.9865 35.3788 64.7751 35.1673 64.5636C34.3214 63.0833 33.8984 61.6029 33.8984 59.9111C33.8984 58.2193 34.3214 56.7389 35.1673 55.2586C35.3788 54.8356 35.8017 54.8356 36.2247 55.0471C36.6477 55.2586 36.6476 55.6815 36.4362 56.1045C35.8017 57.3734 35.3788 58.6422 35.3788 59.9111C35.3788 61.18 35.8017 62.4488 36.4362 63.7177C36.6476 64.1406 36.4362 64.5636 36.2247 64.7751C36.0132 64.9865 36.0132 64.9865 35.8017 64.9865Z" fill="black"/>
<path d="M29.4587 26.2871H26.498V29.2478H29.4587V26.2871Z" fill="black"/>
<path d="M33.9001 26.2871H30.9395V29.2478H33.9001V26.2871Z" fill="black"/>
<path d="M38.3406 26.2871H35.3799V29.2478H38.3406V26.2871Z" fill="black"/>
</svg>
