<?xml version="1.0" encoding="UTF-8"?>
<svg width="134px" height="35px" viewBox="0 0 134 35" version="1.1" xmlns="http://www.w3.org/2000/svg" xmlns:xlink="http://www.w3.org/1999/xlink">
    <!-- Generator: Sketch 61 (89581) - https://sketch.com -->
    <title>Group 18</title>
    <desc>Created with Sketch.</desc>
    <g id="nov2019_the-final-count-down" stroke="none" stroke-width="1" fill="none" fill-rule="evenodd">
        <g id="Desktop-HD-Home-opt-A-Copy" transform="translate(-1111.000000, -3502.000000)" fill="#888888">
            <g id="Group-18" transform="translate(1111.000000, 3502.000000)">
                <path d="M36.3615688,0 L2.34479103e-13,0 L2.34479103e-13,5.82719686 L34.5453015,5.82719686 L34.5453015,5.83210604 C35.546577,5.83210604 36.3486324,6.67403044 36.3486324,7.71232204 L36.3486324,27.2925871 L36.3408706,27.3048601 C36.3331088,28.3406971 35.5258788,29.1728031 34.5349524,29.1728031 L7.38925861,29.1728031 C6.39315757,29.1728031 5.58334036,28.3357879 5.58334036,27.2925871 L5.58334036,19.3789887 C5.58334036,18.3382425 6.39315757,17.4987727 7.38925861,17.4987727 L30.7471811,17.4987727 L30.7471811,11.6740304 L5.57040399,11.6740304 C2.49154623,11.6740304 2.34479103e-13,14.2709867 2.34479103e-13,17.479136 L2.34479103e-13,29.1875307 C2.34479103e-13,32.3981345 2.49154623,35 5.57040399,35 L36.3615688,35 C39.4404266,35 41.9319728,32.3981345 41.9319728,29.1875307 L41.9319728,5.81001473 C41.9319728,2.60186549 39.4404266,0 36.3615688,0" id="Fill-145"></path>
                <path d="M63.2033589,2.0783375e-13 L67.5267658,14.2120215 C68.0441403,15.9443835 68.405278,16.3461277 69.3094028,16.3461277 L70.1904762,16.3461277 L70.1904762,18.8461538 L60.7471106,18.8461538 L60.7471106,16.3461277 L61.5206111,16.3461277 C62.2992342,16.3461277 62.9472329,16.2309781 62.9472329,15.9187947 C62.9472329,15.6322001 62.9190591,15.3200167 62.8191699,14.8952426 L62.2736216,12.8481383 L56.9948647,12.8481383 L56.6875135,13.9842812 C56.4006524,14.9796856 56.298202,15.4044598 56.298202,15.8036451 C56.298202,16.2616847 57.2023268,16.3461277 57.904112,16.3461277 L58.6494387,16.3461277 L58.6494387,18.8461538 L51.047619,18.8461538 L51.047619,16.3461277 L51.92357,16.3461277 C52.830256,16.3461277 53.1913937,15.9443835 53.7113294,14.2120215 L58.032175,2.0783375e-13 L63.2033589,2.0783375e-13 Z M57.7401914,10.3481122 L61.4975598,10.3481122 L59.6329625,4.23238811 L59.5842986,4.23238811 L57.7401914,10.3481122 Z" id="Fill-147"></path>
                <path d="M71.4584909,3.41929156 C71.4584909,2.63831135 71.2715946,2.22529297 70.5003184,2.22529297 L69.2789116,2.22529297 L69.2789116,2.0783375e-13 L75.8755612,2.0783375e-13 L75.8755612,6.9211868 C76.8547925,5.75221962 78.1077874,5.00378025 79.3028707,5.00378025 C83.2908692,5.00378025 84.7755102,8.2603676 84.7755102,11.9274702 C84.7755102,15.5945728 83.2908692,18.8461538 79.3028707,18.8461538 C77.6287011,18.8461538 76.1387954,18.2378904 75.2043139,16.7084708 L74.43567,18.4356386 L71.4584909,18.4356386 L71.4584909,3.41929156 Z M75.8755612,11.9274702 C75.8755612,14.7635297 76.4836322,16.4606598 77.9735379,16.4606598 C79.4660759,16.4606598 80.074147,14.7635297 80.074147,11.9274702 C80.074147,9.09141065 79.4660759,7.39678372 77.9735379,7.39678372 C76.4836322,7.39678372 75.8755612,9.09141065 75.8755612,11.9274702 L75.8755612,11.9274702 Z" id="Fill-149"></path>
                <path d="M86.0427847,3.41929156 C86.0427847,2.63831135 85.8533204,2.22529297 85.087569,2.22529297 L83.8639456,2.22529297 L83.8639456,2.0783375e-13 L90.4583548,2.0783375e-13 L90.4583548,6.9211868 C91.439885,5.75221962 92.6898229,5.00378025 93.8845004,5.00378025 C97.8711445,5.00378025 99.3605442,8.2603676 99.3605442,11.9274702 C99.3605442,15.5945728 97.8711445,18.8461538 93.8845004,18.8461538 C92.2082679,18.8461538 90.7241311,18.2378904 89.7873355,16.7084708 L89.0189527,18.4356386 L86.0427847,18.4356386 L86.0427847,3.41929156 Z M90.4557234,11.9274702 C90.4557234,14.7635297 91.0688508,16.4606598 92.5529876,16.4606598 C94.0423873,16.4606598 94.6528833,14.7635297 94.6528833,11.9274702 C94.6528833,9.09141065 94.0423873,7.39678372 92.5529876,7.39678372 C91.0688508,7.39678372 90.4557234,9.09141065 90.4557234,11.9274702 L90.4557234,11.9274702 Z" id="Fill-151"></path>
                <path d="M113.945578,12.1178189 C113.945578,16.4435248 111.057704,18.8461538 107.110155,18.8461538 C103.159983,18.8461538 100.272109,16.4435248 100.272109,12.1178189 C100.272109,7.78967868 103.159983,5.38461538 107.110155,5.38461538 C111.057704,5.38461538 113.945578,7.78967868 113.945578,12.1178189 M104.961954,12.1178189 C104.961954,15.3067186 105.518021,16.6869523 107.110155,16.6869523 C108.699666,16.6869523 109.255733,15.3067186 109.255733,12.1178189 C109.255733,8.92648491 108.699666,7.54868549 107.110155,7.54868549 C105.518021,7.54868549 104.961954,8.92648491 104.961954,12.1178189" id="Fill-153"></path>
                <path d="M131.951512,12.0601178 L131.951512,14.2595546 C131.951512,15.550804 131.698299,16.3169285 130.723432,16.3169285 C130.133447,16.3169285 129.854913,15.8349296 129.854913,15.24131 L129.854913,7.49127639 L132.997279,7.49127639 L132.997279,5.24110295 L129.854913,5.24110295 L129.854913,2.0783375e-13 L127.322789,2.0783375e-13 C127.115155,2.33642586 126.451738,5.24110295 123.896825,5.24110295 L119.906198,5.24110295 L119.906198,2.0783375e-13 L117.374074,2.0783375e-13 C117.16644,2.33642586 116.503023,5.24110295 113.945578,5.24110295 L113.945578,7.49127639 L115.662358,7.49127639 L115.662358,14.5665117 C115.662358,17.4407468 117.11833,18.8461538 119.751738,18.8461538 C122.823205,18.8461538 124.046221,17.329126 124.046221,14.5665117 L124.046221,12.0601178 L122.007861,12.0601178 L122.007861,14.2595546 C122.007861,15.5482672 121.747052,16.3143916 120.774717,16.3143916 C120.187264,16.3143916 119.906198,15.8349296 119.906198,15.24131 L119.906198,7.49127639 L125.613605,7.49127639 L125.613605,14.5665117 C125.613605,17.4407468 127.067045,18.843617 129.700454,18.843617 C132.77192,18.843617 134,17.3265891 134,14.5665117 L134,12.057581 L131.951512,12.057581" id="Fill-155"></path>
            </g>
        </g>
    </g>
</svg>