<?xml version="1.0" encoding="utf-8"?>
<!-- Generator: Adobe Illustrator 24.0.1, SVG Export Plug-In . SVG Version: 6.00 Build 0)  -->
<svg version="1.1" id="Layer_1" xmlns="http://www.w3.org/2000/svg" xmlns:xlink="http://www.w3.org/1999/xlink" x="0px" y="0px"
	 viewBox="0 0 147 15" style="enable-background:new 0 0 147 15;" xml:space="preserve">
<style type="text/css">
	.st0{fill:#888888;}
</style>
<title>Group 16</title>
<desc>Created with Sketch.</desc>
<g>
	<path class="st0" d="M107.3,6.9c1.4,0.4,2.3,1.1,2.6,2.3c0.8,2.6-1.1,5.2-3.8,5.2c-2,0-3.9,0-5.9,0c-0.4,0-0.5-0.2-0.5-0.5
		c0-4.3,0-8.5,0-12.8c0-0.4,0.1-0.6,0.5-0.6c1.7,0,3.5,0,5.2,0c2.5,0,4.2,2.1,3.6,4.4C108.7,5.9,108.2,6.4,107.3,6.9z M104.2,8.5
		c-0.4,0-0.8,0-1.3,0c-0.1,0-0.4,0.2-0.4,0.3c0,0.9,0,1.8,0,2.6c0,0.1,0.3,0.4,0.4,0.4c0.8,0,1.6,0,2.5,0c1,0,1.7-0.9,1.7-1.8
		c0-0.9-0.8-1.6-1.7-1.6C105,8.4,104.6,8.5,104.2,8.5z M102.6,6.1c0.8,0,1.6,0,2.4,0c0.7-0.1,1.2-0.7,1.2-1.4c0-0.8-0.5-1.4-1.2-1.5
		c-0.8-0.1-1.6,0-2.4,0C102.6,4.2,102.6,5.1,102.6,6.1z"/>
	<path class="st0" d="M136.9,0.6c3.1,0,6.2,0,9.4,0c0,0.9,0,1.7,0,2.6c-2.1,0-4.2,0-6.3,0c0,0.9,0,1.8,0,2.7c2,0,3.9,0,5.9,0
		c0,0.9,0,1.8,0,2.7c-2,0-3.9,0-5.9,0c0,1,0,1.9,0,2.8c0,0.1,0.4,0.2,0.5,0.2c1.7,0,3.5,0,5.2,0c0.2,0,0.5,0,0.7,0
		c0,0.9,0,1.8,0,2.7c-3.2,0-6.3,0-9.5,0C136.9,9.8,136.9,5.2,136.9,0.6z"/>
	<path class="st0" d="M133.5,2.9c-0.7,0.6-1.3,1.1-2,1.7c-2.5-2.3-5.4-1.7-6.8-0.2c-1.6,1.6-1.6,4.4-0.1,6c1.4,1.6,4.4,2.3,7-0.1
		c0.6,0.5,1.3,1.1,2,1.7c-1.4,1.9-4.5,3.2-7.6,2.4c-3-0.8-5.2-3.4-5.4-6.2c-0.2-3.9,2.2-6.4,4.8-7.3C128.3-0.2,131.8,0.7,133.5,2.9z
		"/>
	<path class="st0" d="M116.7,14.4c-1,0-1.9,0-2.9,0c0-4.6,0-9.2,0-13.8c1,0,1.9,0,2.9,0C116.7,5.2,116.7,9.8,116.7,14.4z"/>
	<path class="st0" d="M28.8,2.5c0,0.2,0,0.4,0,0.7c0,3.6,0,7.2,0,10.8c0,0.3,0,0.6-0.5,0.6c-0.4,0-0.5-0.1-0.5-0.5
		c0-1.9,0-3.7,0-5.6c0-2.4,0-4.8,0-7.2c0-0.2,0.1-0.6,0.2-0.6c0.3-0.1,0.7-0.1,0.9,0.3c1.3,1.8,2.6,3.6,3.9,5.4
		c1.4,1.9,2.9,3.9,4.3,5.8c0.1,0.2,0.2,0.3,0.5,0.6c0-0.4,0-0.6,0-0.8c0-3.6,0-7.2,0-10.8c0-0.3,0-0.6,0.4-0.6
		c0.4,0,0.5,0.1,0.5,0.5c0,1.9,0,3.9,0,5.8c0,2.4,0,4.7,0,7.1c0,0.2-0.1,0.5-0.2,0.5c-0.2,0-0.6,0-0.7-0.1c-0.2-0.2-0.4-0.5-0.6-0.8
		C34.6,10,32,6.4,29.4,2.9c-0.1-0.2-0.2-0.3-0.3-0.4C29,2.4,28.9,2.5,28.8,2.5z"/>
	<path class="st0" d="M6.6,6.9c0,0,0.1,0.1,0.1,0.1c2.7,0.6,3.3,4.3,1.5,6.2c-0.8,0.8-1.7,1.3-2.8,1.3c-1.5,0-3,0-4.4,0
		c-0.4,0-0.5-0.1-0.5-0.5c0-4.3,0-8.6,0-12.9c0-0.4,0.1-0.5,0.5-0.5c1.3,0,2.6,0,4,0C7.8,0.7,9,3.5,7.8,5.6C7.6,6.1,7,6.5,6.6,6.9z
		 M1.5,13.6c1.3,0,2.5,0,3.8,0c1.5,0,2.8-1.1,3-2.6c0.2-1.7-0.7-3.2-2.3-3.4C4.6,7.4,3.2,7.5,1.9,7.5c-0.1,0-0.3,0.2-0.3,0.4
		C1.5,9.7,1.5,11.6,1.5,13.6z M1.5,4c0,0.7,0,1.4,0,2.1c0,0.3,0.1,0.5,0.5,0.5c1,0,1.9,0,2.9,0c1.4-0.1,2.4-1.1,2.4-2.5
		c0-1.4-0.9-2.5-2.3-2.6c-1-0.1-2,0-3-0.1c-0.4,0-0.5,0.2-0.5,0.5C1.6,2.6,1.5,3.3,1.5,4z"/>
	<path class="st0" d="M58.2,7.5c0-3.9,2.8-7.2,7.2-7.3c4,0,7.2,3.2,7.2,7.3c0,4.1-3,7.3-7.2,7.2C60.8,14.7,58.2,11.1,58.2,7.5z
		 M65.5,1.2c-3.3-0.2-6.3,2.6-6.3,6.3c0,3.7,2.6,6.3,6.2,6.3c3.6,0,6.3-2.7,6.3-6.3C71.6,3.4,68.5,1.1,65.5,1.2z"/>
	<path class="st0" d="M24.1,14.4c-0.9,0.2-1,0.1-1.3-0.6c-0.4-0.9-0.7-1.8-1.1-2.7c-0.1-0.3-0.3-0.5-0.7-0.5c-2,0-4,0-6,0
		c-0.4,0-0.6,0.2-0.7,0.5c-0.3,0.9-0.7,1.8-1.1,2.7c-0.3,0.7-0.4,0.7-1.2,0.5c0.2-0.4,0.3-0.8,0.5-1.3c1.6-4,3.3-8,4.9-12
		c0.1-0.3,0.2-0.6,0.7-0.6c0.4,0,0.5,0.3,0.6,0.6c1.7,4.2,3.5,8.5,5.2,12.7C23.9,14,24,14.2,24.1,14.4z M18.1,2.2
		c-0.1,0-0.1,0-0.2,0c-1,2.5-2,5-3.1,7.6c2.1,0,4.2,0,6.3,0C20.1,7.2,19.1,4.7,18.1,2.2z"/>
	<path class="st0" d="M55.2,2.6C55,2.8,54.9,3,54.7,3.2c-1.6-1.7-3.6-2.3-5.8-2c-1.5,0.2-2.8,0.9-3.8,2.1c-2.1,2.5-1.9,6.4,0.4,8.7
		c2.1,2.1,6.4,2.7,9.1-0.3c0.2,0.2,0.4,0.4,0.6,0.5c-2.2,2.9-7.3,3.2-10.1,0.6C42,10.2,42,5,45,2.2C47.9-0.5,52.9-0.3,55.2,2.6z"/>
	<path class="st0" d="M92.6,0.6c0,0.6,0,1.2,0,1.8c-4.6,0-9.2,0-13.8,0c0-0.6,0-1.2,0-1.8C83.4,0.6,87.9,0.6,92.6,0.6z"/>
	<path class="st0" d="M92.6,6.5c-4.6,0-9.2,0-13.8,0c0-0.6,0-1.2,0-1.8c4.6,0,9.2,0,13.8,0C92.6,5.2,92.6,5.8,92.6,6.5z"/>
	<path class="st0" d="M92.6,8.6c0,0.6,0,1.2,0,1.8c-4.6,0-9.2,0-13.8,0c0-0.6,0-1.2,0-1.8C83.4,8.6,87.9,8.6,92.6,8.6z"/>
	<path class="st0" d="M92.6,12.6c0,0.6,0,1.2,0,1.8c-4.6,0-9.2,0-13.8,0c0-0.6,0-1.2,0-1.8C83.4,12.6,87.9,12.6,92.6,12.6z"/>
</g>
</svg>
