<?xml version="1.0" encoding="UTF-8"?>
<svg width="166px" height="21px" viewBox="0 0 166 21" version="1.1" xmlns="http://www.w3.org/2000/svg" xmlns:xlink="http://www.w3.org/1999/xlink">
    <!-- Generator: Sketch 61 (89581) - https://sketch.com -->
    <title>Fill 107</title>
    <desc>Created with Sketch.</desc>
    <g id="nov2019_the-final-count-down" stroke="none" stroke-width="1" fill="none" fill-rule="evenodd">
        <g id="Desktop-HD-Home-opt-A-Copy" transform="translate(-194.000000, -3753.000000)" fill="#888888">
            <g id="Fill-107" transform="translate(194.000000, 3753.300000)">
                <path d="M138.075715,11.8239575 C143.893279,11.6163002 144.821807,11.2310083 144.821807,10.1451857 C144.821807,8.85420773 143.768784,8.23623958 140.441127,8.23623958 C136.192723,8.23623958 135.65065,8.87922669 135.65065,11.9265353 L138.075715,11.8239575 Z M135.710304,14.5084913 C136.000793,16.1872631 137.022692,17.193025 140.474845,17.193025 C143.447171,17.193025 146.515463,16.8052312 148.847157,16.1347233 L148.847157,18.5615618 C147.122377,19.3096285 143.348612,19.8 140.601934,19.8 C133.37861,19.8 131.013198,18.3539045 131.013198,12.5445034 C131.013198,7.46065201 133.05959,5.54920394 140.508562,5.54920394 C146.676269,5.54920394 149.422948,7.22797574 149.487789,10.042608 C149.487789,13.5527672 146.515463,14.4059136 135.710304,14.5084913 L135.710304,14.5084913 Z M86.0755648,3.49264594 L90.5496164,3.49264594 L90.5496164,9.05941988e-14 L86.0755648,9.05941988e-14 L86.0755648,3.49264594 Z M30.9085638,17.1154663 C34.2025032,17.1154663 35.1595612,16.7026535 35.1595612,15.3866566 L35.1595612,13.2425322 L31.1342116,13.3976497 C27.0725509,13.5802881 26.1466167,14.0431387 26.1466167,15.1289613 C26.1466167,16.7526914 26.7535315,17.1154663 30.9085638,17.1154663 L30.9085638,17.1154663 Z M86.0755648,19.5673237 L90.5496164,19.5673237 L90.5496164,5.85943897 L86.0755648,5.85943897 L86.0755648,19.5673237 Z M152.8751,10.2752843 C152.8751,6.55746778 156.233881,5.49916603 159.268455,5.49916603 C160.674215,5.49916603 164.188615,5.65428355 164.984866,5.78188021 L164.984866,8.39135709 L160.388913,8.39135709 C157.924942,8.39135709 157.318028,8.57149356 157.318028,10.4804397 L157.318028,19.5673237 L152.8751,19.5673237 L152.8751,10.2752843 Z M9.52389412,17.1154663 C4.95647104,17.1154663 4.2509974,16.4699773 4.2509974,12.3118271 C4.2509974,8.77664898 5.69047486,8.28627748 9.33455744,8.28627748 C13.0097639,8.28627748 14.4492413,8.77664898 14.4492413,12.3118271 C14.4492413,16.4699773 13.6478025,17.1154663 9.52389412,17.1154663 L9.52389412,17.1154663 Z M128.424732,8.59651251 L121.012072,8.59651251 L121.012072,15.281577 C121.012072,16.5200152 122.129936,17.0379075 123.950681,17.0379075 C126.030791,17.0379075 127.465081,16.8552691 128.520697,16.6501137 L128.520697,19.129492 C126.764794,19.5147839 124.910332,19.7499621 123.408607,19.7499621 C118.485854,19.7499621 116.631392,18.0962092 116.631392,15.591812 L116.631392,1.54867324 L121.012072,1.54867324 L121.012072,5.96201668 L128.424732,5.96201668 L128.424732,8.59651251 Z M99.0204873,19.5673237 L99.0204873,10.9457923 C99.0204873,8.85670963 99.9152977,8.28627748 103.686469,8.28627748 C107.553606,8.28627748 108.417292,8.85670963 108.417292,10.9457923 L108.417292,19.5673237 L112.857627,19.5673237 L112.857627,10.8181956 C112.857627,6.91774071 109.343227,5.62926459 104.485314,5.62926459 L102.983589,5.62926459 C98.0945532,5.62926459 94.5775596,6.91774071 94.5775596,10.8181956 L94.5775596,19.5673237 L99.0204873,19.5673237 Z M47.6583754,19.5673237 L47.6583754,10.9457923 C47.6583754,8.85670963 48.5531857,8.28627748 52.3217636,8.28627748 C56.191494,8.28627748 57.0551805,8.85670963 57.0551805,10.9457923 L57.0551805,19.5673237 L61.4981082,19.5673237 L61.4981082,10.8181956 C61.4981082,6.91774071 57.9811146,5.62926459 53.1232024,5.62926459 L51.6214773,5.62926459 C46.7298476,5.62926459 43.2154476,6.91774071 43.2154476,10.8181956 L43.2154476,19.5673237 L47.6583754,19.5673237 Z M69.932668,14.0156179 L69.932668,19.5673237 L65.5234578,19.5673237 L65.5234578,9.05941988e-14 L69.9663855,9.05941988e-14 L69.9663855,10.9207733 L70.7963545,10.9207733 C72.1061493,10.9207733 72.5548513,10.738135 73.4833791,9.99006823 L78.6940281,5.85943897 L83.8061184,5.85943897 L75.9110384,12.3918878 L84.4130332,19.5673237 L78.7225583,19.5673237 L73.2914488,14.8687642 C72.362921,14.0956785 72.0127778,14.0156179 70.7003894,14.0156179 L69.932668,14.0156179 Z M35.1595612,10.8432146 L35.1595612,10.1977255 C35.1595612,8.62153146 33.8782966,8.28627748 30.4935793,8.28627748 C27.295605,8.28627748 24.4529613,8.82918878 22.98236,9.24200152 L22.98236,6.68756634 C25.5397019,5.88695982 28.447187,5.57672479 30.6543858,5.57672479 C35.5097043,5.57672479 39.6336127,6.19469295 39.6336127,10.6355572 L39.6336127,14.8162244 C39.6336127,19.7174375 34.6797354,19.7474602 30.6543858,19.7474602 C24.5800503,19.7474602 21.6077238,18.3789234 21.6077238,15.5893101 C21.6077238,11.8489765 24.5800503,11.1259287 35.1595612,10.8432146 L35.1595612,10.8432146 Z M9.58873544,19.7474602 C15.9198426,19.7474602 19.0503819,18.2263078 19.0503819,12.7521607 C19.0503819,7.79590599 16.7160941,5.57672479 10.4524219,5.57672479 C7.70314965,5.57672479 5.81756386,5.75686126 4.44292773,6.68756634 L4.44292773,9.05941988e-14 L6.82121026e-13,9.05941988e-14 L6.82121026e-13,13.0874147 C6.82121026e-13,18.0962092 2.71814843,19.7474602 9.58873544,19.7474602 L9.58873544,19.7474602 Z M160.910237,19.5673237 L165.384289,19.5673237 L165.384289,16.0746778 L160.910237,16.0746778 L160.910237,19.5673237 Z" id="Fill-106"></path>
            </g>
        </g>
    </g>
</svg>