<?xml version="1.0" encoding="UTF-8"?>
<svg width="115px" height="26px" viewBox="0 0 115 26" version="1.1" xmlns="http://www.w3.org/2000/svg" xmlns:xlink="http://www.w3.org/1999/xlink">
    <!-- Generator: Sketch 61 (89581) - https://sketch.com -->
    <title>Fill 87</title>
    <desc>Created with Sketch.</desc>
    <g id="nov2019_the-final-count-down" stroke="none" stroke-width="1" fill="none" fill-rule="evenodd">
        <g id="Desktop-HD-Home-opt-A-Copy" transform="translate(-911.000000, -3640.000000)" fill="#888888">
            <g id="Fill-87" transform="translate(911.000000, 3639.999989)">
                <path d="M71.9061203,12.8107692 C69.3386929,12.8107692 67.2614108,10.822416 67.2614108,8.37230056 C67.2614108,5.92218512 69.3412863,3.93635519 71.9061203,3.93635519 C74.4709544,3.93635519 76.5534232,5.92218512 76.5534232,8.37230056 C76.5534232,10.8249393 74.4709544,12.8107692 71.9061203,12.8107692 L71.9061203,12.8107692 Z M76.5534232,0.272536832 L76.5534232,1.27428331 C75.1607884,0.43907403 73.5503112,-0.00250187446 71.9061203,1.06626038e-05 C67.0643154,1.06626038e-05 63.1379668,3.74963167 63.1379668,8.37230056 C63.1379668,12.9974927 67.0643154,16.747103 71.9061203,16.747103 C73.5503112,16.7496263 75.1607884,16.3080504 76.5534232,15.4728411 L76.5534232,17.6252082 C76.5534232,20.0753237 74.4709544,22.0611536 71.9061203,22.0611536 C69.8314315,22.0611536 68.0757261,20.7641821 67.4792531,18.9701223 L63.6618257,20.4815735 C64.8832988,23.7012927 68.1120332,26.0000107 71.9061203,26.0000107 C76.7479253,26.0000107 80.6716805,22.2478771 80.6716805,17.6252082 L80.6820539,17.6252082 L80.6820539,0.272536832 L76.5534232,0.272536832 Z M24.9325726,12.8107692 C22.3677386,12.8107692 20.2878631,10.822416 20.2878631,8.37230056 C20.2878631,5.92218512 22.3677386,3.93635519 24.9325726,3.93635519 C27.4974066,3.93635519 29.5798755,5.92218512 29.5798755,8.37230056 C29.5798755,9.5506774 29.0897303,10.6785884 28.218361,11.5112744 C27.3469917,12.3439604 26.1644191,12.8107692 24.9325726,12.8107692 L24.9325726,12.8107692 Z M24.9325726,2.14164214e-05 C20.0907676,2.14164214e-05 16.1644191,3.74963167 16.1644191,8.37230056 C16.1644191,12.9974927 20.0907676,16.747103 24.9325726,16.747103 C29.7743776,16.747103 33.6981328,12.9974927 33.6981328,8.37230056 C33.6981328,3.74963167 29.7743776,2.14164214e-05 24.9325726,2.14164214e-05 L24.9325726,2.14164214e-05 Z M8.76815353,3.93635519 C9.5409751,3.93635519 10.3034232,4.12055543 10.9828838,4.47381615 C11.6649378,4.82707687 12.2406639,5.33678163 12.6633817,5.95751119 L15.6120332,3.14151856 C14.0041494,1.22886408 11.5378631,2.14164214e-05 8.76815353,2.14164214e-05 C3.92634855,2.14164214e-05 4.97379915e-14,3.74963167 4.97379915e-14,8.37230056 C4.97379915e-14,12.9974927 3.92634855,16.747103 8.76815353,16.747103 C11.5378631,16.747103 14.0041494,15.5182603 15.6120332,13.6030826 L12.6633817,10.7896132 C12.2406639,11.4103428 11.6649378,11.9200475 10.9854772,12.2733083 C10.3034232,12.626569 9.5409751,12.8107692 8.76815353,12.8107692 C6.20072614,12.8107692 4.12344398,10.8249393 4.12344398,8.37482385 C4.12344398,5.92470841 6.2033195,3.93635519 8.76815353,3.93635519 L8.76815353,3.93635519 Z M95.8246888,8.37230056 C95.8246888,10.822416 93.7448133,12.8107692 91.1773859,12.8107692 C88.6125519,12.8107692 86.5326763,10.822416 86.5326763,8.37230056 C86.5326763,5.92218512 88.6125519,3.93635519 91.1773859,3.93635519 L95.8246888,3.93635519 L95.8246888,8.37230056 Z M91.1773859,2.14164214e-05 C86.3355809,2.14164214e-05 82.4092324,3.74963167 82.4092324,8.37230056 C82.4092324,12.9974927 86.3355809,16.747103 91.1773859,16.747103 C96.0191909,16.747103 99.9429461,12.9974927 99.9429461,8.37230056 L99.9429461,2.14164214e-05 L91.1773859,2.14164214e-05 Z M59.4994813,1.69819618 C58.3091286,0.560191992 56.8153527,2.14164214e-05 54.8651452,2.14164214e-05 C52.9434647,2.14164214e-05 50.5705394,0.966441824 49.2971992,3.11376236 C48.4180498,1.3600752 46.5534232,2.14164214e-05 44.3620332,2.14164214e-05 C42.6685685,2.14164214e-05 41.0736515,0.704019572 39.7614108,2.11453918 L39.7614108,0.272536832 L35.4253112,0.272536832 L35.4253112,16.3837491 L39.7614108,16.3837491 L39.7614108,7.50681179 C39.7925311,6.23759648 40.1919087,5.49827225 40.8558091,4.84221662 C41.5197095,4.18616099 42.3729253,3.96915797 43.2780083,3.96915797 C45.1089212,3.96915797 46.1540456,5.37967758 46.1540456,7.64811608 L46.1540456,16.3837491 L50.4901452,16.3837491 L50.4901452,7.50681179 C50.5212656,6.23759648 50.9206432,5.49827225 51.5845436,4.84221662 C52.248444,4.18616099 53.1016598,3.96915797 54.0067427,3.96915797 C55.8376556,3.96915797 56.8853734,5.37967758 56.8853734,7.64811608 L56.8853734,16.3837491 L61.408202,16.3837491 L61.408202,6.64889289 C61.4107884,4.47381615 60.6924274,2.83872366 59.4994813,1.69819618 L59.4994813,1.69819618 Z M112.883817,8.04679604 C112.155083,7.63802292 110.378631,7.0046769 108.895228,6.46469266 C106.524896,5.60425046 105.993257,5.03146343 106.068465,4.43849008 C106.141079,3.87579621 107.113589,3.45440663 108.625519,3.52253549 C110.137448,3.59066434 111.403008,3.83290027 113.262448,4.57222449 L114.701763,1.36259849 C112.494813,0.403747958 110.466805,2.14164214e-05 108.915975,2.14164214e-05 C106.397822,2.14164214e-05 104.948133,0.378515049 103.602178,1.32727242 C102.253631,2.2735065 101.672718,3.44683676 101.672718,4.96585787 C101.672718,6.46721595 102.738589,7.77680391 104.162344,8.60192003 C104.859959,9.00564657 105.889523,9.55320069 107.5389,10.0982315 C108.576245,10.4388758 109.211618,10.6155062 109.753631,10.8854983 C110.321577,11.1706302 110.495332,11.498658 110.495332,11.8821982 C110.495332,12.3565769 109.891079,12.9545968 108.415456,12.9545968 C106.600104,12.9545968 104.42168,12.3136809 102.487033,11.238759 L100.61722,14.6123989 C101.916494,15.3895725 102.655602,15.6948907 104.071577,16.1288967 C105.487552,16.5603795 106.854253,16.7773825 108.174274,16.7773825 C110.153008,16.7773825 111.789419,16.2802942 113.114627,15.3264902 C114.258299,14.5064207 115,13.2220656 115,11.6172526 C115,10.3127113 114.515041,8.96779721 112.883817,8.04679604 L112.883817,8.04679604 Z" id="Fill-86"></path>
            </g>
        </g>
    </g>
</svg>