<?xml version="1.0" encoding="utf-8"?>
<!-- Generator: Adobe Illustrator 24.0.1, SVG Export Plug-In . SVG Version: 6.00 Build 0)  -->
<svg version="1.1" id="Layer_1" xmlns="http://www.w3.org/2000/svg" xmlns:xlink="http://www.w3.org/1999/xlink" x="0px" y="0px"
	 viewBox="0 0 147 37" style="enable-background:new 0 0 147 37;" xml:space="preserve">
<style type="text/css">
	.st0{fill:#888888;}
</style>
<g>
	<title>Group 25</title>
	<desc>Created with Sketch.</desc>
	<g id="layer1" transform="translate(-22.745446,-140.77167)">
		<path id="path849" class="st0" d="M47.9,168.4c0,1.2,1,2.2,2.2,2.2c1.2,0,2.2-1,2.2-2.2c0-1.2-1-2.2-2.2-2.2
			C48.9,166.1,47.9,167.2,47.9,168.4 M63.4,161.7c-0.6,4.5-3.5,8.2-7.5,10c-1.6,0.8-3.5,1.2-5.4,1.2h-0.4c-2.5,0-4.5-2-4.5-4.5
			s2-4.5,4.5-4.5c2.5,0,4.5,2,4.5,4.5c0,0.6-0.1,1.1-0.3,1.6c0.9-0.3,1.7-0.8,2.5-1.3c0,0,0-0.1,0-0.2c0-3.7-3-6.7-6.7-6.7
			c-3.7,0-6.7,3-6.7,6.7c0,3.7,3,6.7,6.7,6.7c2.8,0,5.3-0.7,7.6-2c4.2-2.3,7.2-6.5,7.9-11.5L63.4,161.7z M41.2,161.7h-6.6
			c0.7,5,3.7,9.2,7.9,11.5c-0.9-1.4-1.4-3-1.4-4.8V161.7z M68,159.4c0,9.9-8,17.9-17.9,17.9c-9.9,0-17.9-8-17.9-17.9h11.2v3
			c1.6-1.9,4-3,6.7-3c4.4,0,8,3.1,8.8,7.2c1.5-1.8,2.4-4.1,2.4-6.6v-0.6H68z"/>
		<path id="path853" class="st0" d="M50.1,152.4H49v-4.2c-1.2,0-2.2,1-2.2,2.2c0,0.8,0.4,1.5,1.1,1.9h-2.9c-0.3-0.6-0.4-1.2-0.4-1.9
			c0-0.8,0.2-1.5,0.6-2.2c-0.2,0-0.4-0.1-0.6-0.1c-1.2,0-2.2,1-2.2,2.2c0,0.8,0.4,1.5,1.1,1.9h-2.9c-0.3-0.6-0.4-1.2-0.4-1.9
			c0-2.5,2-4.5,4.5-4.5c0.8,0,1.6,0.2,2.2,0.6c0.7-0.4,1.4-0.6,2.2-0.6c0.4,0,0.8,0,1.1,0.1c0.4-0.1,0.7-0.1,1.1-0.1
			c0.8,0,1.6,0.2,2.2,0.6c0.7-0.4,1.4-0.6,2.2-0.6c2.5,0,4.5,2,4.5,4.5c0,0.7-0.2,1.3-0.4,1.9h-2.9c0.6-0.4,1.1-1.1,1.1-1.9
			c0-1.2-1-2.2-2.2-2.2c-0.2,0-0.4,0-0.6,0.1c0.4,0.6,0.6,1.4,0.6,2.2c0,0.7-0.2,1.3-0.4,1.9h-2.9c0.6-0.4,1.1-1.1,1.1-1.9
			c0-1.2-1-2.2-2.2-2.2v4.2H50.1z"/>
		<path id="path857" class="st0" d="M40.5,154.3c0-0.7,0.6-1.4,1.4-1.4c0.7,0,1.4,0.6,1.4,1.4c0,0.7-0.6,1.4-1.4,1.4
			C41.1,155.7,40.5,155.1,40.5,154.3"/>
		<path id="path861" class="st0" d="M57,154.3c0-0.7,0.6-1.4,1.4-1.4c0.7,0,1.4,0.6,1.4,1.4c0,0.7-0.6,1.4-1.4,1.4
			C57.7,155.7,57,155.1,57,154.3"/>
		<path id="path865" class="st0" d="M52.9,154.3c0-0.7,0.6-1.4,1.4-1.4s1.4,0.6,1.4,1.4c0,0.7-0.6,1.4-1.4,1.4
			S52.9,155.1,52.9,154.3"/>
		<path id="path869" class="st0" d="M48.8,154.3c0-0.7,0.6-1.4,1.4-1.4c0.7,0,1.4,0.6,1.4,1.4c0,0.7-0.6,1.4-1.4,1.4
			C49.4,155.7,48.8,155.1,48.8,154.3"/>
		<path id="path873" class="st0" d="M44.6,154.3c0-0.7,0.6-1.4,1.4-1.4s1.4,0.6,1.4,1.4c0,0.7-0.6,1.4-1.4,1.4
			S44.6,155.1,44.6,154.3"/>
		<path id="path875" class="st0" d="M43.4,156.4h13.4v2.2H43.4V156.4z"/>
		<path id="path887" class="st0" d="M49.7,143.5V143H49v-0.7h0.7v-0.7h0.7v0.7h0.7v0.7h-0.7v0.5c0.4,0.2,0.7,0.6,0.7,1.1
			c0,0.6-0.5,1.1-1.1,1.1c-0.6,0-1.1-0.5-1.1-1.1C49,144.1,49.3,143.7,49.7,143.5"/>
		<path id="path891" class="st0" d="M89.7,167.7c-2.1,1.2-4.5,2.2-6.5,2.3c-2.1,0.1-4.5-0.3-5.1-2.4c-1-3.1,1-7.1,3.5-8.5
			c3.5-1.9,6.4-0.8,7.4,0.2l0.7-3.7c-1.5-0.7-3.5-0.9-4.2-0.9c-5.2,0-7.8,2.6-9.3,4.7c-1.8,2.4-4.1,8.4,0.3,12.6
			c1.3,1.2,3.7,2,6,1.8c3.6-0.3,5.8-1.3,7.9-2.8c0.1,0.2,0.2,0.4,0.4,0.6c0.9,1.3,2.6,2,5,2c4,0,6.7-1.6,7.5-6.1l0.3-1.5
			c0-0.1,0.1-0.3,0.1-0.5c0.1-0.5,0.1-1,0.1-1.4c0-3.4-2.1-4.9-5.8-4.9c-4,0-6.5,1.6-7.4,6.1c2.2-1.4,4.3-2.9,7.1-2.9
			c1.5,0,2,0.6,2,1.8c0,0.4,0,0.8-0.1,1.4c0,0,0,0.1,0,0.1l-0.3,1.5c-0.5,2.4-1.2,3.3-3,3.3c-1.4,0-2-0.5-2-1.7
			c0-0.4,0.1-1.2,0.1-1.5c0.1-0.3,0.4-2.1,0.4-2.1S91.7,166.5,89.7,167.7"/>
		<path id="path895" class="st0" d="M114.4,159.2c-1.5,0-3.3,0.2-4.8,1.5l0.2-1.1H106l-2.4,13.6h4.2l1.8-9.9
			c1.1-0.3,2.8-0.6,4.3-0.6L114.4,159.2z"/>
		<path id="path899" class="st0" d="M124.2,159.2c-1.5,0-3.2,0.2-4.8,1.5l0.2-1.1h-3.9l-2.4,13.6h4.2l1.8-9.9
			c1.1-0.3,2.8-0.6,4.3-0.6L124.2,159.2z"/>
		<path id="path903" class="st0" d="M159.3,162c1,0,2.7,0.1,4.4,0.3l0.4-2.5c-1-0.3-2.8-0.6-4.9-0.6c-3.2,0-6.3,0.7-6.3,4.3
			c0,2,1.1,3.2,3.2,4l1,0.4c1.5,0.6,1.8,0.8,1.8,1.5c0,1.2-1.1,1.4-2.4,1.4c-2,0-2.8-0.2-4.6-0.3l-0.4,2.5c0.7,0.2,2.9,0.5,4.8,0.5
			c3.9,0,6.8-1.2,6.8-4.7c0-1.9-1-3-3.3-3.9l-1.1-0.4c-1.1-0.5-1.6-0.7-1.6-1.3C157.1,162.1,158.3,162,159.3,162"/>
		<path id="path907" class="st0" d="M147,165.7l-0.3,1.5c-0.5,2.4-1.1,3.3-3,3.3c-1.4,0-2-0.5-2-1.7c0-0.5,0-1,0.1-1.5l0.3-1.5
			c0.4-2.4,1.1-3.3,3-3.3c1.5,0,2,0.6,2,1.8C147.1,164.6,147.1,165,147,165.7 M145.5,159.2c-4,0-6.5,1.5-7.4,6.1l-0.3,1.3
			c-0.2,0.8-0.2,1.5-0.2,2.1c0,3.3,2,4.9,5.7,4.9c4,0,6.7-1.6,7.5-6.1l0.3-1.5c0.1-0.5,0.2-1.3,0.2-1.9
			C151.3,160.7,149.2,159.2,145.5,159.2"/>
		<path id="path911" class="st0" d="M132.6,165.3h-4.9l0.1-0.2c0.3-1.5,0.9-2.9,2.9-2.9c1.6,0,2.1,0.8,2.1,1.8
			C132.7,164.3,132.7,164.8,132.6,165.3 M131,159.2c-4,0-6.8,1.7-7.6,6.4l-0.1,0.7c-0.1,0.8-0.3,1.6-0.3,2.3c0,3.5,2.1,4.9,6,4.9
			c2.4,0,4.4-0.3,5.5-0.6l0.4-2.8c-2.6,0.2-3.8,0.2-5.2,0.2c-2.2,0-2.8-0.6-2.8-1.7c0-0.3,0.1-0.7,0.2-1.3h9
			c0.3-1.4,0.4-2.3,0.4-3.3C136.7,161.3,135,159.2,131,159.2"/>
	</g>
</g>
</svg>
