<?xml version="1.0" encoding="utf-8"?>
<!-- Generator: Adobe Illustrator 24.0.1, SVG Export Plug-In . SVG Version: 6.00 Build 0)  -->
<svg version="1.1" id="Layer_1" xmlns="http://www.w3.org/2000/svg" xmlns:xlink="http://www.w3.org/1999/xlink" x="0px" y="0px"
	 viewBox="0 0 68 44" style="enable-background:new 0 0 68 44;" xml:space="preserve">
<style type="text/css">
	.st0{fill-rule:evenodd;clip-rule:evenodd;fill:#888888;}
</style>
<title>Group 19</title>
<desc>Created with Sketch.</desc>
<g>
	<path id="path852" class="st0" d="M41.7,0c-1.3,0-2.5,0.8-2.6,1.6l-0.9,7.5c-6.6-2-10.7,2.2-11.6,9.1l-8.7,9.6
		c-1.7,1.5-5.8,2.8-6.6,0.1l7.7-5.6c1.6-1.4,3.1-2.9,3.6-4.9c1.1-4.2-0.4-5.9-2.4-7.5c-1.6-1.3-5.4-1.8-8.5-0.3
		c-2.5,1.4-4,3.6-4.2,5.4L6.2,25.4c-4,2-3.2,6.2,0.5,5.5c1.2,2.5,3.7,3.8,6.9,3.8c4.6,0,8.3-2.9,11.9-8c-0.7,5.8,3.4,8,7.2,8
		c2.9,0,5.8-1.5,7.8-3.6l5.2-4.8L43.9,41c-0.2,1.6,1.1,3,2.4,3c1.4,0,2.5-0.7,2.8-2.6l0.9-7.2c2.2,0.8,4.5,0.8,6,0l7-3
		c0.7-0.4,1.4-0.9,1.4-2.4c0-2.2-2-2.7-3-2.7l1.1-9c0.7-5.4-3.2-8.4-6.8-8.4c-5.1,0-8.3,3.8-8.9,9.3l-5.3,5.5l2.7-21.3
		C44.4,1.2,43,0,41.7,0L41.7,0z M15.7,13.4c2.8,0,2.9,2.7,1,4.5l-5.1,3.7C12.4,14.7,13.1,13.4,15.7,13.4L15.7,13.4z M34.9,13.4
		c1.7,0,2.6,0.7,2.4,2.6l-1.5,10.9l0,0c-0.3,1.6-1.4,2.6-2.7,2.6c-1.7,0-2.6-0.7-2.4-2.6L32.1,16C32.4,14.4,33.6,13.4,34.9,13.4
		L34.9,13.4z M55.2,13.4c1.7,0,2.6,0.7,2.4,2.6l-1.5,10.9l0,0c-0.3,1.6-1.4,2.6-2.7,2.6c-1.7,0-2.6-0.7-2.4-2.6L52.4,16
		C52.7,14.4,53.9,13.4,55.2,13.4L55.2,13.4z"/>
</g>
</svg>
