<?xml version="1.0" encoding="UTF-8"?>
<svg width="166px" height="28px" viewBox="0 0 166 28" version="1.1" xmlns="http://www.w3.org/2000/svg" xmlns:xlink="http://www.w3.org/1999/xlink">
    <!-- Generator: Sketch 62 (91390) - https://sketch.com -->
    <title>Embraer_logo</title>
    <desc>Created with Sketch.</desc>
    <defs>
        <rect id="path-1" x="0.625748148" y="0.103081481" width="164.621126" height="27.6301926"></rect>
    </defs>
    <g id="nov2019_the-final-count-down" stroke="none" stroke-width="1" fill="none" fill-rule="evenodd">
        <g id="Desktop-HD-Home-opt-A.2" transform="translate(-193.000000, -3882.000000)">
            <g id="Embraer_logo" transform="translate(193.000000, 3882.000000)">
                <polygon id="Path" fill="#888888" fill-rule="nonzero" points="6.1544 12.8111407 22.7389037 0.10162963 28.2632 0.10162963 17.2102519 12.8111407 28.2167407 12.8111407 28.2167407 15.0223111 17.2102519 15.0223111 28.2632 27.7332741 22.7389037 27.7332741 6.1544 15.0223111 0.6272 15.0223111 2.83837037 12.8111407"></polygon>
                <g id="Clipped">
                    <mask id="mask-2" fill="white">
                        <use xlink:href="#path-1"></use>
                    </mask>
                    <g id="SVGID_1_"></g>
                    <path d="M39.1245037,10.3763852 L39.1245037,12.4699556 L49.0246815,12.4699556 L49.0246815,15.3809185 L39.1245037,15.3809185 L39.1245037,17.4919111 L49.9974222,17.4919111 L49.9974222,20.8398815 L35.1740148,20.8398815 L35.1740148,7.00954074 L49.9945185,7.00954074 L49.9945185,10.3763852 L39.1245037,10.3763852 M51.9675852,20.8398815 L51.9675852,7.00954074 L58.6156148,7.00954074 L63.2688,15.6466074 L67.9205333,7.00954074 L74.6847111,7.00954074 L74.6847111,20.8398815 L70.7226074,20.8398815 L70.7226074,10.9963259 L70.56,10.9963259 L65.2200889,20.8398815 L61.3146074,20.8398815 L56.0124444,10.9890667 L55.9108148,10.9890667 L55.9108148,20.8398815 L51.9675852,20.8398815 Z M76.6737481,20.8398815 L76.6737481,7.00954074 L88.3321185,7.00954074 C91.2329185,7.00954074 92.639763,8.26394074 92.639763,10.8714667 C92.639763,12.358163 92.0343407,13.2670222 90.7349333,13.7998519 C92.3711704,14.0887704 93.0840296,15.1123259 93.0840296,17.0926519 C93.0840296,19.7568 91.8034963,20.8398815 88.9375407,20.8398815 L76.6737481,20.8398815 Z M88.581837,11.2518519 C88.581837,10.5680296 88.1724148,10.1106963 87.5684444,10.1106963 L80.6285926,10.1106963 L80.6285926,12.3930074 L87.5684444,12.3930074 C88.2246815,12.3930074 88.581837,11.9952 88.581837,11.2518519 M89.0101333,16.4262519 C89.0101333,15.6843556 88.581837,15.2096 87.9241481,15.2096 L80.6285926,15.2096 L80.6285926,17.7024296 L87.9241481,17.7024296 C88.6181333,17.7024296 89.0101333,17.2421926 89.0101333,16.4262519 M124.144948,15.2110519 L121.49677,10.3212148 L118.906667,15.2110519 L124.144948,15.2110519 Z M111.448504,20.8398815 L118.906667,7.00954074 L124.218993,7.00954074 L131.549393,20.8398815 L126.964444,20.8398815 L125.649067,18.5372444 L117.327052,18.5372444 L115.9928,20.8398815 L111.448504,20.8398815 Z M152.26877,10.4518815 L152.26877,13.8376 L159.800978,13.8376 C160.904385,13.8376 161.225244,13.3250963 161.225244,12.0126222 C161.225244,10.946963 160.815822,10.4518815 159.800978,10.4518815 L152.26877,10.4518815 Z M165.246874,11.5364148 C165.246874,13.8187259 164.712593,14.9627852 163.093778,15.3809185 C164.446904,15.7221037 165.139437,16.5975704 165.139437,18.0073185 L165.139437,20.8398815 L161.1904,20.8398815 L161.1904,18.7288889 C161.1904,17.5485333 160.708385,17.3017185 159.407526,17.3017185 L152.267319,17.3017185 L152.267319,20.8398815 L148.300859,20.8398815 L148.300859,7.00954074 L159.941807,7.00954074 C163.858904,7.00954074 165.246874,7.94162963 165.246874,11.5364148 M98.577837,10.4518815 L98.577837,13.8376 L106.108593,13.8376 C107.210548,13.8376 107.531407,13.3250963 107.531407,12.0126222 C107.531407,10.946963 107.121985,10.4518815 106.108593,10.4518815 L98.577837,10.4518815 Z M111.553037,11.5364148 C111.553037,13.8187259 111.020207,14.9627852 109.399941,15.3809185 C110.754519,15.7221037 111.448504,16.5975704 111.448504,18.0073185 L111.448504,20.8398815 L107.496563,20.8398815 L107.496563,18.7288889 C107.496563,17.5485333 107.014548,17.3017185 105.716593,17.3017185 L98.577837,17.3017185 L98.577837,20.8398815 L94.6070222,20.8398815 L94.6070222,7.00954074 L106.250874,7.00954074 C110.163615,7.00954074 111.553037,7.94162963 111.553037,11.5364148 M135.49843,10.3763852 L135.49843,12.4699556 L145.394252,12.4699556 L145.394252,15.3809185 L135.49843,15.3809185 L135.49843,17.4919111 L146.371348,17.4919111 L146.371348,20.8398815 L131.547941,20.8398815 L131.547941,7.00954074 L146.366993,7.00954074 L146.366993,10.3763852 L135.49843,10.3763852 Z" id="Shape" fill="#888888" mask="url(#mask-2)"></path>
                </g>
            </g>
        </g>
    </g>
</svg>