<?xml version="1.0" encoding="utf-8"?>
<!-- Generator: Adobe Illustrator 24.0.1, SVG Export Plug-In . SVG Version: 6.00 Build 0)  -->
<svg version="1.1" id="Layer_1" xmlns="http://www.w3.org/2000/svg" xmlns:xlink="http://www.w3.org/1999/xlink" x="0px" y="0px"
	 viewBox="0 0 132 20" style="enable-background:new 0 0 132 20;" xml:space="preserve">
<style type="text/css">
	.st0{fill:#888888;}
	.st1{fill-rule:evenodd;clip-rule:evenodd;fill:#888888;}
</style>
<title>Group 26</title>
<desc>Created with Sketch.</desc>
<g>
	<path id="path2993" class="st0" d="M20.7,8.6l4.9-8.1h5.9l-8.9,14.7h5.8v4.4H15c-4.3,0-7.8-1.8-9.7-5.3C3.7,10.8,3.9,6.8,6.2,3.9
		c4.2-5.3,11.6-5.1,15.9-0.5l-2.5,4.2C15,1.8,9.3,5.5,9.1,9.5c-0.3,4.9,6.2,7.9,9.6,3.1h-4.7v-4L20.7,8.6L20.7,8.6z"/>
	<g>
		<path class="st0" d="M73.1-0.1c-5.6,0-10.1,4.5-10.1,10s4.5,10,10.1,10c5.6,0,10.1-4.5,10.1-10C83.2,4.4,78.7-0.1,73.1-0.1z
			 M73.1,15.2c-2.8,0-5-2.3-5-5.2c0-2.9,2.3-5.2,5-5.2c2.8,0,5.2,2.3,5.2,5.2S75.9,15.2,73.1,15.2z"/>
	</g>
	<path id="path3009" class="st0" d="M92.6,14.4c-0.4,2.1-3.9,2.2-3.9-1.2h-5c-0.1,4.7,2.5,6.9,7.8,6.8c4-0.4,6-2.6,6-6.5
		c-0.2-2.1-1.4-3.6-3.3-4.4C91.6,8,90,7.2,89.4,6.8c-1.9-2.3,2.7-4.3,3.1-0.8h4.9c0-5.2-5.8-7.2-9.8-5.3c-4.7,1.9-5,8.1,0.8,10.4
		C91.4,12.1,93,13.1,92.6,14.4L92.6,14.4z"/>
	<polygon id="polygon3015" class="st0" points="118.9,19.5 118.9,4.6 115.1,4.6 115.1,0.4 127.7,0.4 127.7,4.6 123.9,4.6 
		123.9,19.6 	"/>
	<path id="path3017" class="st1" d="M22.6,15.2l8.9-14.7h-5.9l-4.9,8.1h-6.8v4h4.7c-3.3,4.8-9.8,1.8-9.6-3.1c0.2-4,5.9-7.7,10.5-1.9
		l2.5-4.2C17.8-1.2,10.4-1.4,6.2,3.9c-2.3,2.9-2.5,6.9-0.8,10.4c1.9,3.5,5.4,5.3,9.7,5.3h13.3v-4.4L22.6,15.2L22.6,15.2z"/>
	<path id="path3025" class="st1" d="M87.6,0.7c-4.7,1.9-5,8.1,0.8,10.4c3,1,4.6,2,4.2,3.3c-0.4,2.1-3.9,2.2-3.9-1.2h-5
		c-0.1,4.7,2.5,6.9,7.8,6.8c4-0.4,6-2.6,6-6.5c-0.2-2.1-1.4-3.6-3.3-4.4C91.6,8,90,7.2,89.4,6.8c-1.9-2.3,2.7-4.3,3.1-0.8h4.9
		C97.4,0.8,91.6-1.3,87.6,0.7L87.6,0.7z"/>
	<polygon id="polygon3029" class="st1" points="115.1,0.4 115.1,4.6 118.9,4.6 118.9,19.5 123.9,19.6 123.9,4.6 127.7,4.6 
		127.7,0.4 	"/>
	<path id="path3019" class="st1" d="M38.5-0.1c-5.6,0-10.1,4.5-10.1,10c0,5.5,4.5,10,10.1,10s10.1-4.5,10.1-10
		C48.6,4.4,44.1-0.1,38.5-0.1z M33.4,10c0-2.9,2.3-5.2,5-5.2s5.2,2.3,5.2,5.2c0,2.9-2.4,5.2-5.2,5.2C35.7,15.2,33.4,12.9,33.4,10
		L33.4,10z"/>
	<path id="path3021" class="st1" d="M49.5,0.5l0,19h7.3c6.2-0.1,7.6-7.2,3.3-10.2c3.6-2.2,1.8-9-4-8.8H49.5z M54.4,11.5l1.4,0
		c2.6,0,2.7,3.8,0,3.8h-1.4V11.5z M54.4,7.9V4.6l1.2,0c2.2,0,2.3,3.3,0,3.2L54.4,7.9L54.4,7.9z"/>
	<path id="path3027" class="st1" d="M107.5,0.5L96,19.5l5.8,0l1.6-2.6l5.9,0l0,2.7h5l0-19L107.5,0.5z M105.5,13.3l3.7-6v6
		L105.5,13.3L105.5,13.3z"/>
</g>
</svg>
