<?xml version="1.0" encoding="UTF-8"?>
<svg width="94px" height="47px" viewBox="0 0 94 47" version="1.1" xmlns="http://www.w3.org/2000/svg" xmlns:xlink="http://www.w3.org/1999/xlink">
    <!-- Generator: Sketch 61 (89581) - https://sketch.com -->
    <title>Group 28</title>
    <desc>Created with Sketch.</desc>
    <g id="nov2019_the-final-count-down" stroke="none" stroke-width="1" fill="none" fill-rule="evenodd">
        <g id="Desktop-HD-Home-opt-A-Copy" transform="translate(-718.000000, -3610.000000)" fill="#888888">
            <g id="Group-28" transform="translate(718.000000, 3610.000000)">
                <g id="Group-15">
                    <path d="M23.7836377,0.00116715621 C21.9738214,0.0323012464 20.0667306,0.424071882 18.2773931,1.19723512 C16.4957351,1.97039836 14.8369501,3.09641462 13.3701541,4.41182994 C11.9110377,5.73762328 10.6259913,7.2294651 9.4996558,8.82249271 C8.36820061,10.4181148 7.3800972,12.1019502 6.52766602,13.8013526 C5.66755528,15.4929715 4.95079633,17.218319 4.31339284,18.8995599 C3.67342949,20.5808008 3.1512194,22.2257185 2.6955655,23.8005846 C2.23735174,25.3754507 1.87129271,26.8776705 1.5589906,28.2709211 C0.939506076,31.0548276 0.558087921,33.4054514 0.322581409,35.0529637 C0.20994786,35.8728281 0.130592405,36.5110769 0.0819551908,36.9547377 C0.0281982697,37.3983985 0.00259973579,37.6422822 0.00259973579,37.6422822 C-0.0178790913,37.7953582 0.0845150442,37.9328671 0.243225954,37.9562176 C0.401936864,37.9873517 0.560647774,37.8783824 0.581126601,37.7201174 C0.581126601,37.7201174 0.632323669,37.4918008 0.701439711,37.053329 C0.767995899,36.6148572 0.880629448,35.9636359 1.02142138,35.151555 C1.32860379,33.5299878 1.76889857,31.2286596 2.49589694,28.5070212 C2.85939612,27.1423103 3.30481061,25.66863 3.81422143,24.1326816 C4.3210724,22.6071112 4.89703941,21.011489 5.58819983,19.3899218 C6.27424054,17.7761382 7.04987611,16.1312204 7.94326494,14.5278147 C8.83409392,12.9218146 9.84523601,11.344354 10.9766912,9.88105178 C12.097907,8.41256053 13.3496753,7.07120014 14.7268764,5.92183331 C16.096398,4.78284451 17.6067115,3.85141631 19.1554228,3.25467958 C20.6964545,2.65794285 22.2886833,2.42443718 23.7836377,2.45297676 C25.2760322,2.49189437 26.6890713,2.79026274 27.93316,3.23651803 C29.1849284,3.68536783 30.2651865,4.25875399 31.2046527,4.82435663 C32.141559,5.39774279 32.9351136,5.93999486 33.5597178,6.43035678 C33.6390732,6.49003046 33.7030696,6.54710962 33.7773053,6.60678329 C33.7184287,6.63272837 33.6544324,6.64051189 33.5981156,6.66645697 C32.9043953,6.94147476 32.2490729,7.28913877 31.6039898,7.66534236 C30.9589068,8.03376243 30.3368624,8.45407265 29.7480961,8.90032794 C29.1644495,9.34917774 28.5987219,9.84732318 28.073952,10.3532521 C27.5440623,10.8539921 27.0448909,11.3625156 26.5764378,11.9021731 C25.629292,12.9788938 24.8152586,14.1256661 24.0831406,15.2542768 C22.6342635,17.5244709 21.5975229,19.7816925 20.8500457,21.7820578 C20.1076882,23.7850176 19.6673935,25.5233376 19.4754045,26.7609177 C19.3755702,27.3784105 19.326933,27.8506108 19.3141337,28.1930858 C19.3038943,28.3695123 19.3141337,28.3824849 19.3141337,28.4655091 L19.3141337,28.5641004 C19.3141337,28.7042038 19.4318869,28.8105786 19.5752387,28.8183621 C19.7211504,28.8261457 19.8491431,28.7197709 19.8542628,28.5848565 C19.8542628,28.5848565 19.8491431,28.5277773 19.8542628,28.4473476 C19.8593825,28.3617288 19.8568226,28.3850794 19.8721817,28.2320035 C19.9029,27.9206625 19.9668963,27.4536512 20.0923291,26.859509 C20.3329553,25.6816026 20.8295669,24.0107397 21.64872,22.0959932 C22.4653132,20.1890301 23.5942086,18.0174274 25.0994023,15.9003092 C25.8468795,14.8417502 26.6967509,13.7987581 27.6336572,12.8232233 C28.0995505,12.3328614 28.5705635,11.8762281 29.0902138,11.4299728 C29.6047443,10.9837175 30.1448734,10.5582182 30.7054813,10.1768256 C31.2609695,9.78764951 31.844616,9.42441846 32.4410619,9.11826657 C33.032388,8.80692567 33.6339535,8.54747492 34.2585578,8.33213079 C34.5631803,8.21797246 34.8857218,8.13235371 35.1954641,8.03895144 C35.26714,8.02078989 35.3234568,7.99743932 35.3951327,7.97927777 C35.6383187,7.92219861 35.8866245,7.86252493 36.1323704,7.82360732 C36.4446726,7.76393365 36.7595345,7.73020505 37.0692768,7.68609842 C37.222868,7.66534236 37.3738993,7.6445863 37.5300504,7.62642475 C37.6478037,7.61604672 37.7629971,7.61345221 37.8884299,7.6082632 L38.008743,7.6082632 C38.6205479,7.57194009 39.2323529,7.63680278 39.823679,7.68609842 C40.4098855,7.76393365 40.9704934,7.85733592 41.518302,8.00003383 C42.6267185,8.27245712 43.6455401,8.65644423 44.5517282,9.07675445 C45.463036,9.50225368 46.2693899,9.95369799 46.96567,10.3921698 C47.3086903,10.6178919 47.6312319,10.8254525 47.9230552,11.0382021 C48.2123186,11.2457627 48.483663,11.4429453 48.7217294,11.6271553 C48.9495564,11.8061764 49.1748235,11.9566578 49.3591329,12.0967612 C49.5383226,12.2394591 49.6765547,12.3639955 49.7994277,12.4703703 C50.0502933,12.6727419 50.196205,12.7843057 50.196205,12.7843057 L50.2166838,12.8232233 C50.2294831,12.8336013 50.2602013,12.8336013 50.2781203,12.8413849 C50.8668865,13.2798566 51.7039586,13.1682928 52.1519329,12.5871231 C52.5973474,12.0085479 52.482154,11.1860891 51.8933878,10.7450228 C51.8933878,10.7450228 51.7295571,10.6412425 51.453093,10.4310874 C51.312301,10.3324961 51.1535901,10.2105542 50.9564814,10.0574783 C50.7491333,9.91478038 50.5059472,9.75132641 50.2371626,9.56711637 C49.9760576,9.38031183 49.6688752,9.18572377 49.3386541,8.98075767 C49.0161125,8.76541355 48.6500535,8.56304196 48.2609558,8.33213079 C47.4674012,7.8858755 46.5560934,7.4032971 45.5091134,6.98039238 C44.4672531,6.54970413 43.2846008,6.15793349 41.9969946,5.90107725 C41.3519115,5.77135187 40.696589,5.69351665 40.0028688,5.64681551 C39.3117084,5.61308692 38.6077487,5.59751987 37.8884299,5.66757157 C37.7143598,5.68054411 37.5402898,5.68573313 37.3687796,5.70648919 C37.2791848,5.63124847 37.1435125,5.51449563 36.9515235,5.35363616 C36.7723338,5.20315473 36.5445068,5.02672822 36.2731624,4.82435663 C35.9992581,4.61939054 35.6997552,4.38588486 35.3336962,4.13681214 C34.6271767,3.62050514 33.7184287,3.03155194 32.6407304,2.4322207 C31.5527927,1.83029496 30.2549471,1.23874724 28.7702321,0.766546874 C27.288077,0.307319043 25.5934541,-0.0221834114 23.7836377,0.00116715621 Z" id="Path"></path>
                    <path d="M87.0307766,18.9807692 C86.2561189,18.9807692 85.1584683,19.2915186 84.5755056,19.5686034 L84.2892761,19.705851 L84.4730932,20.4879035 C83.3806946,22.4792887 71.4745997,44.565797 71.3564316,44.7910902 C70.9100187,45.5291199 70.5975296,46.1195436 70.5975296,46.1195436 C70.4793615,46.3163515 70.4714836,46.4976219 70.5581402,46.6296904 C70.6474228,46.7824755 70.8443697,46.8446253 71.1699885,46.8446253 L73.4624501,46.8446253 C74.2686193,46.8446253 74.415673,46.6529966 74.6493833,46.2567912 L78.6828552,38.5476184 L84.0634437,38.5476184 C85.3107739,38.519133 86.4320581,37.3098002 86.4583177,35.9450928 L86.4583177,35.5540665 L80.3398349,35.5540665 L85.8858588,25.0274332 L89.9981095,45.8269213 C90.2265678,46.8472149 90.3263543,47 90.8778055,47 C91.3846154,47 92.419243,46.7255048 93.1702671,46.5131594 L93.5405272,46.3940388 C93.8792758,46.2956349 94.0447112,46.0755208 93.9895661,45.8087943 L88.5249469,20.3325288 C88.1809463,19.1283752 87.511327,18.9807692 87.0307766,18.9807692 L87.0307766,18.9807692 Z" id="Path"></path>
                    <path d="M64.4855041,18.9807692 C62.5093746,18.9807692 59.3552169,19.4394636 58.3250797,19.8022728 L58.286832,19.8230047 C57.6442711,20.2765161 57.1445016,21.3545775 57.073106,21.9558041 C57.0756558,22.1138852 57.1980483,22.2901068 57.432634,22.2901068 C57.4606823,22.2901068 57.6723194,22.2616004 57.9681014,22.2305024 L58.0088989,22.2305024 C58.3250797,22.201996 58.7177557,22.1423916 59.041586,22.1138852 C58.7203056,23.8424116 58.0598958,28.2142616 57.3331901,32.824529 C56.481542,38.3210873 55.5814469,43.9860927 55.1454235,46.3158456 C55.1122755,46.4946587 55.1581727,46.6449654 55.2448674,46.7667656 C55.382559,46.9533531 55.6196946,46.989634 55.7216883,47 L55.7420871,47 L58.2664332,47 C58.7662028,47 59.0492355,46.6320079 59.1410299,46.2951137 C59.1716281,46.0826112 62.3767827,25.1174265 62.9555974,21.7614421 C63.3202252,21.7381186 63.9729854,21.7407101 64.2662175,21.7407101 C66.1429031,21.7407101 67.6626105,22.2849238 68.6595997,23.3085638 C69.6157914,24.29074 70.1002619,25.6823722 70.0314161,27.3616601 C69.852927,31.7516506 67.6957585,33.9803352 63.6313062,33.9803352 C63.060141,33.9803352 62.6521659,33.9440543 62.2416409,33.7833817 C61.9866565,33.6719475 61.8362156,33.7859732 61.8234664,34.0580801 C61.7673698,34.8899496 62.0657016,35.6622147 62.6190179,36.1338666 C63.1009385,36.5381396 63.5675601,36.6625313 64.7047908,36.6625313 C68.3383193,36.6625313 73.8332344,34.2161612 74.1035179,27.4394049 C74.2131612,24.9515709 73.5629508,22.9483462 72.1554366,21.5048842 C70.5286358,19.8333707 67.9405436,18.9807692 64.4855041,18.9807692 Z" id="Path"></path>
                    <path d="M44.8297316,18.9807692 C33.0314962,18.9807692 28.3282301,28.0620599 28.0452328,34.1663884 C27.8423763,37.9861318 28.8291104,41.1783273 30.9127725,43.39549 C33.111637,45.7345317 36.5101098,46.9818478 40.7300263,47 L40.9078389,47 C43.3270907,47 45.5910696,46.6732602 48.2056648,45.9419855 L48.4210433,45.8849357 L48.4786446,45.648957 C48.593847,45.0136297 48.8067212,43.7974317 49.0646745,42.3763731 C49.6381825,39.2334478 50.3544413,35.2970117 50.5297494,34.4205193 C50.564811,34.1326772 50.5823418,33.7644467 50.3544413,33.499943 C50.184142,33.2950824 49.916171,33.2121009 49.5530328,33.2069145 C49.2975839,33.2069145 48.0253479,33.3313868 47.7974474,33.3625049 C46.3974869,33.559586 44.5166814,34.0471025 44.4991506,34.0496957 L44.4590802,34.0678479 C43.7503345,34.5812961 43.0891726,36.4146691 43.0140405,36.9307105 C43.0015185,37.013692 42.9940053,37.0759282 43.0340757,37.1251984 C43.1192254,37.239298 43.2619763,37.3222796 43.4247624,37.3222796 L44.0683935,37.2444844 C44.526699,37.2004005 45.6912457,37.0188784 46.1370292,36.9488627 C46.1194984,37.0422169 46.1069764,37.164096 46.0794279,37.3222796 C45.8590406,38.6811021 45.3306119,41.8499591 44.9274032,43.7870591 C44.3213381,43.9763607 42.9589437,44.2382711 41.7267781,44.2382711 C38.7891152,44.2201189 36.3773765,43.320288 34.777064,41.6321326 C33.1291678,39.8765547 32.3477945,37.3404318 32.4955542,34.2856744 C32.831144,27.0585021 37.9200879,21.9992222 44.8873328,21.9992222 L44.9674737,21.9992222 C47.0887017,22.0121881 49.0170909,22.7849535 49.6507045,23.0364913 C49.916171,23.1454045 50.1816376,23.212827 50.4320777,23.212827 C51.5365188,23.212827 52.1475928,22.2196419 52.3629713,21.2938793 L52.4230769,21.0579005 L52.2477688,20.9023102 C50.9630109,19.7898391 47.9627379,18.9963283 44.9474385,18.9807692 L44.8297316,18.9807692 Z" id="Path"></path>
                </g>
            </g>
        </g>
    </g>
</svg>