<?xml version="1.0" encoding="UTF-8"?>
<svg width="147px" height="28px" viewBox="0 0 147 28" version="1.1" xmlns="http://www.w3.org/2000/svg" xmlns:xlink="http://www.w3.org/1999/xlink">
    <!-- Generator: Sketch 62 (91390) - https://sketch.com -->
    <title>Anheuser-Busch_InBev_text_logo</title>
    <desc>Created with Sketch.</desc>
    <g id="nov2019_the-final-count-down" stroke="none" stroke-width="1" fill="none" fill-rule="evenodd">
        <g id="Desktop-HD-Home-opt-A.2" transform="translate(-1099.000000, -3784.000000)" fill="#888888" fill-rule="nonzero">
            <g id="Anheuser-Busch_InBev_text_logo" transform="translate(1099.000000, 3784.500000)">
                <path d="M140.55988,11.7045208 C144.032321,10.2975835 145.319519,8.39672142 145.319519,6.04683682 C145.319519,1.94576432 141.742306,0.119739343 135.875078,0.119739343 L125.382918,0.119739343 C126.041485,1.12255634 126.670116,2.20021043 126.670116,3.81669156 L126.670116,11.9589669 C123.586828,12.572631 120.817856,13.0964906 118.213525,13.7251222 C115.878608,7.2891325 113.274277,0.119739343 113.274277,0.119739343 L106.748483,0.119739343 C106.853255,1.01778441 106.763451,1.97569916 106.284493,3.27786451 L98.9803933,23.6335528 C98.9803933,23.6335528 98.5014359,25.0704249 97.498619,26.3576229 L102.841987,26.3576229 C102.737215,25.6541542 102.871922,24.7261743 103.051531,24.1574124 C103.590358,22.5558987 105.042198,21.4932121 106.583842,20.8047108 C108.589476,19.8916983 112.076884,18.7990768 113.7233,18.305152 L115.45952,23.2743348 C115.45952,23.2743348 116.162989,25.145262 115.788804,26.3576229 L123.332382,26.3576229 C122.194858,24.8159788 121.805706,23.6634876 121.805706,23.6335528 C121.626097,23.1545954 120.638247,20.4005906 119.366016,16.9281496 C121.670999,16.3743551 124.080753,15.9103652 126.670116,15.401473 L126.670116,22.6307358 C126.670116,24.0227057 126.101354,25.2500339 125.382918,26.3426554 L135.351219,26.3426554 C136.982667,26.3426554 138.434507,26.2528509 139.527128,26.0582745 C143.80781,25.3099036 146.8762,23.1246606 146.8762,18.4697936 C146.891098,14.9075482 144.496311,12.7821749 140.55988,11.7045208 M106.853255,17.122726 C106.224624,17.4220744 105.416383,17.9159992 104.952393,18.3799891 C106.389265,14.1891121 108.364964,8.42665626 109.322879,5.70258621 L112.615711,15.1021246 C110.954328,15.581082 108.394899,16.3893226 106.853255,17.122726 Z M132.492442,3.39760386 C133.525194,3.33773418 133.899379,3.33773418 134.572913,3.33773418 C137.790908,3.33773418 139.28765,4.68480179 139.28765,6.58566386 C139.28765,8.39672142 138.090256,9.51927776 136.09959,10.1179745 C135.261414,10.3724206 133.869444,10.6568015 132.492442,10.8962802 L132.492442,3.39760386 L132.492442,3.39760386 Z M134.917164,23.0947258 L132.507409,23.0947258 L132.507409,14.3537537 C133.405454,14.1442099 134.842327,13.8897638 135.785274,13.7849919 C138.688953,14.4585257 140.829294,15.6559191 140.829294,18.6194678 C140.814326,22.0769414 138.284833,23.0947258 134.917164,23.0947258" id="Shape"></path>
                <g id="Group" transform="translate(0.134707, 0.000000)">
                    <path d="M0.134706761,26.3576229 C1.4219047,24.426826 1.4219047,22.6756381 1.4219047,22.6457032 L1.4219047,3.84662639 C1.4219047,3.81669156 1.4219047,2.08047108 0.134706761,0.134706761 L8.56136302,0.134706761 C7.27416508,2.08047108 7.27416508,3.81669156 7.27416508,3.84662639 L7.27416508,22.6457032 C7.27416508,22.6756381 7.27416508,24.426826 8.56136302,26.3576229 L0.134706761,26.3576229 Z" id="Path"></path>
                    <path d="M94.4593742,7.88782922 L88.8166576,7.88782922 C89.295615,8.66613494 89.1010386,9.90843063 88.6071138,11.1656937 L84.9550638,20.9094828 L81.1683071,11.1656937 C80.6594149,9.90843063 80.4798059,8.66613494 80.9587632,7.88782922 L73.6696307,7.88782922 C74.6724477,8.95051588 75.3010793,10.3125509 75.6602973,11.1656937 L81.9316454,26.3576229 L86.8110236,26.3576229 C86.8110236,26.3576229 86.930763,25.1153272 87.4845574,23.7233573 C87.4845574,23.7233573 87.4845574,23.7233573 87.4845574,23.7233573 L92.5285772,11.1656937 C92.8728279,10.2975835 93.5912639,8.80084171 94.4593742,7.88782922" id="Path"></path>
                    <path d="M74.4180016,17.6615531 C74.7772197,13.7999593 73.714533,7.07958865 65.1831048,7.07958865 C58.2232555,7.07958865 55.663827,11.929032 55.663827,16.6587361 C55.663827,22.6756381 58.9416916,26.8066454 66.7846185,26.8066454 C69.9726785,26.8066454 72.5470744,25.8636981 74.073751,24.9357182 L72.5021721,21.4632772 C71.0203978,22.2116481 69.2093402,22.8702145 67.1887388,22.8702145 C63.686363,22.8702145 61.5310548,21.6428862 61.0670649,18.1704453 L68.6405783,18.1704453 C71.4245181,18.1854127 73.6845982,18.0207711 74.4180016,17.6615531 M61.0820323,14.9973527 C61.4262829,12.0188365 62.7583831,10.5071273 65.1831048,10.5071273 C67.697631,10.5071273 68.9399267,12.4528917 69.0446986,14.9674179 C69.0446986,14.9674179 67.9371097,14.9973527 66.5002376,14.9973527 L61.0820323,14.9973527 Z" id="Shape"></path>
                    <path d="M22.9749864,26.3576229 L30.4437279,26.3576229 C29.3062042,24.6513372 29.3062042,23.0947258 29.3062042,23.0797583 L29.3062042,13.21623 C29.3062042,9.68391936 27.4053421,7.51364377 23.3940741,7.51364377 C20.8346457,7.51364377 18.7242398,8.66613494 17.1676283,10.0730722 L17.1676283,7.88782922 L10.8214431,7.88782922 C11.9589669,9.60908227 11.9589669,11.1507263 11.9589669,11.1656937 L11.9589669,23.0647909 C11.9589669,23.0947258 11.9589669,24.6363698 10.8214431,26.3426554 L18.305152,26.3426554 C17.1676283,24.6363698 17.1676283,23.0797583 17.1676283,23.0647909 L17.1676283,13.21623 C18.125543,12.2283804 19.4875781,11.5099443 20.9843198,11.5099443 C23.2743348,11.5099443 24.1125102,12.7821749 24.1125102,14.757874 L24.1125102,23.0647909 C24.1125102,23.0947258 24.1125102,24.6363698 22.9749864,26.3576229" id="Path"></path>
                    <path d="M42.3278577,13.9795683 C46.0098425,13.9795683 48.0304439,15.7756584 48.0304439,18.6793375 C48.0304439,21.2836682 46.4738325,23.1845303 42.2380532,23.1845303 L39.7085596,23.1845303 L39.7085596,13.9795683 L42.3278577,13.9795683 Z M41.7740633,3.30779935 C44.9920581,3.30779935 46.4887999,4.56506245 46.4887999,6.92991447 C46.4887999,9.27979908 45.1417323,10.6867364 42.0434768,10.6867364 C41.4447801,10.6867364 40.3521586,10.7017038 39.7085596,10.6867364 L39.7085596,3.30779935 L41.7740633,3.30779935 Z M42.4475971,26.3576229 C44.0790456,26.3576229 45.5907548,26.2678184 46.6833763,26.0732419 C50.8892207,25.3398384 54.0024437,23.1845303 54.0024437,18.5446307 C54.0024437,14.8177437 51.6226242,12.8869468 47.8807698,11.8092927 C51.2334714,10.5370622 52.3560277,8.7110372 52.3560277,6.33121776 C52.3560277,2.23014526 49.0182935,0.134706761 43.0013915,0.134706761 L32.9432867,0.134706761 C33.6467554,1.19739343 33.886234,2.73903747 33.886234,3.84662639 L33.886234,22.6457032 C33.886234,23.8730315 33.6617228,25.1602294 32.9432867,26.3576229 L42.4475971,26.3576229 Z" id="Shape"></path>
                </g>
            </g>
        </g>
    </g>
</svg>