<?xml version="1.0" encoding="utf-8"?>
<!-- Generator: Adobe Illustrator 24.0.1, SVG Export Plug-In . SVG Version: 6.00 Build 0)  -->
<svg version="1.1" id="Layer_1" xmlns="http://www.w3.org/2000/svg" xmlns:xlink="http://www.w3.org/1999/xlink" x="0px" y="0px"
	 viewBox="0 0 114 66" style="enable-background:new 0 0 114 66;" xml:space="preserve">
<style type="text/css">
	.st0{fill:#888888;}
</style>
<title>Group 29</title>
<desc>Created with Sketch.</desc>
<g>
	<polygon class="st0" points="14.3,65.1 99.2,65.1 57,22.9 	"/>
	<polygon class="st0" points="12.7,63 19.3,56.6 17.1,54.3 13,58.4 5.6,50.9 3.2,53.3 	"/>
	<polygon class="st0" points="20.8,55.1 27.5,48.5 25.7,46.6 21.4,50.8 19.3,48.7 22.8,45.3 20.8,43.3 17.4,46.7 15.6,44.9 
		19.8,40.8 17.9,38.9 11.1,45.5 	"/>
	<path class="st0" d="M42.9,23.8c-2.7-2.8-7.5-2.5-9.8-0.2c-2.3,2.2-3.4,6.7-0.2,10c3.5,3.6,7.8,2.3,10,0.1
		C46.4,30.3,45.2,26.1,42.9,23.8z M40.9,31.7c-1.5,1.5-3.4,1.1-5.5-1.1c-1.8-1.8-1.7-3.6-0.4-4.9c0.9-0.9,2.7-1.6,4.8,0.6
		C42.4,28.8,42.4,30.2,40.9,31.7z"/>
	<polygon class="st0" points="50.5,26.1 53,23.7 49.3,19.8 47,10.5 44.2,13.3 45.7,18.6 40.6,16.7 37.9,19.3 46.5,22.1 	"/>
	<path class="st0" d="M37.2,39.1c0,0-6.1-2.1-6.4-2c-0.1,0,1.3-3.7-1.8-5.4c0,0-2.3-1.3-4.7,0.9l-5,4.9l9.6,9.7l2.5-2.5l-5.2-5.3
		l8.4,2.2L37.2,39.1z M27.8,37.8c-1.4,1.4-1.6,1.5-1.6,1.5S24,37,23.9,36.9c-0.1-0.1,1.6-1.5,1.8-1.8c0.1-0.1,1.1-0.8,2,0.1
		C27.8,35.3,29.2,36.4,27.8,37.8z"/>
	<polygon class="st0" points="49.8,12.3 47.6,10.1 57.2,0.4 60.4,3.6 56.9,10.5 64,7.3 67.1,10.4 57.4,20 55.1,17.6 60.2,12.6 
		53.2,15.7 51.7,14.3 55,7.3 	"/>
	<polygon class="st0" points="66.6,29.3 59.9,22.5 69.6,12.9 76.3,19.7 74.4,21.6 70.1,17.4 68.6,18.9 71.9,22.3 69.8,24.3 66.5,21 
		64.4,23.1 68.6,27.3 	"/>
	<polygon class="st0" points="88.8,32.2 91.3,34.7 83.9,42 88,46.2 85.7,48.5 79.1,41.8 	"/>
	<polygon class="st0" points="87.4,50.3 97.1,40.6 99.5,43.1 89.9,52.7 	"/>
	<polygon class="st0" points="94.3,57.2 92,54.9 101.7,45.3 105,48.6 102.2,58.6 108.6,52.2 110.8,54.5 101.1,64.1 98.2,61.1 
		100.7,50.7 	"/>
	<path class="st0" d="M84.4,27.8l-5.9-5.9l-9.7,9.6l2.5,2.5l5.3-5.3l-1.9,8.7l2.6,2.6c0,0,2-6.2,2.1-6.5c0,0,2.2,1.2,4.6-0.9
		C83.9,32.7,86.2,30.4,84.4,27.8z M80.8,30.6c0,0-1.2,0.8-2.3-0.3l-1.7-1.8c0,0,2.1-2,2.3-2.3c0,0,1.6,1.6,1.8,1.8
		C81.1,28.3,82.3,29.2,80.8,30.6z"/>
</g>
</svg>
