<?xml version="1.0" encoding="utf-8"?>
<!-- Generator: Adobe Illustrator 24.0.1, SVG Export Plug-In . SVG Version: 6.00 Build 0)  -->
<svg version="1.1" id="Layer_1" xmlns="http://www.w3.org/2000/svg" xmlns:xlink="http://www.w3.org/1999/xlink" x="0px" y="0px"
	 viewBox="0 0 115 18" style="enable-background:new 0 0 115 18;" xml:space="preserve">
<style type="text/css">
	.st0{fill:#888888;}
</style>
<title>Group 23</title>
<desc>Created with Sketch.</desc>
<g id="g10" transform="matrix(7.8393 0 0 -7.8393 5 85.729)">
	<g id="g12" transform="scale(.1)">
		<path id="path14" class="st0" d="M16,108.3v-4.4h6.7V87.4h4.7v16.5h6.7v4.4H16z"/>
		<path id="path16" class="st0" d="M94,108.3H82.1v-4.4h11.6c1.7,0,2.4-0.8,2.4-2.8v-0.7h-9.6c-3.7,0-5.5-1.8-5.5-6v-1
			c0-4.3,1.9-6,5.7-6h14.1v13.7C100.8,106.4,99,108.3,94,108.3 M87.1,91.9c-0.7,0-1.5,0.4-1.5,2.2c0,1.8,0.8,2.1,1.5,2.1h8.9v-4.3
			L87.1,91.9z"/>
		<path id="path18" class="st0" d="M133.4,108.3h-11.9v-4.4h11.6c1.7,0,2.4-0.8,2.4-2.8v-0.7h-9.6c-3.7,0-5.5-1.8-5.5-6v-1
			c0-4.3,1.9-6,5.7-6h14.1v13.7C140.1,106.4,138.4,108.3,133.4,108.3 M126.5,91.9c-0.7,0-1.5,0.4-1.5,2.2c0,1.8,0.8,2.1,1.5,2.1h8.9
			v-4.3L126.5,91.9z"/>
		<path id="path20" class="st0" d="M35.6,108.3v-4.4h6.7V87.4h4.8v16.5h6.7v4.4H35.6z"/>
		<path id="path22" class="st0" d="M101.7,108.3v-4.4h6.7V87.4h4.7v16.5h6.7v4.4H101.7z"/>
		<path id="path24" class="st0" d="M79.1,94.8v6.2c0,5.5-2.1,7.3-6.9,7.3H59.5V87.4h12.9C77.5,87.4,79.1,90,79.1,94.8 M74.3,94.7
			c0-2-0.7-2.8-2.4-2.8h-7.6v12h7.6c1.7,0,2.4-0.8,2.4-2.8V94.7z"/>
		<path id="path26" class="st0" d="M9.3,92.4c-0.1,0.2-6.4,12.5-7.2,13.7c-0.9,1.4-2,2.4-4.1,2.4c-1.9,0-4.2-0.9-4.2-5.5V87.4h4.7
			v13c0,0.9-0.1,2.3-0.1,2.6c0,0.2,0,0.4,0.1,0.5c0.1,0.1,0.3,0,0.4-0.2c0.1-0.2,6-11.8,7.2-13.8c0.9-1.4,2-2.4,4.1-2.4
			c1.9,0,4.2,0.9,4.2,5.5v15.6H9.7v-13c0-0.9,0.1-2.3,0.1-2.6c0-0.2,0-0.4-0.1-0.5C9.5,92.1,9.4,92.2,9.3,92.4"/>
	</g>
</g>
</svg>
