<?xml version="1.0" encoding="UTF-8"?>
<svg width="107px" height="37px" viewBox="0 0 107 37" version="1.1" xmlns="http://www.w3.org/2000/svg" xmlns:xlink="http://www.w3.org/1999/xlink">
    <!-- Generator: Sketch 61 (89581) - https://sketch.com -->
    <title>Group 22</title>
    <desc>Created with Sketch.</desc>
    <g id="nov2019_the-final-count-down" stroke="none" stroke-width="1" fill="none" fill-rule="evenodd">
        <g id="Desktop-HD-Home-opt-A-Copy" transform="translate(-711.000000, -3506.000000)" fill="#888888">
            <g id="Group-22" transform="translate(711.000000, 3506.000000)">
                <path d="M62.5134705,11.7317073 L47.2301916,11.7317073 C46.4256745,15.8028894 45.0916019,22.7679527 44.4322034,26.1707317 L50.9243508,26.1707317 C51.4208092,23.6110519 52.7803412,16.5902884 53.383729,13.5166472 L58.2515666,13.5166472 C60.2985025,13.5166472 61.76751,14.7547119 61.426354,16.8814488 C61.1030196,18.5625837 60.3163241,22.6160429 59.6238284,26.1707317 L66.1185217,26.1707317 C66.5793369,23.7832164 67.4780538,19.1525 67.9006799,16.9725947 C68.4786083,14.0154176 66.7397311,11.7317073 62.5134705,11.7317073" id="Fill-62"></path>
                <path d="M27.8915971,23.2319033 C24.7860536,22.775139 25.3652309,19.4506217 25.3652309,19.4506217 C28.1222197,19.7464804 31.5972835,19.6790039 33.9716484,19.4661932 C36.0262864,19.2845256 40.0831482,18.8277614 41.2415028,15.9989371 C42.3893745,13.1934701 41.5166775,10.9252202 37.7323697,10.2919788 C34.9491738,9.8326193 32.3625313,9.80666679 28.9818132,10.2141213 C24.1570828,10.7928624 21.5023018,12.253989 20.3229815,14.8206929 C19.6756657,16.2377003 19.2851796,17.916828 19.1122127,19.4454312 C18.8055894,22.2197552 19.3900081,24.765697 23.2739029,25.0433889 C28.4786365,25.4171052 32.574809,25.3340571 36.912087,24.7267682 L38.2643742,23.0009259 C34.147236,23.6134053 29.456162,23.465476 27.8915971,23.2319033 M26.5838619,14.986789 C27.4120068,13.2220179 28.6332585,12.1138455 30.9132777,11.6467002 C31.9222518,11.4364848 32.7844659,11.4416753 33.9926141,11.6752479 C35.7825602,12.0178212 36.3329097,13.8864023 35.5440754,15.3423385 C34.666137,16.9721565 33.4920581,17.3354917 31.956321,17.6157789 C30.2895483,17.9246138 28.0960126,17.9687331 25.682337,17.8208037 C25.8526833,16.9176562 26.2746179,15.6459829 26.5838619,14.986789" id="Fill-64"></path>
                <path d="M93.1811817,23.2319033 C90.0751325,22.775139 90.6544041,19.4506217 90.6544041,19.4506217 C93.4144631,19.7464804 96.8874717,19.6790039 99.2622233,19.4661932 C101.317196,19.2845256 105.374718,18.8277614 106.530641,15.9989371 C107.676078,13.1934701 106.80586,10.9252202 103.023557,10.2919788 C100.234666,9.8326193 97.6476019,9.80666679 94.2689543,10.2141213 C89.4434381,10.7928624 86.793467,12.253989 85.6113335,14.8206929 C84.95867,16.2377003 84.5681203,17.916828 84.4003675,19.4454312 C84.0936942,22.2197552 84.6782081,24.765697 88.5601144,25.0433889 C93.7656957,25.4171052 97.8625353,25.3340571 102.208383,24.7267682 L103.555648,23.0009259 C99.4378396,23.6134053 94.7512438,23.465476 93.1811817,23.2319033 M91.8784759,14.986789 C92.7015134,13.2220179 93.9203428,12.1138455 96.1981123,11.6467002 C97.2098718,11.4364848 98.0748475,11.4416753 99.2805713,11.6752479 C101.07343,12.0178212 101.618627,13.8864023 100.840149,15.3423385 C99.956825,16.9721565 98.7877972,17.3354917 97.2491888,17.6157789 C95.5821447,17.9246138 93.3908728,17.9687331 90.9768042,17.8208037 C91.1393148,16.9176562 91.5639392,15.6459829 91.8784759,14.986789" id="Fill-66"></path>
                <path d="M8.16361582,16.7105745 C8.49920904,14.9792388 9.17785311,13.9767557 11.2585311,13.6359612 C13.120452,13.3299924 16.5683616,13.531484 18.5893785,13.7354632 L19.9491525,11.9792521 C16.8840678,11.780248 11.7084746,11.5513932 8.64090395,11.9543765 C4.26576271,12.5290009 2.48338983,13.3349675 1.98870056,15.864807 C1.69536723,17.3797257 0.372881356,24.2254667 -6.03961325e-14,26.1707317 L6.33898305,26.1707317 C6.7740113,23.9120352 7.85536723,18.3125574 8.16361582,16.7105745" id="Fill-68"></path>
                <path d="M79.6198185,2.03388722 C75.8525953,4.41588212 74.5734553,7.34018304 73.8792879,10.9313388 L71.0688198,25.4282946 C70.4396494,28.7262418 70.1588625,30.4465715 69.5374917,32.0657052 C69.0383151,33.4227677 67.3977921,35.4155477 64.6679203,35.4492797 L63.4745763,36.9827862 C66.9974109,37.1384721 69.8156786,36.2199251 71.8071852,34.9640585 C75.5770082,32.5846584 76.9653431,29.177731 77.6647102,25.5943596 C77.711508,25.3478569 78.9360506,19.0036548 79.523623,15.9963214 C79.950003,13.863424 81.1927446,12.6931846 83.805622,12.6594527 L85.019765,11.1025933 L80.4699786,11.1025933 C81.1173482,7.77610368 81.3487373,6.33860349 81.8791124,4.95559338 C82.399088,3.59853093 84.0214119,1.60575089 86.7434841,1.57720846 L87.9576271,0.0177542872 C84.4269928,-0.140526419 81.611325,0.778020632 79.6198185,2.03388722" id="Fill-70"></path>
            </g>
        </g>
    </g>
</svg>