<?xml version="1.0" encoding="UTF-8"?>
<svg width="164px" height="27px" viewBox="0 0 164 27" version="1.1" xmlns="http://www.w3.org/2000/svg" xmlns:xlink="http://www.w3.org/1999/xlink">
    <!-- Generator: Sketch 61 (89581) - https://sketch.com -->
    <title>Fill 109</title>
    <desc>Created with Sketch.</desc>
    <g id="nov2019_the-final-count-down" stroke="none" stroke-width="1" fill="none" fill-rule="evenodd">
        <g id="Desktop-HD-Home-opt-A-Copy" transform="translate(-448.000000, -3747.000000)" fill="#888888">
            <g id="Fill-109" transform="translate(448.000000, 3747.000000)">
                <path d="M21.6314339,12.426383 C21.5637054,11.4510638 21.2875816,10.4757447 20.7379389,9.62808511 L16.0698838,1.88680851 C15.7260316,1.30212766 15.4525127,0.65106383 15.3144508,0 L15.1086604,0.324255319 C13.9416467,2.21106383 13.9416467,4.6187234 15.1086604,6.50553191 L18.8858256,12.6868085 C20.0528393,14.573617 20.0528393,16.9812766 18.8858256,18.8680851 L18.6800352,19.1923404 C18.5419733,18.5412766 18.2658495,17.8902128 17.9246022,17.3055319 L14.4912893,11.6451064 L12.2927187,8.00170213 C11.9488665,7.41702128 11.6753476,6.76595745 11.5372857,6.11489362 L11.3314953,6.44170213 C10.1644816,8.32851064 10.1644816,10.6697872 11.3314953,12.6204255 L15.1086604,18.8017021 C16.2756742,20.6885106 16.2756742,23.0961702 15.1086604,24.9829787 L14.9028701,25.307234 C14.7648082,24.6587234 14.4912893,24.0076596 14.147437,23.4204255 L9.40904854,15.6791489 C8.79167741,14.6374468 8.51555362,13.4680851 8.51555362,12.2961702 C3.50364626,13.5319149 -9.9475983e-14,16.2 -9.9475983e-14,19.2587234 C-9.9475983e-14,23.5506383 6.73116872,27 15.038327,27 C23.3480903,27 30.0766541,23.5506383 30.0766541,19.2587234 C30.1469875,16.3302128 26.7136746,13.6621277 21.6314339,12.426383 M35.8465994,25.6340426 C35.9143279,24.5285106 36.0523898,23.8110638 36.396242,22.9021277 C37.9748365,23.6170213 40.0353452,23.9412766 41.5462113,23.9412766 C44.1537577,23.9412766 45.6646237,23.16 45.6646237,21.533617 C45.6646237,19.973617 44.5653384,19.2587234 41.957792,18.1506383 L40.5146545,17.6323404 C37.8367747,16.5242553 36.0523898,15.0944681 36.0523898,12.2961702 C36.0523898,9.23744681 38.3186888,7.28680851 42.848682,7.28680851 C44.7034003,7.28680851 46.4200568,7.54723404 47.9986513,8.06808511 C47.9309228,9.10723404 47.7251324,9.95489362 47.4516136,10.733617 C45.9407475,10.2153191 44.0860292,9.95489362 42.7809535,9.95489362 C40.3088641,9.95489362 39.2095788,10.8638298 39.2095788,12.2961702 C39.2095788,13.6621277 40.3088641,14.507234 42.3016443,15.2885106 L43.8099054,15.8757447 C47.3812801,17.3055319 48.8921462,18.8680851 48.8921462,21.4697872 C48.8921462,24.5285106 46.4200568,26.6757447 41.6139398,26.6757447 C39.3476407,26.6757447 37.4251939,26.3489362 35.8465994,25.6340426 M64.0685351,12.8170213 L64.0685351,26.2187234 L61.1848649,26.2187234 L61.046803,24.5923404 C60.2236415,25.7642553 59.0540228,26.5455319 57.0638475,26.5455319 C53.3570158,26.5455319 50.814593,23.9412766 50.814593,19.452766 C50.814593,14.7676596 53.4924728,12.0357447 58.7127755,12.0357447 C60.7706792,12.1021277 62.4873357,12.2961702 64.0685351,12.8170213 M60.9790745,23.16 L60.9790745,14.7676596 C60.3590985,14.6374468 59.6036655,14.6374468 58.7127755,14.6374468 C55.485253,14.6374468 53.974387,16.5242553 53.974387,19.5165957 C53.974387,22.2510638 55.1414007,24.2017021 57.887009,24.2017021 C59.1920847,24.1378723 60.1533081,23.747234 60.9790745,23.16 M79.9977521,17.2417021 L79.9977521,26.2187234 L76.9082916,26.2187234 L76.9082916,17.76 C76.9082916,15.6153191 76.1528585,14.6374468 73.063398,14.6374468 C72.3079649,14.6374468 71.4848034,14.7038298 70.5913085,14.8340426 L70.5913085,26.2187234 L67.501848,26.2187234 L67.501848,12.8170213 C69.4920232,12.36 71.6905938,12.0357447 73.1311264,12.0357447 C78.3514291,12.1021277 79.9977521,13.9889362 79.9977521,17.2417021 M88.6513676,24.0714894 C89.5422576,24.0714894 90.4357525,23.9412766 91.0531237,23.6808511 C90.9853952,24.4621277 90.8473333,25.373617 90.7118763,26.1548936 C89.8861099,26.4791489 88.9248865,26.6093617 88.101725,26.6093617 C85.0799929,26.6093617 83.1575461,25.307234 83.1575461,22.0544681 L83.1575461,7.93787234 C84.1187695,7.61106383 85.2857833,7.48085106 86.2470067,7.48085106 L86.2470067,12.5565957 L91.1911856,12.5565957 C91.1234571,13.4680851 91.0531237,14.3131915 90.9176667,15.0944681 L86.2470067,15.0944681 L86.2470067,21.6638298 C86.2470067,23.3565957 87.1405016,24.0714894 88.6513676,24.0714894 M105.336018,12.8170213 L105.336018,26.2187234 L102.452347,26.2187234 L102.316891,24.5923404 C101.491124,25.7642553 100.32411,26.5455319 98.333935,26.5455319 C94.6244984,26.5455319 92.0846805,23.9412766 92.0846805,19.452766 C92.0846805,14.7676596 94.7625603,12.0357447 99.980258,12.0357447 C102.040767,12.1021277 103.689695,12.2961702 105.336018,12.8170213 M102.178829,23.16 L102.178829,14.7676596 C101.561457,14.6374468 100.806024,14.6374468 99.9125296,14.6374468 C96.6850071,14.6374468 95.174141,16.5242553 95.174141,19.5165957 C95.174141,22.2510638 96.3411548,24.2017021 99.0893681,24.2017021 C100.391839,24.1378723 101.423396,23.747234 102.178829,23.16 M121.26784,17.2417021 L121.26784,26.2187234 L118.108046,26.2187234 L118.108046,17.76 C118.108046,15.6153191 117.352613,14.6374468 114.263152,14.6374468 C113.507719,14.6374468 112.684558,14.7038298 111.791063,14.8340426 L111.791063,26.2187234 L108.701602,26.2187234 L108.701602,12.8170213 C110.694382,12.36 112.890348,12.0357447 114.333485,12.0357447 C119.551183,12.1021277 121.26784,13.9889362 121.26784,17.2417021 M136.993871,7.48085106 L136.993871,26.2187234 L134.107596,26.2187234 L133.972139,24.5285106 C133.146373,25.7642553 131.979359,26.5455319 129.91885,26.5455319 C126.212018,26.5455319 123.672201,23.9412766 123.672201,19.452766 C123.672201,14.7676596 126.35008,12.0357447 131.567778,12.0357447 C132.39094,12.0357447 133.146373,12.1021277 133.901806,12.2323404 L133.901806,7.80765957 C134.863029,7.54723404 135.962314,7.48085106 136.993871,7.48085106 M133.901806,23.16 L133.901806,14.8978723 C133.078644,14.7676596 132.255483,14.6374468 131.429716,14.6374468 C128.340256,14.6374468 126.899723,16.4604255 126.899723,19.5165957 C126.899723,22.2510638 128.066737,24.2017021 130.812345,24.2017021 C132.049692,24.1378723 133.078644,23.747234 133.901806,23.16 M152.649569,20.4944681 L142.693483,20.4944681 C143.105064,22.9021277 144.545596,24.0076596 147.361538,24.0076596 C149.078195,24.0076596 150.794851,23.6808511 152.305717,22.9659574 C152.167655,23.747234 152.032198,24.7889362 151.823803,25.6340426 C150.38327,26.2187234 148.940133,26.4791489 147.223476,26.4791489 C142.005779,26.4791489 139.533689,23.747234 139.533689,19.1923404 C139.533689,15.2246809 141.456136,12.0357447 146.400315,12.0357447 C150.862579,12.0357447 152.787631,14.7676596 152.787631,18.1506383 C152.785026,19.0621277 152.785026,19.7131915 152.649569,20.4944681 M142.693483,18.0204255 L149.695566,18.0204255 C149.695566,15.8093617 148.460823,14.507234 146.332586,14.507234 C144.066287,14.573617 142.899273,15.7455319 142.693483,18.0204255 M163.566879,12.2323404 C163.566879,13.1412766 163.428817,14.1829787 163.29336,14.7676596 C162.537927,14.7038298 161.850223,14.6374468 160.956728,14.6374468 C160.201295,14.6374468 159.445862,14.7038298 158.690429,14.7676596 L158.690429,26.2187234 L155.600968,26.2187234 L155.600968,12.8170213 C156.906044,12.36 159.172343,12.0357447 160.888999,12.0357447 C161.782494,12.1021277 162.879174,12.1021277 163.566879,12.2323404" id="Fill-108"></path>
            </g>
        </g>
    </g>
</svg>