<?xml version="1.0" encoding="UTF-8"?>
<svg width="164px" height="36px" viewBox="0 0 164 36" version="1.1" xmlns="http://www.w3.org/2000/svg" xmlns:xlink="http://www.w3.org/1999/xlink">
    <!-- Generator: Sketch 62 (91390) - https://sketch.com -->
    <title>Group 10</title>
    <desc>Created with Sketch.</desc>
    <g id="nov2019_the-final-count-down" stroke="none" stroke-width="1" fill="none" fill-rule="evenodd">
        <g id="Desktop-HD-Home-opt-A.2" transform="translate(-449.000000, -3875.000000)" fill="#888888">
            <g id="Group-10" transform="translate(449.139196, 3875.360672)">
                <path d="M8.20736454,24.2186242 C8.46913789,24.1724289 8.43449141,24.0838879 8.69818957,24.0838879 C8.92339165,24.0838879 8.89066998,24.289842 9.11587205,24.289842 C9.21981147,24.289842 9.39689345,24.1512561 9.50083287,24.1512561 C9.83189917,24.1512561 9.93776339,24.230173 10.059026,24.3552853 L10.3400474,24.2917668 C10.6537905,24.515044 10.7230834,24.692126 10.9348119,24.9404257 C11.1080443,25.1406054 11.248555,25.173327 11.3197727,25.3138377 C11.5642228,25.7199714 11.5468996,26.0799097 11.8105977,26.4398481 L11.9472588,27.2925363 C12.0877695,27.6543995 12.0531231,27.7698877 12.0531231,28.2145175 C12.0531231,28.6071775 12.4034374,28.1817958 12.2263554,29.0672057 C12.1840097,29.2847085 12.1050928,29.338603 12.0531231,29.4425425 L12.0184766,30.0199837 C11.8433194,30.8091533 11.3197727,32.2777788 10.6903618,32.345147 C10.6557153,32.3509214 10.0243796,32.8051752 9.9916579,32.8917913 C9.81650073,33.3190978 9.39689345,33.3537443 9.01000783,33.3364211 L8.59232535,33.4711574 C8.36712327,33.4365109 8.330552,33.503879 8.10150031,33.503879 C7.8570502,33.503879 7.75503558,33.3710675 7.54330713,33.3710675 C6.77338551,33.3710675 5.79366024,32.551101 5.33940648,32.2431324 C5.206595,32.1507418 5.12960283,31.8851188 5.02758822,31.7638562 C4.7812133,31.4732107 4.46747024,31.4924588 4.46747024,31.0459042 C4.46747024,30.8957695 4.53676318,30.7552588 4.53676318,30.6051241 C4.53676318,30.2971555 4.29231307,30.2971555 4.46747024,29.4771889 C4.53868799,29.142273 4.25766659,28.9844391 4.25766659,28.6937937 C4.25766659,28.5378845 4.29231307,28.4358699 4.32695954,28.2838104 C4.36160601,28.1606229 4.60798093,27.2059201 4.70999555,26.9845677 C4.86975429,26.6785238 5.1122796,26.6919974 5.27203834,26.303187 C5.36827854,26.0568121 5.33940648,25.8604821 5.86295318,25.6198816 C6.03618555,25.5428894 6.07660643,24.9692978 6.77338551,24.6247579 C7.21609044,24.4091798 7.68959224,24.2186242 8.20736454,24.2186242" id="Fill-1"></path>
                <path d="M8.79635458,17.3913442 C8.93301567,17.2912544 9.14089451,17.374021 9.34492374,17.2720063 C9.50083287,17.1950142 9.75875661,17.2373599 9.86077123,17.2046382 C10.3265738,17.0333306 10.3419722,17.0699019 10.7192338,17.0699019 C11.0233529,17.0699019 11.2985999,17.1622925 11.473757,17.2720063 C11.6989591,17.4144418 11.8779659,17.6627416 12.0223262,17.8860188 C12.1166416,18.032304 12.2398291,18.2844533 12.3341445,18.4326632 C12.5035272,18.7117598 12.6228651,19.8319958 12.4708055,19.9725064 C12.0916191,20.3131968 11.9761309,20.8848636 11.749004,20.9637805 C10.9983304,21.2217043 10.334273,21.4950265 9.55280258,21.3737638 C9.16206735,21.3160197 8.95226371,21.2024562 8.72898644,21.1023664 C8.11112433,20.792473 7.66456979,20.3651665 7.66456979,19.4431853 C7.66456979,18.8772929 7.9051703,18.0265295 8.19581571,17.8513724 C8.29975513,17.7840042 8.67701673,17.7166361 8.79635458,17.3913442" id="Fill-2"></path>
                <path d="M39.0138536,0.22016713 C38.5268782,-0.23408663 37.3835446,0.139325359 37.1968386,0.23941517 C36.8099529,0.443444401 37.1275456,0.308708117 36.7733817,0.722540991 C36.6405702,0.874600512 35.7397619,1.22299005 35.2316136,1.50593625 C33.056585,2.70123957 32.7409172,2.69931477 32.5311135,2.79940458 C31.524441,3.29022961 30.5774374,4.05245202 29.5072463,4.6087204 C29.4437278,4.64336687 29.5226448,4.79350159 29.1588568,5.02640288 C28.3523639,5.555724 26.6874084,6.44113387 25.8597426,6.84149311 C25.089821,7.2129803 24.8453709,7.28227325 24.3545458,7.52094895 C24.0658252,7.66145965 24.2101855,8.07529252 23.5114817,8.0675933 C23.1958138,8.0656685 22.9398149,7.66338445 22.6780415,7.4016111 C21.6752186,6.38338975 20.0968792,5.3651684 18.8265086,4.72998306 C17.7774903,4.20258674 16.8997797,3.78682906 15.6602059,3.5212061 C15.3175908,3.44806355 14.8209913,3.16511735 14.4379553,3.16319255 C14.1607835,3.16126774 13.9144086,3.26328236 13.3562154,3.12084686 C13.154111,3.06695234 13.0386227,3.70598729 13.0386227,3.81185152 C13.0347731,4.12366977 13.1040661,4.06977526 13.1021413,4.6106452 C13.0963669,4.92053866 13.2695992,5.16691358 13.3388922,5.30549947 C13.4928765,5.63656577 13.5602446,5.96763207 13.6795825,6.27945033 C13.8682133,6.76835056 14.4379553,7.48630248 14.6439093,7.9213082 C14.9172315,8.47757657 15.0558174,8.82596611 15.4696503,9.31679114 C15.5023719,9.36876085 16.9902455,11.2935649 16.7361713,11.2358208 C15.4908231,10.949025 11.9337852,10.290742 8.0938011,10.3966062 L7.63762253,10.4293279 C7.21609044,10.4909216 6.94469307,10.6295075 6.37880067,10.6603044 C5.29321118,10.7199733 2.53304215,11.3378354 1.55139208,11.8671565 C0.531245922,12.4138009 0.109713832,12.7583408 2.86837938e-14,13.1375272 C0.0327216691,13.5898562 0.76222241,14.1134029 1.35506206,13.984441 L1.63223385,14.190395 C2.20775026,14.475266 1.9863978,14.1095533 2.61003431,14.3732514 L2.95649904,14.5869047 C3.408828,14.7639866 3.68984939,14.5561078 4.2114713,14.8756253 C4.4520718,14.8775501 4.70037153,14.9141214 5.53381169,15.2682853 C5.80520906,15.3837736 5.85140436,15.0642561 6.33837979,15.2779093 C6.94276826,15.5396827 6.63095001,15.4126456 7.41819487,15.5300587 C8.41331857,15.6763438 9.44116394,15.9535156 10.4536109,16.1113495 C11.1272923,16.2152889 11.2909006,16.0497558 11.9838301,16.2980555 C12.2860243,16.4039197 13.0232243,16.1633192 13.7315522,16.3654236 C14.4283313,16.5636784 15.7217996,16.2961307 16.1741286,16.4712879 C16.278068,16.6098737 16.5244429,16.3384764 16.3820074,16.9621129 C16.3146393,17.2489087 16.0759636,17.7224105 15.9874226,18.032304 C15.698702,18.9870068 15.0230957,20.4537075 14.8402393,21.3198693 C14.7767208,21.6278379 14.9403292,21.675958 14.8710362,21.9820019 C14.7978937,22.2918953 14.3513391,22.3631131 14.2358509,22.7057282 C14.1627083,22.9116823 14.1530843,24.1608801 13.831642,24.8557344 C13.6487856,25.2464696 13.7200034,25.6487536 13.5775679,26.0298648 C13.2792232,26.7766888 12.9462321,28.0663075 12.7441277,29.2539117 C12.7094812,29.4637153 12.5612713,30.5396808 12.5574217,31.0228066 C12.5497225,31.8196755 12.5458729,32.3393726 12.4015126,33.0996702 C12.32837,33.475007 12.5323993,33.602044 12.4592567,34.1448388 C12.5959178,34.7011072 12.7345037,34.7704001 13.046322,34.7743045 C13.3966363,34.7800241 13.6276128,34.3276952 13.9259574,34.1563876 C15.050043,33.4711574 16.2491959,32.1603658 16.7477202,30.8476494 C16.9979447,30.1912912 18.1624512,28.9863639 18.2683154,28.7438386 C18.5724344,28.0586083 18.8996511,27.3849269 19.3000104,26.6708246 C20.0449095,25.340785 20.2874349,24.976997 21.0015372,23.6334838 C21.5327831,22.6306609 21.6117,21.6913565 21.7214139,21.4623048 C22.1159987,20.615391 21.9389167,20.4460082 22.3277272,19.7550036 C22.3700728,19.6760866 22.6087486,19.308449 22.7165376,19.1332919 C22.8705219,18.8830673 22.6299214,18.4384376 22.6299214,18.4384376 C23.1419193,18.513505 23.7694054,19.2276073 24.038878,19.4239373 C24.8723181,20.0187017 26.121516,21.1524113 26.779799,21.5951163 C26.8221447,21.6278379 27.0261739,21.568169 27.0261739,21.568169 C28.0982897,22.5883152 31.1779763,24.6748028 32.4367981,25.7815651 C33.7860858,26.971094 34.7581118,27.8468799 36.2517598,28.7650114 C36.7137127,29.0460328 38.0745492,30.0276829 38.4729837,30.3472004 C39.4430849,31.1151972 40.2784499,31.4039178 41.8086691,32.1449674 C42.399584,32.433688 42.624786,32.6049955 43.2715202,32.6088451 C43.5159703,32.6126947 43.6295338,31.8139011 43.3196403,31.3269256 C43.1483327,31.0632275 42.9385291,30.7148379 42.8365145,30.4530646 C42.6132372,29.9275931 42.5439443,29.6869926 42.3938095,29.2346636 C41.8644884,27.6678731 41.4641292,27.6313018 40.9194096,26.0625865 C40.7808237,25.6641521 40.0994431,24.7460205 40.0263005,24.4553751 C39.7549032,23.4140561 38.8906661,22.226452 38.617344,21.6682588 C38.2458568,20.9137356 37.3719957,20.1630621 37.0313054,19.2969002 C36.6001493,18.1920627 35.6512209,17.510682 34.8601264,16.3230779 C34.765811,16.1883417 34.4539928,16.2480106 34.3693014,16.1113495 C33.8900252,15.310631 33.8842508,15.7591104 33.7110184,15.6185997 C33.3664785,15.3414279 33.3337568,15.0969778 33.0238634,14.5387846 C32.6292785,13.8304567 31.8458833,13.2433914 30.9104285,12.471545 C32.1095814,11.1665279 33.9246717,9.11468672 34.7542622,8.23697606 C35.1757943,7.79042152 36.3152783,5.19578564 38.2920521,2.81672781 C38.5923215,2.45678945 38.8290724,1.36350074 39.0792969,0.601278335 L39.0138536,0.22016713" id="Fill-3"></path>
                <polygon id="Fill-4" points="57.5939872 32.5538633 163.313851 32.5538633 163.313851 31.8763323 57.5939872 31.8763323"></polygon>
                <path d="M67.6337653,25.670764 L66.4654092,25.670764 L59.1319057,9.5466803 C58.9894702,9.19444116 58.7642681,8.80178113 58.4543747,8.37254982 C58.146406,7.94524332 57.7325731,7.62187624 57.2186505,7.39859896 L57.2186505,6.81345853 C58.2291726,6.848105 59.2396947,6.88467628 60.2502169,6.92124756 C61.2357165,6.88467628 62.2366147,6.848105 63.2490616,6.81345853 L63.2490616,7.39859896 C62.9872882,7.44671907 62.7620862,7.54103447 62.5696058,7.68924438 C62.3790502,7.82975508 62.2770355,8.05688196 62.2674115,8.35522659 C62.2635619,8.46686522 62.292434,8.64972161 62.3559525,8.90957016 C62.4233206,9.1655691 62.5503577,9.52743226 62.7447629,10.0009341 L67.606818,21.6094274 L71.7509211,10.7727805 C72.0203937,10.0144077 72.145506,9.42926725 72.1224083,9.01928399 C72.1301075,8.50728611 72.0300177,8.1261749 71.8221389,7.88172479 C71.6123353,7.63150026 71.2523969,7.47174152 70.740399,7.39859896 L70.740399,6.81345853 C71.6469817,6.848105 72.5497148,6.88467628 73.4505231,6.92124756 C74.355181,6.88467628 75.2579142,6.848105 76.1606473,6.81345853 L76.1606473,7.39859896 C75.6255517,7.48713995 75.1847716,7.73543968 74.8363821,8.15504696 C74.4879925,8.57465425 74.1857983,9.1193738 73.9278745,9.78728081 L67.6337653,25.670764" id="Fill-5"></path>
                <path d="M76.2472634,10.9575617 C76.2588123,10.5533528 76.4050974,10.2280609 76.6861188,9.98168602 C76.969065,9.73146149 77.3078305,9.61019884 77.7043401,9.60249962 C78.1046994,9.61019884 78.4453897,9.73146149 78.7264111,9.98168602 C79.0055077,10.2280609 79.1556424,10.5533528 79.1671912,10.9575617 C79.1556424,11.3598457 79.0055077,11.690912 78.7264111,11.9315125 C78.4453897,12.1778875 78.1046994,12.3068493 77.7043401,12.3145485 C77.3078305,12.3068493 76.969065,12.1778875 76.6861188,11.9315125 C76.4050974,11.690912 76.2588123,11.3598457 76.2472634,10.9575617 M78.4761866,14.0892179 L79.0055077,14.0892179 C79.0132069,14.6782079 79.0305301,15.4866256 79.0594022,16.5106214 C79.0921239,17.5346172 79.1094471,18.6028834 79.1132967,19.7231194 L79.1132967,23.6035244 C79.1209959,24.0385301 79.2172361,24.3291755 79.4039421,24.4793102 C79.5887233,24.6275202 79.8389478,24.7353092 80.1526909,24.7969029 L80.1526909,25.3300736 C79.3519724,25.2992768 78.5551035,25.2761791 77.7601594,25.2492319 C77.0402827,25.2627055 76.3261804,25.2877279 75.6082285,25.3300736 L75.6082285,24.7969029 C75.9238964,24.7353092 76.1606473,24.6275202 76.310782,24.4793102 C76.4628415,24.3291755 76.5398337,24.0385301 76.5379089,23.6035244 L76.5379089,20.3082598 C76.5359841,19.3593314 76.4994128,18.6009586 76.4320446,18.0350662 C76.3627517,17.467249 76.2742107,17.0476417 76.1664217,16.7743196 C76.0663319,16.514471 75.9335204,16.3258402 75.7679872,16.2045776 C75.6024541,16.0813901 75.3637784,15.9966987 75.0481105,15.9524282 L75.0481105,15.4211823 C75.6775214,15.2729724 76.3030828,15.0785672 76.9228697,14.8456659 C77.5445814,14.6146894 78.0604289,14.3625401 78.4761866,14.0892179" id="Fill-6"></path>
                <path d="M91.930567,6.49586586 L92.4598881,6.49586586 C92.4252416,8.57657905 92.3925199,11.5330781 92.3540239,15.3672878 L92.3540239,21.9828394 C92.323227,22.9567902 92.5946244,23.4514649 93.17784,23.4707129 C93.5204551,23.4514649 93.76683,23.3802471 93.9227392,23.2570597 L94.3211736,23.6535693 C93.8438222,23.9634628 93.3895685,24.2887546 92.9526379,24.6275202 C92.5157074,24.9682105 92.1673179,25.2992768 91.9036197,25.6226439 C91.4743884,25.4705843 91.0836532,25.2434575 90.7333388,24.9316392 C90.3830245,24.6275202 90.0981535,24.2714314 89.8825754,23.8691474 L88.3427322,25.2222846 C88.1252293,25.3550961 87.8692304,25.4551859 87.5843594,25.5206292 C87.293714,25.5879974 86.9280012,25.6226439 86.4833715,25.6226439 C85.3958572,25.611095 84.4527032,25.3550961 83.6519847,24.8565718 C82.8493414,24.354198 82.2295545,23.6747421 81.7887744,22.8220539 C81.3479942,21.9616665 81.1227921,20.9896405 81.1170177,19.9079006 C81.1497394,18.0485399 81.7079326,16.6203352 82.7915973,15.6175123 C83.875262,14.6127646 85.2822937,14.1065411 87.0146174,14.0892179 C87.9192753,14.1007667 88.8200836,14.324044 89.7228167,14.7552001 L89.7228167,10.8247502 C89.7112679,10.0971743 89.572682,9.59865001 89.3051342,9.32340303 C89.0414361,9.05200566 88.7257682,8.89609653 88.3696795,8.85952525 L88.3696795,8.32827933 C89.0472105,8.14542294 89.7189671,7.89134881 90.3887989,7.56028251 C91.0567059,7.23114101 91.5725534,6.87312745 91.930567,6.49586586 M89.7747864,23.0992257 L89.7747864,18.7433941 C89.7901849,17.4884219 89.5803812,16.5741399 89.1434507,16.0024731 C88.708445,15.4308063 87.9693202,15.1459353 86.9337756,15.1536345 C86.2389213,15.1748074 85.673029,15.3884606 85.2380232,15.8080679 C84.8010927,16.2219008 84.4854248,16.7435227 84.2833204,17.3633096 C84.081216,17.9830965 83.983051,18.6009586 83.984948,19.2188207 C83.9869006,19.9714191 84.1331857,20.7143935 84.4161319,21.4477438 C84.7010029,22.1791694 85.1148358,22.7874075 85.6537809,23.2724581 C86.1965757,23.7555839 86.8548587,24.0115829 87.6247803,24.0269813 C88.3812283,24.0500789 89.0991802,23.7401855 89.7747864,23.0992257" id="Fill-7"></path>
                <path d="M96.7675996,17.0514914 L96.1343391,17.0514914 L96.1343391,14.5280732 C96.684833,14.3683145 97.2411014,14.2509014 97.7992946,14.1681349 C98.3536381,14.0892179 98.9407034,14.048797 99.5604903,14.048797 C100.778891,14.0180001 101.804812,14.2374278 102.638252,14.6993808 C103.471692,15.159409 103.906698,16.042894 103.945194,17.3421368 C103.941344,17.8271874 103.925946,18.400779 103.898999,19.0609868 C103.875901,19.7192698 103.854728,20.4314473 103.837405,21.1936697 L103.837405,22.1233501 C103.83548,22.7258137 103.895149,23.1377218 104.016412,23.3648487 C104.139599,23.5958252 104.345553,23.7036142 104.632349,23.6901406 C104.794033,23.6824414 104.980739,23.6477949 105.190542,23.5862012 L105.590901,23.9846356 L103.598729,25.5802982 C103.084807,25.5071556 102.647876,25.3550961 102.280238,25.1260444 C101.906826,24.8950679 101.637354,24.6121217 101.47567,24.275281 C101.027191,24.6217457 100.576787,24.9200904 100.110984,25.1760893 C99.6471065,25.4320883 99.1293342,25.5648997 98.551893,25.5802982 C97.9378805,25.5783734 97.3604392,25.4571107 96.8195693,25.218435 C96.2786994,24.9759097 95.8359944,24.6275202 95.4933793,24.1694168 C95.1507642,23.7113134 94.9794566,23.155045 94.9679078,22.4967621 C94.9833062,21.5632321 95.2450796,20.8067841 95.7493782,20.2351173 C96.2556017,19.6557513 96.8965615,19.2399936 97.6684079,18.9782202 C98.4421791,18.7183717 99.2428976,18.587485 100.064789,18.5913346 C100.507494,18.6182819 100.925176,18.6433043 101.313987,18.6702516 C101.323611,18.1852009 101.290889,17.7078495 101.219671,17.2478214 C101.148454,16.7877932 100.971372,16.4086068 100.699974,16.1083374 C100.426652,15.8099927 99.9935712,15.6540836 99.4007315,15.6444596 C98.7636214,15.6425348 98.2458491,15.7503238 97.8474147,15.9793755 C97.4489802,16.2065024 97.0890419,16.5625911 96.7675996,17.0514914 M101.392904,23.5323066 L101.313987,19.628804 C101.161927,19.5999319 100.971372,19.5691351 100.74617,19.540263 C100.517118,19.5113909 100.282292,19.4959925 100.037842,19.4959925 C99.4007315,19.4863685 98.8290647,19.6596009 98.3324653,20.0272384 C97.8320162,20.3910264 97.5683181,20.9915653 97.5432956,21.8307798 C97.5567693,22.4563412 97.7646481,22.9664142 98.1611577,23.3648487 C98.5538178,23.7613583 99.0388684,23.9730868 99.6143848,23.9846356 C100.405479,23.9653876 101.002169,23.8171776 101.392904,23.5323066" id="Fill-8"></path>
                <path d="M122.080698,7.5564329 L122.288577,11.0884484 L121.174115,11.0884484 C120.885395,10.2627074 120.440765,9.5909508 119.836376,9.08087772 C119.230063,8.56695503 118.542908,8.19161824 117.774911,7.95871695 C117.008839,7.72196605 116.235068,7.6064778 115.461297,7.61032741 C113.925303,7.62765065 112.67803,8.00683705 111.713703,8.73826259 C110.751301,9.47353775 110.044898,10.4571126 109.592569,11.6889872 C109.14409,12.918937 108.922737,14.2855479 108.928512,15.7926695 C108.949685,17.653955 109.246104,19.1610766 109.806222,20.3217335 C110.37404,21.4804655 111.076593,22.3716498 111.911958,22.9856623 C112.749248,23.5996748 113.588462,24.0192821 114.431526,24.2425593 C115.272666,24.4639118 115.977144,24.5717008 116.554585,24.5582272 C117.640175,24.5582272 118.641073,24.3272507 119.547656,23.8614481 C120.460013,23.3975704 121.214536,22.7007913 121.81315,21.7691861 L122.636966,22.1156508 L121.81315,25.0663755 C120.773756,25.2627055 119.859474,25.4128402 119.072229,25.5187044 C118.283059,25.6226439 117.470792,25.670764 116.631578,25.670764 C113.996521,25.6457415 111.842665,25.1606909 110.156537,24.2290857 C108.474258,23.2994053 107.232759,22.1002524 106.430116,20.6374013 C105.627473,19.1726254 105.227113,17.6308574 105.234704,16.0082475 C105.250211,14.1642853 105.689066,12.5320514 106.549454,11.1076964 C107.411766,9.68334139 108.60322,8.55925582 110.129589,7.74313889 C111.652109,6.92894677 113.41138,6.51126429 115.407402,6.49586586 C116.543037,6.49779066 117.49004,6.55360998 118.252263,6.66524862 C119.01641,6.77303764 119.690091,6.90584912 120.277156,7.06945747 C120.866146,7.23114101 121.462836,7.39282455 122.080698,7.5564329" id="Fill-9"></path>
                <path d="M125.964952,17.0514914 L125.329767,17.0514914 L125.329767,14.5280732 C125.880261,14.3683145 126.436529,14.2509014 126.990873,14.1681349 C127.547141,14.0892179 128.136131,14.048797 128.753994,14.048797 C129.97047,14.0180001 130.99639,14.2374278 131.835605,14.6993808 C132.67097,15.159409 133.104051,16.042894 133.140622,17.3421368 C133.136772,17.8271874 133.121374,18.400779 133.094427,19.0609868 C133.069404,19.7192698 133.050156,20.4314473 133.032833,21.1936697 L133.032833,22.1233501 C133.028983,22.7258137 133.090577,23.1377218 133.21184,23.3648487 C133.333102,23.5958252 133.540981,23.7036142 133.831627,23.6901406 C133.989461,23.6824414 134.176167,23.6477949 134.387895,23.5862012 L134.786329,23.9846356 L132.794157,25.5802982 C132.282159,25.5071556 131.843304,25.3550961 131.469892,25.1260444 C131.102255,24.8950679 130.834707,24.6121217 130.669174,24.275281 C130.222619,24.6217457 129.772215,24.9200904 129.310262,25.1760893 C128.842535,25.4320883 128.324762,25.5648997 127.745396,25.5802982 C127.133309,25.5783734 126.555867,25.4571107 126.013073,25.218435 C125.470278,24.9759097 125.029498,24.6275202 124.688807,24.1694168 C124.346192,23.7113134 124.171035,23.155045 124.163336,22.4967621 C124.178734,21.5632321 124.440508,20.8067841 124.944806,20.2351173 C125.45103,19.6557513 126.08814,19.2399936 126.863836,18.9782202 C127.637607,18.7183717 128.436401,18.587485 129.260217,18.5913346 C129.704847,18.6182819 130.11868,18.6433043 130.509415,18.6702516 C130.519039,18.1852009 130.486317,17.7078495 130.415099,17.2478214 C130.340032,16.7877932 130.168725,16.4086068 129.895402,16.1083374 C129.62208,15.8099927 129.188999,15.6540836 128.594235,15.6444596 C127.959049,15.6425348 127.441277,15.7503238 127.042843,15.9793755 C126.644408,16.2065024 126.28447,16.5625911 125.964952,17.0514914 M130.590257,23.5323066 L130.509415,19.628804 C130.355431,19.5999319 130.168725,19.5691351 129.941598,19.540263 C129.716396,19.5113909 129.479645,19.4959925 129.23327,19.4959925 C128.594235,19.4863685 128.028342,19.6596009 127.527893,20.0272384 C127.027444,20.3910264 126.763746,20.9915653 126.738724,21.8307798 C126.752197,22.4563412 126.960076,22.9664142 127.354661,23.3648487 C127.749246,23.7613583 128.234296,23.9730868 128.809813,23.9846356 C129.602832,23.9653876 130.193747,23.8171776 130.590257,23.5323066" id="Fill-10"></path>
                <path d="M136.154865,10.9575617 C136.170264,10.5533528 136.316549,10.2280609 136.599495,9.98168602 C136.880516,9.73146149 137.219282,9.61019884 137.617716,9.60249962 C138.016151,9.61019884 138.356841,9.73146149 138.635938,9.98168602 C138.918884,10.2280609 139.069019,10.5533528 139.078643,10.9575617 C139.069019,11.3598457 138.918884,11.690912 138.635938,11.9315125 C138.356841,12.1778875 138.016151,12.3068493 137.617716,12.3145485 C137.219282,12.3068493 136.880516,12.1778875 136.599495,11.9315125 C136.316549,11.690912 136.170264,11.3598457 136.154865,10.9575617 M138.387638,14.0892179 L138.918884,14.0892179 C138.926583,14.6782079 138.943906,15.4866256 138.972778,16.5106214 C139.00165,17.5346172 139.022823,18.6028834 139.024748,19.7231194 L139.024748,23.6035244 C139.026673,24.0385301 139.128687,24.3291755 139.315393,24.4793102 C139.502099,24.6275202 139.750399,24.7353092 140.060293,24.7969029 L140.060293,25.3300736 C139.263424,25.2992768 138.466555,25.2761791 137.669686,25.2492319 C136.951734,25.2627055 136.235707,25.2877279 135.51968,25.3300736 L135.51968,24.7969029 C135.839197,24.7353092 136.068249,24.6275202 136.222233,24.4793102 C136.376218,24.3291755 136.451285,24.0385301 136.44936,23.6035244 L136.44936,20.3082598 C136.44936,19.3593314 136.410864,18.6009586 136.343496,18.0350662 C136.276128,17.467249 136.185662,17.0476417 136.075948,16.7743196 C135.977783,16.514471 135.846897,16.3258402 135.677514,16.2045776 C135.511981,16.0813901 135.27138,15.9966987 134.959562,15.9524282 L134.959562,15.4211823 C135.587048,15.2729724 136.214534,15.0785672 136.834321,14.8456659 C137.456033,14.6146894 137.973805,14.3625401 138.387638,14.0892179" id="Fill-11"></path>
                <path d="M140.947627,25.3300736 L140.947627,24.7969029 C141.373009,24.7160611 141.727173,24.5466784 142.015894,24.2945291 C142.302689,24.0385301 142.533666,23.7921552 142.701124,23.5477051 L145.278436,20.2543653 L142.223772,16.1102622 C141.988946,15.7945943 141.779143,15.552069 141.590512,15.3942351 C141.405731,15.2325515 141.128559,15.0766424 140.764771,14.9168836 L140.764771,14.3856377 C141.569339,14.422209 142.375832,14.4491563 143.182325,14.4645547 C143.977269,14.4491563 144.776063,14.422209 145.569082,14.3856377 L145.569082,14.9168836 C145.411248,14.9861766 145.274587,15.0573943 145.170647,15.1305369 C145.068633,15.2036795 145.016663,15.3364909 145.012813,15.5251217 C145.001265,15.7426246 145.105204,16.0255708 145.332331,16.3778099 L146.795182,18.3699821 L148.094425,16.6434329 C148.358123,16.2546225 148.492859,15.9639771 148.492859,15.767647 C148.48901,15.5174225 148.417792,15.3326413 148.279206,15.2113787 C148.14447,15.0843416 147.967388,14.9861766 147.749885,14.9168836 L147.749885,14.3856377 C148.456288,14.422209 149.166541,14.4491563 149.872944,14.4645547 C150.571648,14.4491563 151.276126,14.422209 151.97098,14.3856377 L151.97098,14.9168836 C151.466682,15.0419959 151.045149,15.2498747 150.716008,15.5366706 C150.384942,15.8253912 150.076973,16.1583823 149.794027,16.5356439 L147.538156,19.4036019 L150.406114,23.3898711 C150.610144,23.6651181 150.854594,23.9403651 151.143314,24.2117625 C151.43396,24.4831598 151.745778,24.6794899 152.080694,24.7969029 L152.080694,25.3300736 C151.291524,25.2877279 150.504279,25.2627055 149.71511,25.2492319 C148.92594,25.2627055 148.14062,25.2877279 147.35145,25.3300736 L147.35145,24.7969029 C147.497736,24.7776549 147.624773,24.7122115 147.726787,24.5947985 C147.828802,24.481235 147.876922,24.354198 147.884621,24.2117625 C147.876922,24.1251463 147.832651,23.9981092 147.749885,23.8229521 C147.667118,23.6477949 147.565104,23.4764873 147.45539,23.3090294 L146.023336,21.2668123 L144.587432,23.20509 C144.504665,23.3359766 144.418049,23.499585 144.342982,23.6939902 C144.264065,23.8903202 144.223644,24.0558533 144.215945,24.1848152 C144.225569,24.5736256 144.414199,24.7815045 144.776063,24.7969029 L144.776063,25.3300736 C144.073509,25.2877279 143.37673,25.2627055 142.676101,25.2492319 C142.09866,25.2627055 141.525069,25.2877279 140.947627,25.3300736" id="Fill-12"></path>
                <path d="M154.865886,17.0514914 L154.226851,17.0514914 L154.226851,14.5280732 C154.779269,14.3683145 155.335538,14.2509014 155.891806,14.1681349 C156.448074,14.0892179 157.03514,14.048797 157.654927,14.048797 C158.869478,14.0180001 159.895399,14.2374278 160.730763,14.6993808 C161.568053,15.159409 162.001134,16.042894 162.033856,17.3421368 C162.033856,17.8271874 162.020382,18.400779 161.993435,19.0609868 C161.966488,19.7192698 161.949164,20.4314473 161.933766,21.1936697 L161.933766,22.1233501 C161.929916,22.7258137 161.985736,23.1377218 162.110848,23.3648487 C162.234035,23.5958252 162.439989,23.7036142 162.726785,23.6901406 C162.888469,23.6824414 163.071325,23.6477949 163.283054,23.5862012 L163.685338,23.9846356 L161.693166,25.5802982 C161.181168,25.5071556 160.738463,25.3550961 160.37275,25.1260444 C159.997413,24.8950679 159.733715,24.6121217 159.564332,24.275281 C159.121627,24.6217457 158.669298,24.9200904 158.207345,25.1760893 C157.741543,25.4320883 157.22377,25.5648997 156.644404,25.5802982 C156.030392,25.5783734 155.4568,25.4571107 154.910156,25.218435 C154.369286,24.9759097 153.930431,24.6275202 153.583966,24.1694168 C153.2452,23.7113134 153.068119,23.155045 153.05657,22.4967621 C153.075818,21.5632321 153.339516,20.8067841 153.843815,20.2351173 C154.350038,19.6557513 154.989073,19.2399936 155.760919,18.9782202 C156.534691,18.7183717 157.335409,18.587485 158.159225,18.5913346 C158.598081,18.6182819 159.019613,18.6433043 159.406498,18.6702516 C159.418047,18.1852009 159.383401,17.7078495 159.312183,17.2478214 C159.240965,16.7877932 159.065808,16.4086068 158.794411,16.1083374 C158.519164,15.8099927 158.088008,15.6540836 157.493243,15.6444596 C156.858058,15.6425348 156.336436,15.7503238 155.939926,15.9793755 C155.543417,16.2065024 155.185403,16.5625911 154.865886,17.0514914 M159.485415,23.5323066 L159.406498,19.628804 C159.256364,19.5999319 159.065808,19.5691351 158.842531,19.540263 C158.609629,19.5113909 158.376728,19.4959925 158.132278,19.4959925 C157.493243,19.4863685 156.925426,19.6596009 156.424977,20.0272384 C155.926453,20.3910264 155.662754,20.9915653 155.631958,21.8307798 C155.651206,22.4563412 155.85331,22.9664142 156.253669,23.3648487 C156.648254,23.7613583 157.133305,23.9730868 157.708821,23.9846356 C158.497991,23.9653876 159.09468,23.8171776 159.485415,23.5323066" id="Fill-13"></path>
            </g>
        </g>
    </g>
</svg>