<?xml version="1.0" encoding="utf-8"?>
<!-- Generator: Adobe Illustrator 24.0.1, SVG Export Plug-In . SVG Version: 6.00 Build 0)  -->
<svg version="1.1" id="Layer_1" xmlns="http://www.w3.org/2000/svg" xmlns:xlink="http://www.w3.org/1999/xlink" x="0px" y="0px"
	 viewBox="0 0 77 29" style="enable-background:new 0 0 77 29;" xml:space="preserve">
<style type="text/css">
	.st0{fill:#888888;}
</style>
<title>Group 27</title>
<desc>Created with Sketch.</desc>
<g id="_x23_650199ff">
	<path class="st0" d="M28,0.1h0.4c1.1,0.1,2.1,0.6,2.8,1.4c0.6,0.7,0.8,1.6,0.8,2.4c0,0.9-0.3,1.8-0.9,2.4c-0.6,0.7-1.4,1.2-2.3,1.3
		c-0.8,0.1-1.7,0-2.4-0.4c-0.8-0.4-1.5-1.1-1.8-2c-0.3-0.8-0.3-1.6-0.1-2.4c0.2-0.8,0.7-1.5,1.4-2C26.5,0.4,27.3,0.1,28,0.1z"/>
	<path class="st0" d="M3.2,9.5c0.9-0.4,2-0.1,2.6,0.7C6,10.5,6.1,10.7,6.3,11c1.6,3.2,3.2,6.4,4.8,9.6c0,0,0.1,0,0.1,0
		c1.6-3.3,3.2-6.5,4.9-9.8c0.1-0.2,0.2-0.5,0.4-0.7c0.6-0.7,1.7-1,2.5-0.6c0.8,0.3,1.5,0.7,2.3,1c0.7,0.3,1.2,1.1,1.2,1.9
		c0,0.4-0.1,0.8-0.4,1.2c-2.6,4.6-5.2,9.2-7.8,13.8c-0.4,0.8-1.3,1.3-2.2,1.3c-0.6,0-1.1,0-1.7,0c-0.8,0-1.7-0.4-2.2-1
		C8,27.5,7.9,27.3,7.7,27c-2.5-4.5-5.1-9-7.6-13.5c-0.2-0.3-0.3-0.6-0.3-1v-0.3c0.1-0.7,0.5-1.4,1.2-1.7C1.7,10.2,2.5,9.8,3.2,9.5z"
		/>
	<path class="st0" d="M37.4,9.6c0.8-0.4,1.9-0.3,2.5,0.4c0.2,0.2,0.4,0.5,0.6,0.8c1.1,2.2,2.1,4.3,3.2,6.5c0.6,1.1,1.1,2.2,1.7,3.4
		c0,0,0.1,0,0.1-0.1c1.7-3.3,3.3-6.7,5-10c0.5-0.9,1.7-1.4,2.7-1c0.8,0.3,1.5,0.7,2.3,1c0.7,0.3,1.1,1,1.2,1.8
		c0,0.4-0.1,0.9-0.3,1.3c-2.6,4.5-5.1,9-7.7,13.6c-0.1,0.2-0.2,0.3-0.3,0.5c-0.5,0.7-1.3,1.1-2.2,1.1c-0.6,0-1.2,0-1.7,0
		c-0.8,0-1.6-0.5-2.1-1.2c-0.1-0.2-0.3-0.5-0.4-0.7c-2.5-4.4-4.9-8.7-7.4-13.1c-0.2-0.3-0.4-0.7-0.4-1.1c-0.1-0.9,0.4-1.8,1.3-2.2
		C36.1,10.2,36.8,9.9,37.4,9.6z"/>
	<path class="st0" d="M64.7,9.8c2-0.6,4.2-0.5,6.1,0.2c1.8,0.7,3.5,1.9,4.6,3.5c1.1,1.6,1.8,3.4,1.8,5.4v0.6
		c-0.1,1.8-0.6,3.7-1.7,5.2c-1.1,1.6-2.7,2.9-4.5,3.6c-1,0.4-2.1,0.6-3.2,0.7h-0.6c-1.4,0-2.8-0.4-4-1c-1.7-0.8-3.1-2.2-4.1-3.8
		c-1.1-1.8-1.5-4-1.3-6.1c0.3-2.1,1.2-4.1,2.7-5.6C61.6,11.2,63.1,10.3,64.7,9.8 M66.7,15.4c-1.4,0.2-2.6,1.3-3,2.7
		c-0.3,1-0.2,2.1,0.3,3c0.5,0.8,1.2,1.4,2.1,1.7c0.9,0.3,2,0.3,2.9-0.1c0.8-0.4,1.5-1,1.9-1.8c0.4-0.8,0.5-1.8,0.3-2.7
		c-0.3-1-0.9-1.8-1.8-2.3C68.6,15.4,67.6,15.2,66.7,15.4z"/>
	<path class="st0" d="M26.8,9.7c0.2,0,0.4-0.1,0.5-0.1c0.7,0,1.3,0,2,0c0.7,0,1.3,0.3,1.7,0.8c0.4,0.4,0.6,1,0.6,1.6
		c0,4.6,0,9.3,0,13.9c0,0.4,0,0.7-0.1,1.1c-0.2,0.7-0.7,1.3-1.4,1.6c-0.3,0.1-0.6,0.2-0.9,0.2c-0.7,0-1.3,0-2,0
		c-1,0-1.9-0.7-2.1-1.6c-0.1-0.4-0.1-0.9-0.1-1.3c0-4.4,0-8.8,0-13.3c0-0.4,0-0.8,0.1-1.2C25.2,10.5,26,9.9,26.8,9.7z"/>
</g>
</svg>
