<?xml version="1.0" encoding="UTF-8"?>
<svg width="94px" height="62px" viewBox="0 0 94 62" version="1.1" xmlns="http://www.w3.org/2000/svg" xmlns:xlink="http://www.w3.org/1999/xlink">
    <!-- Generator: Sketch 61 (89581) - https://sketch.com -->
    <title>Group 24</title>
    <desc>Created with Sketch.</desc>
    <g id="nov2019_the-final-count-down" stroke="none" stroke-width="1" fill="none" fill-rule="evenodd">
        <g id="Desktop-HD-Home-opt-A-Copy" transform="translate(-473.000000, -3475.000000)" fill="#888888">
            <g id="Group-24" transform="translate(473.000000, 3475.000000)">
                <path d="M47.9190886,-1.0658141e-13 C38.5880893,-1.0658141e-13 31.0291262,7.54897606 31.0291262,16.8676471 C31.0291262,20.7170565 32.3225833,24.2538629 34.4878304,27.0982922 L48.5192527,8.66504644 L47.0188425,8.67796393 L45.5080847,8.67796393 C43.9145456,8.67796393 42.4037877,8.78647077 41.3276314,8.99056697 C40.6731421,9.12749227 40.0859126,9.36000694 39.6099204,9.69844495 C39.0382124,10.0937199 38.3423325,10.9230222 37.8792749,11.739407 C37.8249497,11.8349964 37.7576899,11.9848391 37.6619741,12.1760179 L36.8315746,11.9977566 L38.207813,6.6938388 L55.7910684,6.6938388 L41.8294928,25.3570158 C42.7297389,25.2743439 43.0970807,25.2614264 43.8317643,25.2614264 C44.4060592,25.2614264 45.2623278,25.2872614 46.4083308,25.3570158 L48.8865945,25.5068585 C49.7842537,25.561112 50.5473934,25.5869469 51.1191014,25.5869469 C52.3996239,25.5869469 53.2326103,25.4913576 54.0630097,25.2330079 C54.7019775,25.0444127 55.3150762,24.7447271 55.8609151,24.3623697 C56.8413555,23.6829102 57.7933399,22.5952583 58.3676349,21.5076063 C58.4219601,21.396516 58.515089,21.2337557 58.6263263,21.016742 L59.3610099,21.2079208 C59.1281876,22.1173115 58.9936681,22.4712504 58.6263263,23.3031362 C57.8761212,24.9746583 57.0327872,26.1036462 55.8609151,26.9613669 C54.6605869,27.8449227 53.3412607,28.2815335 51.7735907,28.3073685 L51.5278339,28.3073685 C50.3714833,28.3073685 49.4712371,28.2117791 46.6928913,27.7906692 C43.8731549,27.3566419 42.4296568,27.2067991 41.0120279,27.2067991 C40.0600435,27.2067991 39.1753188,27.27397 38.2621382,27.4238128 C37.0488754,27.627909 36.5728832,27.7648343 35.4682709,28.2660325 C38.5622202,31.6271612 42.9884303,33.7352941 47.9190886,33.7352941 C57.2371534,33.7352941 64.7961165,26.1863181 64.7961165,16.8676471 C64.7961165,7.54897606 57.2371534,-1.0658141e-13 47.9190886,-1.0658141e-13" id="Fill-48"></path>
                <path d="M15.208521,44.6764706 L2.55709542,44.6764706 L0.999062998,48.3748439 C1.51756405,48.0752703 1.71737665,47.9745046 2.17011659,47.7729732 C2.89095951,47.4733995 3.68768063,47.2282937 4.44899193,47.0866771 C5.11419084,46.955954 5.726275,46.8987627 6.71269163,46.8715287 C7.16543158,46.8551883 7.57770314,46.8551883 7.96468197,46.8551883 L9.84140284,46.8551883 L5.10702591e-13,62 L13.9160623,62 L15.5145631,58.0401805 C14.9555937,58.386052 14.7557811,58.5004346 14.3283339,58.715583 C13.5164371,59.1023054 12.6387792,59.3882621 11.7332994,59.5598361 C11.0124564,59.7041762 10.2005597,59.7749845 9.20149667,59.8049419 C8.87016185,59.8185589 8.44271465,59.8185589 7.91156723,59.8185589 L5.44552566,59.8185589 L15.208521,44.6764706 Z" id="Fill-50"></path>
                <path d="M59.2775045,62 C59.0094806,61.7548943 58.923713,61.656852 58.7548579,61.3845122 C58.6422879,61.2102148 58.5565203,61.0386408 58.486834,60.8534498 C58.3313802,60.4667274 58.2482928,59.8784736 58.2482928,59.3337942 L58.2482928,48.9086298 L58.261694,47.8900793 C58.261694,46.7271887 58.2884964,46.413998 58.4439502,45.9401269 C58.5002352,45.7522125 58.5726017,45.5670215 58.6851717,45.3954474 C58.8540268,45.0931504 58.979998,44.9651507 59.3203883,44.6764706 L53.8446602,44.6764706 C54.2118529,44.9923847 54.324423,45.1067673 54.4798768,45.3654901 C54.5924469,45.5370641 54.6916157,45.7249785 54.7479007,45.9265099 C54.8738719,46.3404663 54.9167558,46.757146 54.9167558,47.7893136 C54.930157,48.320376 54.930157,48.663524 54.930157,48.8350981 L54.930157,59.2030711 C54.930157,59.8049419 54.8175869,60.4667274 54.6621331,60.8806838 C54.5924469,61.0522578 54.493278,61.2265552 54.3941092,61.3845122 C54.2547368,61.5697032 54.1689691,61.6840859 53.8714626,62 L59.2775045,62 Z" id="Fill-52"></path>
                <path d="M76.6071837,45.2360462 C76.2083431,45.098743 76.0619333,45.0598835 75.6227037,44.9640303 C74.7063801,44.7593707 73.8152995,44.6764706 72.8055764,44.6764706 C71.07895,44.6764706 69.5896084,44.9484865 68.2340552,45.5495122 C67.4212282,45.8914751 66.6790817,46.3551975 66.0278104,46.8862763 C64.0462288,48.5235532 62.9708738,50.8965684 62.9708738,53.6244997 C62.9708738,56.2721215 64.0058399,58.5622366 65.894022,60.1036603 C67.4616171,61.3601149 69.4835875,62 71.9018743,62 C73.4164588,62 74.812401,61.7694341 76.4077634,61.2642616 C76.4607739,61.2513085 76.5541733,61.2228116 76.6601942,61.1813616 L76.6601942,58.1814143 C76.2739751,58.4534303 76.1553326,58.5363304 75.9155234,58.671043 C75.6100822,58.8627495 75.2793979,59.0259591 74.9310434,59.1762155 C73.9617093,59.5984878 73.0857745,59.7901943 72.1290619,59.7901943 C70.4655432,59.7901943 69.044358,59.1762155 67.994246,58.0182048 C66.9567556,56.8576034 66.386262,55.2617766 66.386262,53.448337 C66.386262,51.72816 66.9163666,50.11938 67.8352146,49.0002287 C68.2466768,48.5235532 68.7389168,48.1012808 69.2967888,47.7878148 C70.2004909,47.2696892 71.2632244,46.9950826 72.4067358,46.9950826 C73.3760699,46.9950826 74.3353068,47.1867891 75.2920194,47.5831552 C75.8751345,47.842218 76.0897006,47.9639775 76.6071837,48.3318467 L76.6071837,45.2360462 Z" id="Fill-54"></path>
                <path d="M89.8005505,54.1417638 L89.8005505,58.3582455 C89.8005505,59.3061367 89.7879697,59.6493387 89.7351306,60.1232843 C89.707453,60.3956669 89.6420332,60.6380873 89.5615165,60.8668886 C89.4432576,61.1991953 89.2570627,61.4988161 88.9928672,61.7711987 C88.9400282,61.828399 88.8595114,61.9019423 88.766414,62 L93.8817411,62 C93.6678686,61.7711987 93.589868,61.6704171 93.4439315,61.4552349 C93.3256726,61.2700148 93.2199944,61.0820708 93.1520584,60.8968507 C92.9935412,60.4801054 92.9532828,60.1804846 92.9407021,59.333375 C92.9281213,58.818572 92.9281213,58.5162273 92.9281213,58.4290649 L92.9407021,48.9065714 L92.9407021,47.8742416 C92.9407021,47.1142943 92.9935412,46.525948 93.126897,46.0383833 C93.179736,45.8095819 93.2577366,45.5943997 93.3785117,45.4064558 C93.5370289,45.106835 93.6552878,44.9624723 94,44.6764706 L88.7815109,44.6764706 C89.0859647,44.9488531 89.1916429,45.0632538 89.3627409,45.3792175 C89.4835159,45.5807806 89.5740972,45.7796199 89.6294525,45.9811829 C89.7602921,46.3815853 89.8005505,46.8991121 89.8005505,47.8034221 L89.8005505,52.0199038 L82.6320473,52.0199038 L82.6320473,48.8493711 C82.6320473,47.9042037 82.6471442,47.2722762 82.6723057,46.7983306 C82.6874026,46.5123289 82.7402417,46.2671846 82.8056615,46.0520024 C82.9113397,45.6652192 83.2032127,45.1640353 83.4674082,44.8616907 C83.5076665,44.8181095 83.5605056,44.7609092 83.6410223,44.6764706 L78.5131145,44.6764706 C78.8175683,45.0196726 78.898085,45.1204541 79.0415054,45.3356363 C79.1496997,45.5235803 79.240281,45.7088004 79.3207977,45.9239826 C79.4541535,46.3679661 79.479315,46.6131104 79.4944119,47.7598409 L79.5069926,48.8629902 L79.5069926,58.3446263 C79.5069926,59.3061367 79.4944119,59.7337773 79.4390566,60.1641417 C79.4138952,60.3956669 79.3610561,60.6244682 79.2805394,60.8532695 C79.1496997,61.2264336 78.9635048,61.5287782 78.6716318,61.828399 C78.6313734,61.8719802 78.5659536,61.9155614 78.4854369,62 L83.5605056,62 C83.3365685,61.7439604 83.2560518,61.6431789 83.1377929,61.4279967 C83.0295986,61.2700148 82.951598,61.0820708 82.8710813,60.8832316 C82.712564,60.4365242 82.659725,60.1069414 82.6471442,59.3769562 C82.6320473,59.0037921 82.6320473,58.6605901 82.6320473,58.3282834 L82.6320473,54.1417638 L89.8005505,54.1417638 Z" id="Fill-56"></path>
                <path d="M41.5500534,58.4432433 C41.5500534,58.7591574 41.5625916,59.0451141 41.5625916,59.3038368 C41.5776374,60.107239 41.6302977,60.5211953 41.7757403,60.9106411 C41.8409388,61.0958321 41.9337211,61.2674062 42.0390417,61.4389802 C42.1844844,61.6405116 42.2496828,61.7276603 42.4879078,62 L37.4174757,62 C37.7083611,61.6977029 37.8011434,61.5969372 37.9465861,61.3981292 C38.0644448,61.2238318 38.1572272,61.0386408 38.2224256,60.8371094 C38.3553301,60.464004 38.4079904,59.9928563 38.4079904,59.1758371 L38.4079904,47.8029305 C38.4079904,46.8851457 38.3553301,46.3404663 38.2500096,45.9537439 C38.1823035,45.7385955 38.0895211,45.5234471 37.9716624,45.3219157 C37.8136816,45.0795334 37.7083611,44.9488103 37.4300139,44.6764706 L41.5500534,44.6764706 C42.0515799,44.6764706 42.5531063,44.6764706 43.0295564,44.6900876 C44.2959106,44.7336619 45.0356621,44.8208106 45.7478296,44.9923847 C46.7784664,45.2511074 47.6887368,45.8094038 48.3507517,46.5556146 C49.0629192,47.3726338 49.4315411,48.333993 49.4315411,49.3961179 C49.4315411,49.8400316 49.3663427,50.2975624 49.2334382,50.7278591 C48.9977208,51.5176443 48.6015149,52.133132 47.9796222,52.7077688 C47.4128973,53.2088739 46.8060503,53.5955963 46.0136386,53.9414678 C45.7227533,54.0694674 45.6023869,54.1130418 45.2989634,54.2138075 L47.7815192,57.3675014 C48.0724045,57.7542238 48.4686104,58.2280949 48.9450605,58.7863913 C49.6823044,59.6633252 50.1863384,60.2216216 50.7530633,60.7962584 C50.9912883,61.0386408 51.2144676,61.2674062 51.4401545,61.4689376 C51.6382574,61.6704689 51.7435779,61.7712346 52.0194175,62 L50.0133118,62 C49.7224265,62 49.4465869,62 49.1807779,61.986383 C48.4961944,61.9564256 48.0598664,61.842043 47.5984621,61.5833202 C47.0693517,61.2674062 46.5277032,60.7935351 45.9459325,60.1644303 C45.7754135,59.9628989 45.5121122,59.6469848 45.1811047,59.2166881 C44.8776812,58.8435827 44.6519944,58.571243 44.5065517,58.386052 L41.5500534,54.5433385 L41.5500534,58.4432433 Z M41.8133548,53.0944912 C42.0390417,53.0944912 42.3148812,53.0645339 42.6458887,53.0073425 C43.5034988,52.8793429 44.0852695,52.6641945 44.6519944,52.3047061 C44.9554178,52.1195151 45.2086887,51.8907497 45.404284,51.645644 C45.8155356,51.1581559 46.0261767,50.4854768 46.0261767,49.6956916 C46.0261767,48.7915237 45.7478296,48.0752703 45.1936429,47.5741652 C44.8902194,47.2882085 44.5215975,47.0730601 44.1253916,46.942337 C43.5185446,46.757146 42.7512092,46.6563803 41.9713356,46.6563803 C41.8409388,46.6563803 41.7606945,46.6563803 41.5500534,46.6699973 L41.5500534,53.0808743 C41.6829579,53.0808743 41.7356182,53.0944912 41.8133548,53.0944912 L41.8133548,53.0944912 Z" id="Fill-58"></path>
                <path d="M33.7669903,44.6764706 L28.752157,44.6764706 C29.0638832,44.9269249 29.1677919,45.0508339 29.323655,45.3276518 C29.4300378,45.4963789 29.5067323,45.6888333 29.5586867,45.8971058 C29.6625954,46.3004691 29.6898096,46.7038323 29.6898096,47.6476497 L29.6898096,54.0197347 C29.6898096,55.3932788 29.6625954,56.197369 29.5586867,56.8643684 C29.4943622,57.3099134 29.3632393,57.7238221 29.1554219,58.1008218 C28.7768972,58.781003 28.0619062,59.3082752 27.2157922,59.5297296 C26.8768518,59.6272749 26.5106973,59.6694567 26.1074324,59.6694567 C24.7516709,59.6694567 23.5938307,59.1263663 23.0322288,58.2537307 C22.6042238,57.5577314 22.4731009,56.9065502 22.4607308,55.1850063 L22.4335166,53.8114621 L22.4335166,48.7575577 C22.4335166,47.7715586 22.4458867,47.29965 22.485471,46.8013777 C22.497841,46.5087416 22.5374253,46.2451055 22.6042238,46.036833 C22.7081325,45.6492879 22.9802744,45.1351974 23.2425203,44.8161977 C23.2672605,44.7871978 23.3068447,44.745016 23.3587991,44.6764706 L18.2524272,44.6764706 C18.5641534,44.9532885 18.6680621,45.0798339 18.8263992,45.3566518 C18.9154638,45.5359243 18.9946324,45.7310151 19.0465868,45.9392876 C19.0985411,46.1897419 19.1381254,46.453378 19.1504955,46.7038323 L19.1504955,47.745195 L19.1628656,48.7153759 L19.1628656,53.518826 C19.1628656,55.2957335 19.1628656,55.7544603 19.2296641,56.4768233 C19.3212027,57.6974585 19.6725132,58.6834576 20.3231797,59.5587295 C21.5230782,61.1537281 23.4379677,62 25.8724008,62 C27.045085,62 28.178185,61.8049093 29.039143,61.459546 C29.9495814,61.1115463 30.7833253,60.5157286 31.3820375,59.7933657 C32.1118727,58.9339119 32.5299816,57.8635493 32.6586305,56.5453687 C32.725429,55.7808239 32.7650132,54.8660066 32.7650132,53.547826 L32.7650132,48.7311941 L32.7501691,47.7715586 L32.7501691,47.5764679 C32.7501691,46.8567413 32.7897534,46.4401962 32.8812921,46.0500148 C32.9332464,45.8153786 33.0247851,45.5781061 33.155908,45.3698336 C33.3241412,45.0798339 33.44042,44.9532885 33.7669903,44.6764706" id="Fill-60"></path>
            </g>
        </g>
    </g>
</svg>