<svg width="24" height="24" viewBox="0 0 24 24" fill="none" xmlns="http://www.w3.org/2000/svg">
<path fill-rule="evenodd" clip-rule="evenodd" d="M7.44 6.47187C7.44 3.95959 9.48249 1.91992 12 1.91992C14.5175 1.91992 16.56 3.95939 16.56 6.47187V11.5289C16.56 14.0412 14.5175 16.0799 12 16.0799C9.48249 16.0799 7.44 14.0414 7.44 11.5289V6.47187ZM12 3.59992C10.3223 3.59992 9.12 4.7882 9.12 6.46285V8.99138V11.5199C9.12 13.1945 10.3223 14.3999 12 14.3999C13.6777 14.3999 14.88 13.2036 14.88 11.5289V9.00041V6.46285C14.88 4.78825 13.6777 3.59992 12 3.59992Z" fill="black"/>
<path fill-rule="evenodd" clip-rule="evenodd" d="M19.9429 12.7874C20.0153 12.3291 19.6628 11.9243 19.2 11.8915C18.7373 11.8587 18.3408 12.2115 18.2573 12.6678C17.0163 19.456 6.98372 19.456 5.7427 12.6678C5.65927 12.2115 5.26277 11.8587 4.80001 11.8915C4.33725 11.9243 3.9847 12.3291 4.05713 12.7874C4.70373 16.8783 7.83562 19.0822 11.16 19.3991V21.1201C11.16 21.584 11.5361 21.9601 12 21.9601C12.4639 21.9601 12.84 21.584 12.84 21.1201V19.3991C16.1644 19.0822 19.2963 16.8783 19.9429 12.7874Z" fill="black"/>
</svg>
