<svg width="24" height="18" viewBox="0 0 24 18" fill="none" xmlns="http://www.w3.org/2000/svg">
<path d="M23.5979 2.83251C23.1988 2.29974 22.7244 1.8287 22.1893 1.43314C18.6221 -1.21014 13.5552 0.481915 11.8904 1.16789C10.2258 0.481901 5.15868 -1.21016 1.59146 1.43314C1.05641 1.82873 0.581941 2.29974 0.182927 2.83251C0.0674546 2.98571 0.00343024 3.17091 0 3.363V16.7989C0.00114322 17.1762 0.233233 17.5146 0.586507 17.6495C0.938634 17.7855 1.33765 17.6907 1.59146 17.4117C2.96684 15.9403 4.9219 15.1502 6.93293 15.2532C8.57813 15.4041 10.1056 16.1689 11.2134 17.3934C11.2832 17.4563 11.3598 17.5112 11.4421 17.558H11.5061C11.7176 17.6404 11.9531 17.6404 12.1646 17.558H12.2287C12.311 17.5112 12.3876 17.4563 12.4573 17.3934C13.5926 16.1438 15.1635 15.3778 16.8476 15.2532C18.8563 15.1468 20.8102 15.93 22.189 17.3934C22.4405 17.6701 22.8361 17.7661 23.186 17.6358C23.5369 17.5043 23.7725 17.1728 23.7805 16.7989V3.36298C23.777 3.1709 23.713 2.98568 23.5975 2.83249L23.5979 2.83251ZM7.08878 13.4241C5.22407 13.2892 3.2201 13.9413 1.68 15V3.72C1.93153 3.41933 2.3669 3.13099 2.68016 2.89661C5.36002 0.893545 9.43024 2.13736 11.04 2.76847V14.76C9.88528 13.9677 8.48239 13.5499 7.08878 13.4241ZM22.08 15C20.7275 14.0876 19.0098 13.4424 17.3783 13.4241H16.7198C15.3158 13.5453 13.8827 13.9643 12.72 14.76V2.76847C14.3206 2.13739 18.4212 0.939203 21.101 2.89652C21.4142 3.1309 21.8285 3.41933 22.08 3.72V15Z" fill="#191919"/>
</svg>
