<svg width="18" height="22" viewBox="0 0 18 22" fill="none" xmlns="http://www.w3.org/2000/svg">
<path fill-rule="evenodd" clip-rule="evenodd" d="M15.72 5.23992C15.72 5.47854 15.4958 6.11947 14.1714 6.80062C12.9344 7.43676 11.1087 7.87992 9.00001 7.87992C6.89135 7.87992 5.0656 7.43676 3.82865 6.80062C2.50421 6.11947 2.28001 5.47854 2.28001 5.23992C2.28001 5.00131 2.50421 4.36037 3.82865 3.67922C5.0656 3.04308 6.89135 2.59992 9.00001 2.59992C11.1087 2.59992 12.9344 3.04308 14.1714 3.67922C15.4958 4.36037 15.72 5.00131 15.72 5.23992ZM17.4 5.23992C17.4 2.85405 13.6392 0.919922 9.00001 0.919922C4.36081 0.919922 0.600006 2.85405 0.600006 5.23992V16.7599C0.600006 19.1458 4.36081 21.0799 9.00001 21.0799C13.6392 21.0799 17.4 19.1458 17.4 16.7599V5.23992ZM15.72 7.83234C14.1875 8.88139 11.7478 9.55992 9.00001 9.55992C6.2522 9.55992 3.81255 8.88139 2.28001 7.83234V9.07992C2.28001 9.31854 2.50421 9.95947 3.82865 10.6406C5.0656 11.2768 6.89135 11.7199 9.00001 11.7199C11.1087 11.7199 12.9344 11.2768 14.1714 10.6406C15.4958 9.95947 15.72 9.31854 15.72 9.07992V7.83234ZM2.28001 12.9199V11.6723C3.81255 12.7214 6.2522 13.3999 9.00001 13.3999C11.7478 13.3999 14.1875 12.7214 15.72 11.6723V12.9199C15.72 13.1585 15.4958 13.7995 14.1714 14.4806C12.9344 15.1168 11.1087 15.5599 9.00001 15.5599C6.89135 15.5599 5.0656 15.1168 3.82865 14.4806C2.50421 13.7995 2.28001 13.1585 2.28001 12.9199ZM12.8521 16.7599C13.9817 16.4596 14.9619 16.0313 15.72 15.5123V16.7599C15.72 16.9985 15.4958 17.6395 14.1714 18.3206C12.9344 18.9568 11.1087 19.3999 9.00001 19.3999C6.89135 19.3999 5.0656 18.9568 3.82865 18.3206C2.50421 17.6395 2.28001 16.9985 2.28001 16.7599V15.5123C3.03816 16.0313 4.01831 16.4596 5.14795 16.7599C6.30177 17.0667 7.61155 17.2399 9.00001 17.2399C10.3885 17.2399 11.6982 17.0667 12.8521 16.7599Z" fill="black"/>
</svg>
