<svg width="16" height="18" viewBox="0 0 16 18" fill="none" xmlns="http://www.w3.org/2000/svg">
<path fill-rule="evenodd" clip-rule="evenodd" d="M13.56 5.16009C14.7529 5.16009 15.72 4.19302 15.72 3.00009C15.72 1.80715 14.7529 0.840088 13.56 0.840088C12.3671 0.840088 11.4 1.80715 11.4 3.00009C11.4 3.06697 11.403 3.13315 11.409 3.19849L4.30688 7.28016C3.94403 7.00402 3.49116 6.84009 3 6.84009C1.80706 6.84009 0.839996 7.80715 0.839996 9.00009C0.839996 10.193 1.80706 11.1601 3 11.1601C3.49116 11.1601 3.94404 10.9962 4.30689 10.72L11.409 14.8017C11.403 14.867 11.4 14.9332 11.4 15.0001C11.4 16.193 12.3671 17.1601 13.56 17.1601C14.7529 17.1601 15.72 16.193 15.72 15.0001C15.72 13.8072 14.7529 12.8401 13.56 12.8401C13.0457 12.8401 12.5733 13.0198 12.2024 13.32L5.1441 9.26348C5.15459 9.17715 5.16 9.08925 5.16 9.00009C5.16 8.91092 5.15459 8.82302 5.1441 8.73668L12.2024 4.6802C12.5733 4.98032 13.0457 5.16009 13.56 5.16009Z" fill="#191919"/>
</svg>
