<svg width="24" height="24" viewBox="0 0 24 24" fill="none" xmlns="http://www.w3.org/2000/svg">
<path d="M7.50001 16.3561H7.65601V7.31181C7.65601 6.84942 7.97301 6.44733 8.42263 6.33942L18.6104 3.89429C19.2392 3.74337 19.8438 4.21994 19.8438 4.86659L19.8447 15.1127L19.8466 15.1247C19.9125 15.5427 19.7493 16.0249 19.3907 16.479C19.0338 16.9311 18.494 17.3404 17.8418 17.6063L17.8404 17.6069C17.0906 17.921 16.3349 17.9908 15.7253 17.8665C15.1134 17.7417 14.6694 17.4278 14.4952 16.9925C14.3197 16.5539 14.4114 16.0203 14.7494 15.5044C15.0865 14.9899 15.6604 14.5087 16.4103 14.1943L16.4124 14.1934L16.4144 14.1925C16.9416 13.9536 17.5192 13.8567 18 13.8567H18.156V5.75347L9.3437 7.82655L9.34465 17.612L9.34656 17.6241C9.41251 18.0421 9.2493 18.5242 8.89071 18.9784C8.53379 19.4305 7.99395 19.8398 7.34176 20.1056L7.34037 20.1062C6.59055 20.4204 5.83489 20.4901 5.22528 20.3658C4.61336 20.2411 4.16938 19.9272 3.99516 19.4918C3.81964 19.0532 3.91142 18.5197 4.24941 18.0038C4.5865 17.4893 5.16041 17.008 5.91032 16.6937L5.91237 16.6928L5.91439 16.6919C6.44162 16.453 7.01916 16.3561 7.50001 16.3561Z" fill="#191919"/>
</svg>
