<svg width="20" height="20" viewBox="0 0 20 20" fill="none" xmlns="http://www.w3.org/2000/svg">
<path fill-rule="evenodd" clip-rule="evenodd" d="M13.7808 1.3266C11.9892 0.555003 10.0046 0.35326 8.09416 0.748567C7.46283 0.875499 6.84618 1.06972 6.25589 1.32728L6.25247 1.3288L6.06028 1.41505C6.05158 1.41895 6.04309 1.42318 6.03482 1.4277C3.7852 2.46805 2.03569 4.35416 1.16697 6.67705L1.08944 6.88436C1.08562 6.89274 1.0821 6.90132 1.07889 6.91008C0.716915 7.89942 0.527604 8.94348 0.519785 9.99726L0.519782 9.99949C0.518826 10.7759 0.615353 11.5496 0.80759 12.3013V12.3231C0.80759 12.3549 0.811808 12.3865 0.820133 12.4172C0.879016 12.6344 0.949918 12.8677 1.03238 13.084L1.03279 13.0851L1.11815 13.3133C1.98765 15.6421 3.7423 17.532 5.99951 18.573L6.00288 18.5746L6.19507 18.6608L6.19925 18.6627C8.59968 19.7036 11.3237 19.7036 13.7241 18.6627L13.7283 18.6608L13.9205 18.5746C13.9239 18.573 13.9274 18.5714 13.9308 18.5697C13.9335 18.5684 13.9362 18.5671 13.9389 18.5657C16.1924 17.525 17.9433 15.6374 18.8138 13.3135L18.9 13.0829L18.9025 13.0762C19.5833 11.1395 19.6049 9.0337 18.9672 7.08541C18.9758 7.02668 18.9698 6.96559 18.9482 6.90767L18.862 6.67722C17.9925 4.34851 16.2378 2.45856 13.9814 1.41754L13.9779 1.41598L13.8081 1.33977C13.7992 1.33502 13.7901 1.33063 13.7808 1.3266ZM12.2732 2.48113L12.6002 2.59898L12.7485 2.65733C13.021 3.57273 13.2326 4.50584 13.3812 5.44934C13.2309 5.44033 13.0798 5.43093 12.9279 5.42147L12.9278 5.42147L12.9278 5.42147C12.2417 5.37876 11.5404 5.3351 10.84 5.32324L10.84 2.23092C10.9891 2.24678 11.1378 2.26685 11.2863 2.29111C11.3055 2.29425 11.3249 2.29582 11.3444 2.29582H11.5418L11.9371 2.39067L12.2732 2.48113ZM8.71106 2.35356C8.85974 2.31805 9.00946 2.28677 9.15994 2.25974L9.15998 5.32279C8.30785 5.33495 7.45874 5.38913 6.62185 5.46822C6.76998 4.53303 6.98003 3.60817 7.24998 2.70077L7.38603 2.64975L7.70216 2.54113L8.03058 2.45924L8.43852 2.36341H8.62743C8.65559 2.36341 8.68366 2.3601 8.71106 2.35356ZM16.638 5.91866C16.1501 5.81929 15.641 5.73122 15.111 5.65069C15.0249 5.03741 14.9153 4.42785 14.7828 3.8233C15.5229 4.40334 16.1518 5.11338 16.638 5.91866ZM4.89878 5.67703C4.34509 5.75511 3.83455 5.84621 3.35025 5.9484C3.84256 5.13831 4.47927 4.42547 5.22805 3.8453C5.09531 4.45144 4.98556 5.06246 4.89878 5.67703ZM13.72 9.98176C13.7209 10.9195 13.6775 11.8565 13.5898 12.7899C12.6791 12.9059 11.7592 12.9812 10.8401 12.9971V7.00298C11.7575 7.01699 12.6761 7.08265 13.5878 7.17084C13.676 8.10462 13.72 9.04263 13.72 9.98144V9.98176ZM6.41189 12.8295C6.23307 10.9581 6.23329 9.07357 6.41257 7.20226C7.32331 7.09334 8.24224 7.01907 9.15998 7.00335V12.9974C8.24253 12.9834 7.32372 12.9177 6.41189 12.8295ZM17.6905 11.0865C17.6867 11.1075 17.6847 11.1293 17.6847 11.1515V11.2474C17.6338 11.55 17.5635 11.8491 17.4744 12.1426C16.7625 12.3293 16.0423 12.4818 15.3162 12.5996C15.3872 11.7684 15.429 10.9021 15.429 10.0001C15.429 9.09783 15.3878 8.23714 15.3162 7.40071C16.0423 7.51845 16.7625 7.67092 17.4744 7.85771C17.5635 8.15119 17.6338 8.45022 17.6847 8.75286V8.84786C17.6847 8.86598 17.6861 8.88409 17.6888 8.90201C17.799 9.6263 17.7996 10.362 17.6905 11.0865ZM2.29552 8.75327C2.34726 8.4502 2.41769 8.15101 2.50676 7.85761C3.2181 7.67083 3.93831 7.51836 4.66497 7.4006C4.59392 8.23179 4.55209 9.09812 4.55209 10.0001C4.55209 10.9024 4.59337 11.7631 4.66496 12.5996C3.93833 12.4818 3.21813 12.3294 2.50682 12.1426C2.41773 11.8491 2.34728 11.5499 2.29552 11.2467V11.1522C2.29552 11.1341 2.29415 11.116 2.29143 11.098C2.18064 10.3699 2.18064 9.63013 2.29143 8.90196C2.29415 8.88403 2.29552 8.86593 2.29552 8.84781V8.75327ZM3.35171 14.0586C3.84262 14.1588 4.35505 14.2476 4.8887 14.3287C4.97503 14.9434 5.08493 15.5544 5.21774 16.1607C4.47326 15.5796 3.84073 14.8673 3.35171 14.0586ZM14.7718 16.1551C14.9046 15.5489 15.0144 14.9379 15.1011 14.3234C15.6548 14.2453 16.1654 14.1542 16.6497 14.052C16.1574 14.8621 15.5206 15.5749 14.7718 16.1551ZM7.24059 17.29C6.97061 16.3818 6.76057 15.4574 6.61245 14.5224C7.45143 14.6001 8.30062 14.6495 9.1515 14.666L9.1591 17.8002H9.02046L8.45591 17.7109L8.24488 17.6625L7.73187 17.4605C7.7258 17.4581 7.71967 17.4559 7.71349 17.4539L7.43106 17.36L7.24059 17.29ZM11.0002 17.7035H10.84V14.6775C11.692 14.6653 12.541 14.6112 13.3777 14.5321C13.231 15.4533 13.0248 16.3639 12.7598 17.2579L12.5639 17.3318L12.2842 17.4315L11.794 17.5606L11.7899 17.5616L11.5423 17.6237L11.0002 17.7035Z" fill="black"/>
</svg>
