<svg width="24" height="24" viewBox="0 0 24 24" fill="none" xmlns="http://www.w3.org/2000/svg">
<path d="M17.5059 0H6.49407C4.77189 0 3.11993 0.68438 1.90218 1.90218C0.684428 3.11998 0 4.77184 0 6.49407V17.5059C0 19.2281 0.68438 20.8801 1.90218 22.0978C3.11998 23.3156 4.77184 24 6.49407 24H17.5059C19.2281 24 20.8801 23.3156 22.0978 22.0978C23.3156 20.88 24 19.2282 24 17.5059V6.49407C24 4.77189 23.3156 3.11993 22.0978 1.90218C20.88 0.684428 19.2282 0 17.5059 0V0ZM22.3201 17.5057C22.3182 18.7817 21.8101 20.0051 20.9082 20.908C20.0054 21.8098 18.782 22.3179 17.506 22.3198H6.49412C5.21819 22.3179 3.99478 21.8098 3.0919 20.908C2.19003 20.0052 1.68191 18.7817 1.68004 17.5057V6.49388C1.68191 5.21795 2.19003 3.99454 3.0919 3.09166C3.9947 2.18979 5.21814 1.68167 6.49412 1.6798H17.506C18.7819 1.68167 20.0053 2.18979 20.9082 3.09166C21.8101 3.99446 22.3182 5.2179 22.3201 6.49388V17.5057Z" fill="#191919"/>
<path d="M14.4 11.0876L10.4587 8.62565C9.65719 8.1241 9 8.48878 9 9.43471V14.5656C9 15.5116 9.65719 15.8762 10.4587 15.3747L14.4 12.9118C15.2015 12.4103 15.2015 11.589 14.4 11.0875V11.0876Z" fill="#191919"/>
</svg>
